<svg xmlns="http://www.w3.org/2000/svg" xmlns:xlink="http://www.w3.org/1999/xlink" viewBox="0 0 200.43862 195.44289"><defs><style>.cls-1,.cls-15,.cls-19{fill:none;}.cls-2,.cls-21{fill:#efc41c;}.cls-11,.cls-2,.cls-4,.cls-5,.cls-6,.cls-7,.cls-8,.cls-9{stroke:#010101;stroke-miterlimit:10;stroke-width:0.5px;}.cls-3{fill:#fff;}.cls-4{fill:#f15c5a;}.cls-5{fill:#965ba5;}.cls-6{fill:#194c61;}.cls-7{fill:#ef9021;}.cls-10,.cls-8{fill:#3c8b53;}.cls-9{fill:#4fba6f;}.cls-11,.cls-25{fill:#2c96c0;}.cls-12{fill:#010101;}.cls-13{fill:#231f20;}.cls-14{clip-path:url(#clip-path);}.cls-15{stroke:#2c96c0;}.cls-15,.cls-19{stroke-width:2px;}.cls-16{clip-path:url(#clip-path-2);}.cls-17{fill:#4899d4;}.cls-18{clip-path:url(#clip-path-3);}.cls-19{stroke:#efc41c;}.cls-20{clip-path:url(#clip-path-4);}.cls-22{clip-path:url(#clip-path-5);}.cls-23{clip-path:url(#clip-path-6);}.cls-24{clip-path:url(#clip-path-7);}.cls-26{clip-path:url(#clip-path-8);}.cls-27{clip-path:url(#clip-path-9);}.cls-28{clip-path:url(#clip-path-10);}</style><clipPath id="clip-path"><rect class="cls-1" x="109.13018" y="28.37436" width="54.57128" height="1.12682"/></clipPath><clipPath id="clip-path-2"><rect class="cls-1" x="123.58882" y="24.47666" width="26.25719" height="8.03874"/></clipPath><clipPath id="clip-path-3"><rect class="cls-1" x="3.01" y="28.25267" width="64.91496" height="1.10812"/></clipPath><clipPath id="clip-path-4"><rect class="cls-1" x="18.85017" y="24.2333" width="33.23461" height="8.03874"/></clipPath><clipPath id="clip-path-5"><rect class="cls-1" x="166.37503" y="138.3859" width="1.12682" height="54.57128"/></clipPath><clipPath id="clip-path-6"><rect id="SVGID" class="cls-1" x="163.36079" y="152.84457" width="8.03876" height="26.25719"/></clipPath><clipPath id="clip-path-7"><polygon id="SVGID-2" data-name="SVGID" class="cls-1" points="0.511 198.088 288.977 198.088 280.649 -36.152 -7.817 -36.152 0.511 198.088"/></clipPath><clipPath id="clip-path-8"><rect class="cls-1" x="166.37503" y="32.89211" width="1.12682" height="66.01073"/></clipPath><clipPath id="clip-path-9"><rect class="cls-1" x="-7.81729" y="-37.2525" width="288.46621" height="216.34966"/></clipPath><clipPath id="clip-path-10"><rect class="cls-1" x="163.36076" y="49.64566" width="8.03876" height="33.2346"/></clipPath></defs><g id="Layer_2" data-name="Layer 2"><g id="Layer_1-2" data-name="Layer 1"><g id="obs"><rect class="cls-2" x="171.18398" y="33.48786" width="29.00464" height="64.88394"/><path class="cls-3" d="M181.96563,64.80884a1.63211,1.63211,0,0,1,.63769.125,1.50022,1.50022,0,0,1,.51758.36035,1.68853,1.68853,0,0,1,.34863.58057,2.25971,2.25971,0,0,1,.126.77978,2.28266,2.28266,0,0,1-.125.78028,1.70261,1.70261,0,0,1-.3418.582,1.46462,1.46462,0,0,1-.51855.36474,1.66567,1.66567,0,0,1-.65137.12647,1.60131,1.60131,0,0,1-.65722-.13574,1.62046,1.62046,0,0,1-.53516-.38086,1.775,1.775,0,0,1-.3584-.582,2.03436,2.03436,0,0,1-.13086-.74024,2.00958,2.00958,0,0,1,.13379-.73926,1.87084,1.87084,0,0,1,.36426-.58984,1.69812,1.69812,0,0,1,.53711-.39014A1.54688,1.54688,0,0,1,181.96563,64.80884Zm.79492,1.86035a1.918,1.918,0,0,0-.06055-.50488,1.14771,1.14771,0,0,0-.16992-.37207.74786.74786,0,0,0-.26074-.23047.714.714,0,0,0-.65332,0,.7254.7254,0,0,0-.25293.22851A1.1888,1.1888,0,0,0,181.2,66.155a1.84027,1.84027,0,0,0-.05859.48486,1.92987,1.92987,0,0,0,.05762.48926,1.16147,1.16147,0,0,0,.16211.37158.7586.7586,0,0,0,.25878.2378.68173.68173,0,0,0,.33887.08447.68957.68957,0,0,0,.584-.29639A1.4325,1.4325,0,0,0,182.76055,66.66919Z"/><path class="cls-3" d="M184.18535,63.32593h.94434a.14134.14134,0,0,1-.01465.06982.26488.26488,0,0,1-.03125.04541l-.03418.04248a.106.106,0,0,0-.02246.0586v1.644a1.15227,1.15227,0,0,1,.37695-.28027,1.03635,1.03635,0,0,1,.43262-.09717,1.46722,1.46722,0,0,1,.56348.11035,1.30634,1.30634,0,0,1,.4707.3291,1.58942,1.58942,0,0,1,.32227.54785,2.2268,2.2268,0,0,1,.11914.76709,2.51234,2.51234,0,0,1-.12989.84766,1.84858,1.84858,0,0,1-.34277.606,1.40137,1.40137,0,0,1-.4834.36279,1.33452,1.33452,0,0,1-.54883.12061,1.158,1.158,0,0,1-.50585-.11524,1.17873,1.17873,0,0,1-.417-.335l-.11328.33691h-.58594Zm.835,3.27a2.81409,2.81409,0,0,0,.04687.55517,1.20272,1.20272,0,0,0,.13574.37354.5501.5501,0,0,0,.21485.21045.60251.60251,0,0,0,.2832.06592.65134.65134,0,0,0,.25976-.0586.68642.68642,0,0,0,.249-.19043,1.013,1.013,0,0,0,.18555-.34619,1.6807,1.6807,0,0,0,.07128-.52881,2.01494,2.01494,0,0,0-.07128-.57324.97669.97669,0,0,0-.207-.38672.73093.73093,0,0,0-.21777-.16992.65486.65486,0,0,0-.291-.05664.57418.57418,0,0,0-.334.08936.60373.60373,0,0,0-.19922.24365,1.23493,1.23493,0,0,0-.09863.35351A3.0291,3.0291,0,0,0,185.02032,66.596Z"/><path class="cls-3" d="M190.48711,66.02466a.06022.06022,0,0,1-.04492-.01611.11664.11664,0,0,1-.02637-.04053.52819.52819,0,0,1-.0166-.05127.30532.30532,0,0,0-.01758-.04932.99722.99722,0,0,0-.165-.15576,1.20546,1.20546,0,0,0-.21777-.12988,1.4051,1.4051,0,0,0-.25293-.08789,1.10492,1.10492,0,0,0-.26562-.03272,1.39182,1.39182,0,0,0-.21582.01612.7021.7021,0,0,0-.18164.05322.33408.33408,0,0,0-.124.09521.22719.22719,0,0,0-.0459.14307.25185.25185,0,0,0,.04981.15918.45622.45622,0,0,0,.14746.11719,1.53322,1.53322,0,0,0,.249.10058c.10059.03174.21875.06592.35547.10254a2.23843,2.23843,0,0,1,.9209.4502.83872.83872,0,0,1,.29492.62988.98732.98732,0,0,1-.10644.45068,1.17447,1.17447,0,0,1-.29981.37549,1.46278,1.46278,0,0,1-.4707.25781,1.886,1.886,0,0,1-.61719.09571,2.31558,2.31558,0,0,1-.81836-.14112,2.10633,2.10633,0,0,1-.70508-.45263l.43555-.78711a.08762.08762,0,0,1,.06641.05322c.01464.03027.0332.07276.05468.12647a.7522.7522,0,0,0,.16895.18457,1.51659,1.51659,0,0,0,.24512.16308,1.45024,1.45024,0,0,0,.28418.11719.99577.99577,0,0,0,.2832.04395,1.02273,1.02273,0,0,0,.46484-.08594.27614.27614,0,0,0,.165-.2583.31145.31145,0,0,0-.03613-.15381.39167.39167,0,0,0-.11524-.12256.94364.94364,0,0,0-.207-.10645c-.08593-.03271-.19043-.06787-.31543-.104-.06836-.01953-.13574-.03906-.20312-.05859s-.13477-.043-.20313-.06983a2.23924,2.23924,0,0,1-.36621-.17383,1.22341,1.22341,0,0,1-.27246-.21826.83355.83355,0,0,1-.1709-.27246.93659.93659,0,0,1-.05859-.33887.76266.76266,0,0,1,.10449-.37353,1.1506,1.1506,0,0,1,.28711-.335,1.51144,1.51144,0,0,1,.43848-.2417,1.59856,1.59856,0,0,1,.55762-.09375,1.90913,1.90913,0,0,1,.74218.14307,1.7336,1.7336,0,0,1,.62793.46533Z"/></g><g id="obsp"><rect class="cls-4" x="0.25" y="36.21552" width="64.91495" height="64.88391"/><rect class="cls-4" x="1.63" y="34.83552" width="64.91495" height="64.88391"/><rect class="cls-4" x="3.01" y="33.45552" width="64.91496" height="64.88391"/><path class="cls-3" d="M30.17657,64.46069a1.62987,1.62987,0,0,1,.6372.125,1.49755,1.49755,0,0,1,.51807.36036,1.68747,1.68747,0,0,1,.34814.58056,2.25954,2.25954,0,0,1,.12647.77979,2.28261,2.28261,0,0,1-.125.78027,1.70342,1.70342,0,0,1-.34229.582,1.45856,1.45856,0,0,1-.51806.36475,1.66829,1.66829,0,0,1-.65186.12646,1.60988,1.60988,0,0,1-1.19189-.5166,1.77577,1.77577,0,0,1-.35889-.582,2.03424,2.03424,0,0,1-.13037-.74023,2.00951,2.00951,0,0,1,.13379-.73926,1.86219,1.86219,0,0,1,.36426-.58985,1.70164,1.70164,0,0,1,.53662-.39013A1.54748,1.54748,0,0,1,30.17657,64.46069Zm.79492,1.86036a1.91815,1.91815,0,0,0-.06055-.50489,1.15872,1.15872,0,0,0-.17041-.37207.75085.75085,0,0,0-.26025-.23047.71405.71405,0,0,0-.65332,0,.71684.71684,0,0,0-.25293.22852,1.18856,1.18856,0,0,0-.16309.36475,1.84017,1.84017,0,0,0-.05859.48486,1.93086,1.93086,0,0,0,.05713.48926,1.16191,1.16191,0,0,0,.16259.37158.75717.75717,0,0,0,.2583.23779.723.723,0,0,0,.92286-.21191A1.43238,1.43238,0,0,0,30.97149,66.32105Z"/><path class="cls-3" d="M32.3958,62.97778h.94483a.14149.14149,0,0,1-.01465.06983.29655.29655,0,0,1-.03125.04541l-.03467.04248a.10569.10569,0,0,0-.022.05859v1.644a1.14723,1.14723,0,0,1,.377-.28028,1.03643,1.03643,0,0,1,.43262-.09717,1.46889,1.46889,0,0,1,.56348.11036,1.31473,1.31473,0,0,1,.4707.3291,1.58931,1.58931,0,0,1,.32226.54785,2.23825,2.23825,0,0,1,.11914.76709,2.52467,2.52467,0,0,1-.12988.84766,1.84843,1.84843,0,0,1-.34277.606,1.40137,1.40137,0,0,1-.4834.3628,1.33636,1.33636,0,0,1-.54883.1206,1.158,1.158,0,0,1-.50586-.11523,1.17879,1.17879,0,0,1-.417-.335l-.11377.33691H32.3958Zm.835,3.27a2.77361,2.77361,0,0,0,.04737.55518,1.19053,1.19053,0,0,0,.13574.37354.552.552,0,0,0,.21436.21044.603.603,0,0,0,.28369.06592.65333.65333,0,0,0,.25976-.05859.69475.69475,0,0,0,.249-.19043,1.01252,1.01252,0,0,0,.185-.34619,1.67921,1.67921,0,0,0,.07178-.52881,2.0132,2.0132,0,0,0-.07178-.57324.96982.96982,0,0,0-.20654-.38672A.73844.73844,0,0,0,34.181,65.199a.65341.65341,0,0,0-.291-.05664.57149.57149,0,0,0-.33349.08935.596.596,0,0,0-.19922.24365,1.235,1.235,0,0,0-.09912.35352A3.107,3.107,0,0,0,33.23076,66.2478Z"/><path class="cls-3" d="M38.69805,65.67652a.06141.06141,0,0,1-.04541-.01612.11549.11549,0,0,1-.02588-.04053.52641.52641,0,0,1-.0166-.05127.265.265,0,0,0-.01807-.04931.993.993,0,0,0-.16455-.15576,1.193,1.193,0,0,0-.21826-.12989,1.40082,1.40082,0,0,0-.25244-.08789,1.108,1.108,0,0,0-.26563-.03271,1.384,1.384,0,0,0-.21582.01611.697.697,0,0,0-.18164.05322.336.336,0,0,0-.12451.09522.22685.22685,0,0,0-.04541.14307.2516.2516,0,0,0,.04932.15918.464.464,0,0,0,.148.11718,1.51472,1.51472,0,0,0,.249.10059q.15015.04761.35547.10254a2.24173,2.24173,0,0,1,.9209.45019.84049.84049,0,0,1,.29492.62989.99361.99361,0,0,1-.10645.45068,1.18123,1.18123,0,0,1-.2998.37549,1.46817,1.46817,0,0,1-.4707.25781,1.88814,1.88814,0,0,1-.61719.0957,2.31363,2.31363,0,0,1-.81836-.14111,2.10171,2.10171,0,0,1-.70508-.45264l.43555-.78711a.08764.08764,0,0,1,.0664.05323c.01465.03027.03272.07275.05469.12646a.74909.74909,0,0,0,.16846.18457,1.52134,1.52134,0,0,0,.2456.16309,1.45847,1.45847,0,0,0,.2837.11719.99668.99668,0,0,0,.28369.04394,1.02273,1.02273,0,0,0,.46484-.08594.27612.27612,0,0,0,.165-.2583.31166.31166,0,0,0-.03662-.15381.38614.38614,0,0,0-.11524-.12255.93212.93212,0,0,0-.207-.10645c-.08545-.03271-.19043-.06787-.31494-.104-.06836-.01954-.13623-.03907-.20312-.0586-.06739-.01953-.13526-.043-.20313-.06982a2.20173,2.20173,0,0,1-.36621-.17383,1.21575,1.21575,0,0,1-.27295-.21826.84016.84016,0,0,1-.17041-.27246.93667.93667,0,0,1-.05859-.33887.75753.75753,0,0,1,.10449-.37354,1.15073,1.15073,0,0,1,.28711-.335,1.5088,1.5088,0,0,1,.438-.2417,1.60133,1.60133,0,0,1,.5581-.09375,1.90692,1.90692,0,0,1,.7417.14307,1.73534,1.73534,0,0,1,.62842.46533Z"/><path class="cls-3" d="M39.92852,64.53784h.80957v.35889a1.0164,1.0164,0,0,1,.18652-.19971,1.1138,1.1138,0,0,1,.21289-.13525.9778.9778,0,0,1,.22119-.07715,1.063,1.063,0,0,1,.21827-.02393,1.41441,1.41441,0,0,1,.57666.11915,1.32118,1.32118,0,0,1,.47216.35742,1.7293,1.7293,0,0,1,.32032.59863,2.73435,2.73435,0,0,1,.11718.84375,2.24658,2.24658,0,0,1-.1206.771,1.65167,1.65167,0,0,1-.32422.55517,1.32118,1.32118,0,0,1-.47022.335,1.45475,1.45475,0,0,1-.56445.11133,1.11127,1.11127,0,0,1-.43945-.09326,1.08986,1.08986,0,0,1-.36963-.25049v1.48291h-.83838Zm.84619,1.71778a2.77182,2.77182,0,0,0,.04736.55468,1.19018,1.19018,0,0,0,.13575.37354.55217.55217,0,0,0,.21435.21045.60313.60313,0,0,0,.28369.06592.66191.66191,0,0,0,.26367-.0586.67648.67648,0,0,0,.24707-.19043,1.0276,1.0276,0,0,0,.18311-.34619,1.68065,1.68065,0,0,0,.07178-.5293,1.58194,1.58194,0,0,0-.20362-.875.65774.65774,0,0,0-.584-.30761.56033.56033,0,0,0-.32959.08984.6053.6053,0,0,0-.20117.2417,1.16428,1.16428,0,0,0-.10108.35156A3.11621,3.11621,0,0,0,40.77471,66.25562Z"/></g><g id="varp"><rect class="cls-5" x="106.9336" y="141.67055" width="53.44442" height="53.52234"/><rect class="cls-5" x="108.31359" y="140.29055" width="53.44445" height="53.52235"/><rect class="cls-5" x="109.69359" y="138.91055" width="53.44446" height="53.52234"/><path class="cls-3" d="M128.85381,164.47193h1.01465a.20986.20986,0,0,1-.00928.06738c-.00586.01855-.0122.03613-.01806.05371-.00635.0166-.01221.03418-.01856.05273a.21435.21435,0,0,0-.00879.06446l.79444,2.24121.34033-.98926q.13183-.38379.2456-.77832.11354-.394.1792-.71191h.80225q-.0879.37646-.21777.78515-.13038.40869-.30616.81836l-.77978,1.89746h-.68848Z"/><path class="cls-3" d="M132.98125,164.96607a1.75723,1.75723,0,0,1,1.32569-.57129,1.97254,1.97254,0,0,1,.59668.084,1.13374,1.13374,0,0,1,.44726.26172,1.18053,1.18053,0,0,1,.28174.45117,1.908,1.908,0,0,1,.09912.64942v2.13183h-.80225v-.31543a1.47477,1.47477,0,0,1-.4707.29688,1.45483,1.45483,0,0,1-.54736.11035,1.555,1.555,0,0,1-.53272-.083,1.04976,1.04976,0,0,1-.37158-.22168.87515.87515,0,0,1-.21826-.32519,1.099,1.099,0,0,1-.07129-.39258,1.07558,1.07558,0,0,1,.11524-.4961,1.09677,1.09677,0,0,1,.33886-.38769,1.69915,1.69915,0,0,1,.55127-.25488,2.838,2.838,0,0,1,.75586-.0918h.44336a.9075.9075,0,0,0-.16113-.57813.60152.60152,0,0,0-.4834-.17968,1.24615,1.24615,0,0,0-.87158.46484Zm1.65528,1.47558a2.3456,2.3456,0,0,0-.542.03906.97615.97615,0,0,0-.33349.126.4446.4446,0,0,0-.16651.18457.51874.51874,0,0,0-.04541.207.34935.34935,0,0,0,.04.165.42475.42475,0,0,0,.10987.13379.56814.56814,0,0,0,.16308.0918.58152.58152,0,0,0,.19971.03418.74777.74777,0,0,0,.30908-.06055.99658.99658,0,0,0,.23975-.14453,1.09936,1.09936,0,0,0,.2749-.333.49815.49815,0,0,0,.04394-.16308,2.09343,2.09343,0,0,0,.01465-.27247Z"/><path class="cls-3" d="M136.83379,164.47193h.86426v.38085a1.52347,1.52347,0,0,1,.19043-.17968,1.45248,1.45248,0,0,1,.22705-.14649,1.2208,1.2208,0,0,1,.25439-.09668,1.07084,1.07084,0,0,1,.27295-.03515,1.70952,1.70952,0,0,1,.56592.09375,1.31,1.31,0,0,1,.478.291l-.39209.81641a1.57822,1.57822,0,0,0-.35156-.37012.58711.58711,0,0,0-.33692-.11719.79481.79481,0,0,0-.36084.083.96816.96816,0,0,0-.293.22266,1.0573,1.0573,0,0,0-.19775.33008,1.11762,1.11762,0,0,0-.07129.39746v1.83105h-.84961Z"/><path class="cls-3" d="M140.32354,164.47193h.80957v.35839a1.00007,1.00007,0,0,1,.18652-.19922,1.11672,1.11672,0,0,1,.21289-.13574,1.02908,1.02908,0,0,1,.22119-.07715,1.06275,1.06275,0,0,1,.21875-.02343,1.41227,1.41227,0,0,1,.57618.11914,1.31172,1.31172,0,0,1,.47265.35742,1.72042,1.72042,0,0,1,.32031.59863,2.73412,2.73412,0,0,1,.11719.84375,2.23149,2.23149,0,0,1-.12109.77051,1.646,1.646,0,0,1-.32422.55566,1.32737,1.32737,0,0,1-.46973.335,1.45475,1.45475,0,0,1-.56445.11133,1.11252,1.11252,0,0,1-.43994-.09375,1.08861,1.08861,0,0,1-.36963-.25v1.48242h-.83838Zm.84619,1.71777a2.77867,2.77867,0,0,0,.04736.55469,1.18723,1.18723,0,0,0,.13574.373.55025.55025,0,0,0,.21436.21094.60273.60273,0,0,0,.28369.06543.66611.66611,0,0,0,.26416-.05859.6807.6807,0,0,0,.24707-.19043,1.02949,1.02949,0,0,0,.18262-.34571,1.68151,1.68151,0,0,0,.07226-.52929,1.58167,1.58167,0,0,0-.2041-.875.65717.65717,0,0,0-.584-.30762.55689.55689,0,0,0-.32959.08984.60379.60379,0,0,0-.20117.24121,1.1727,1.1727,0,0,0-.10108.35157A3.12336,3.12336,0,0,0,141.16973,166.1897Z"/></g><g id="Varm"><rect class="cls-6" x="106.9336" y="112.00641" width="53.44443" height="24.42507"/><rect class="cls-6" x="108.31359" y="110.62641" width="53.44443" height="24.42509"/><rect class="cls-6" x="109.69359" y="109.24641" width="53.44445" height="24.42509"/><path class="cls-3" d="M129.4041,120.07251h1.01465a.21008.21008,0,0,1-.00927.06738c-.00586.01856-.01221.03614-.01807.05371-.00635.01661-.01221.03418-.01856.05274a.2143.2143,0,0,0-.00878.06445l.79443,2.24121.34033-.98925q.13184-.38379.24561-.77832.11352-.394.1792-.71192h.80224q-.08788.37647-.21777.78516-.13038.40869-.30615.81836l-.77979,1.89746h-.68848Z"/><path class="cls-3" d="M133.53155,120.56665a1.75719,1.75719,0,0,1,1.32568-.57129,1.97212,1.97212,0,0,1,.59668.084,1.13355,1.13355,0,0,1,.44726.26172,1.18041,1.18041,0,0,1,.28174.45117,1.908,1.908,0,0,1,.09912.64941v2.13184h-.80224v-.31543a1.47473,1.47473,0,0,1-.47071.29687,1.45459,1.45459,0,0,1-.54736.11035,1.55511,1.55511,0,0,1-.53271-.083,1.0498,1.0498,0,0,1-.37159-.22168.87519.87519,0,0,1-.21826-.3252,1.099,1.099,0,0,1-.07129-.39258,1.07556,1.07556,0,0,1,.11524-.49609,1.09683,1.09683,0,0,1,.33887-.3877,1.69941,1.69941,0,0,1,.55126-.25488,2.838,2.838,0,0,1,.75586-.0918h.44336a.90749.90749,0,0,0-.16113-.57812.6015.6015,0,0,0-.4834-.17969,1.24619,1.24619,0,0,0-.87158.46485Zm1.65527,1.47559a2.3449,2.3449,0,0,0-.542.03906.97609.97609,0,0,0-.3335.126.44445.44445,0,0,0-.1665.18457.51857.51857,0,0,0-.04541.207.34927.34927,0,0,0,.04.165.42458.42458,0,0,0,.10986.13379.56831.56831,0,0,0,.16309.09179.58146.58146,0,0,0,.1997.03418.74789.74789,0,0,0,.30908-.06054.99629.99629,0,0,0,.23975-.14454,1.0995,1.0995,0,0,0,.2749-.333.49844.49844,0,0,0,.04395-.16309,2.09493,2.09493,0,0,0,.01465-.27246Z"/><path class="cls-3" d="M137.38408,120.07251h.86426v.38086a1.5228,1.5228,0,0,1,.19043-.17969,1.45361,1.45361,0,0,1,.227-.14648,1.22011,1.22011,0,0,1,.2544-.09668,1.07029,1.07029,0,0,1,.273-.03516,1.70946,1.70946,0,0,1,.56591.09375,1.31,1.31,0,0,1,.478.291l-.39209.8164a1.57814,1.57814,0,0,0-.35156-.37011.587.587,0,0,0-.33691-.11719.79462.79462,0,0,0-.36084.083.968.968,0,0,0-.293.22265,1.05736,1.05736,0,0,0-.19776.33008,1.11766,1.11766,0,0,0-.07129.39746v1.83106h-.84961Z"/><path class="cls-3" d="M140.70928,123.57349v-3.541h.71777v.21973a1.08456,1.08456,0,0,1,.33155-.25293.73973.73973,0,0,1,.3125-.07715.589.589,0,0,1,.14843.02051.4921.4921,0,0,1,.1543.06933.73305.73305,0,0,1,.14453.12989.86188.86188,0,0,1,.125.19824.86232.86232,0,0,1,.32227-.31152.79288.79288,0,0,1,.38769-.10645.74126.74126,0,0,1,.335.06738.52758.52758,0,0,1,.21485.20215.98778.98778,0,0,1,.11523.333,2.67854,2.67854,0,0,1,.03418.46v2.58887h-.78027V121.1272a1.26619,1.26619,0,0,0-.04883-.41992.17691.17691,0,0,0-.17383-.126q-.28564,0-.28613.68848v2.30371H141.991v-2.40625a1.9115,1.9115,0,0,0-.01953-.30176.67626.67626,0,0,0-.05176-.17773.18858.18858,0,0,0-.06982-.084.15645.15645,0,0,0-.07862-.02246.26227.26227,0,0,0-.12646.03125.24809.24809,0,0,0-.09717.10645.67246.67246,0,0,0-.062.20312,1.98618,1.98618,0,0,0-.022.32617v2.3252Z"/></g><g id="Obsm"><rect class="cls-7" x="71.75173" y="36.10371" width="29.00462" height="64.88391"/><rect class="cls-7" x="73.13173" y="34.72371" width="29.00462" height="64.88391"/><rect class="cls-7" x="74.51173" y="33.37606" width="29.00464" height="64.88394"/><path class="cls-3" d="M83.41729,64.69653a1.62987,1.62987,0,0,1,.6372.125,1.49755,1.49755,0,0,1,.51807.36036,1.69453,1.69453,0,0,1,.34815.58105,2.25692,2.25692,0,0,1,.12646.7793,2.28261,2.28261,0,0,1-.125.78027,1.70356,1.70356,0,0,1-.34228.582,1.466,1.466,0,0,1-.51807.36524,1.66805,1.66805,0,0,1-.65186.126,1.60992,1.60992,0,0,1-1.19189-.5166,1.77086,1.77086,0,0,1-.35889-.582,2.03237,2.03237,0,0,1-.13037-.74023,2.00951,2.00951,0,0,1,.13379-.73926,1.86236,1.86236,0,0,1,.36426-.58985,1.69281,1.69281,0,0,1,.53662-.38964A1.54788,1.54788,0,0,1,83.41729,64.69653Zm.79492,1.86036a1.91815,1.91815,0,0,0-.06055-.50489,1.15851,1.15851,0,0,0-.17041-.37207.76081.76081,0,0,0-.26025-.23047.71405.71405,0,0,0-.65332,0,.7216.7216,0,0,0-.25293.22852,1.18654,1.18654,0,0,0-.16309.36523,1.83909,1.83909,0,0,0-.05859.48438,1.92814,1.92814,0,0,0,.05713.48926,1.16006,1.16006,0,0,0,.1626.37207.75554.75554,0,0,0,.2583.2373.72132.72132,0,0,0,.92285-.21191A1.43231,1.43231,0,0,0,84.21221,66.55689Z"/><path class="cls-3" d="M85.63653,63.21411h.94482a.13808.13808,0,0,1-.01465.06934.30124.30124,0,0,1-.03125.0459c-.01074.01367-.02246.02734-.03467.042a.10576.10576,0,0,0-.022.05859v1.64453a1.14041,1.14041,0,0,1,.377-.28027,1.03715,1.03715,0,0,1,.43262-.09766,1.46881,1.46881,0,0,1,.56348.11036,1.31465,1.31465,0,0,1,.4707.3291,1.58933,1.58933,0,0,1,.32227.54785,2.24314,2.24314,0,0,1,.11914.76758,2.52658,2.52658,0,0,1-.12989.84765,1.84582,1.84582,0,0,1-.34277.60547,1.40879,1.40879,0,0,1-.4834.36328,1.34345,1.34345,0,0,1-.54883.12012,1.15811,1.15811,0,0,1-.50585-.11523,1.1735,1.1735,0,0,1-.417-.335l-.11377.33691h-.58593Zm.835,3.26953a2.78232,2.78232,0,0,0,.04736.55567,1.18714,1.18714,0,0,0,.13574.373.55025.55025,0,0,0,.21436.21094.60273.60273,0,0,0,.28369.06543.65338.65338,0,0,0,.25977-.05859.69472.69472,0,0,0,.249-.19043,1.01471,1.01471,0,0,0,.18506-.3457,1.6828,1.6828,0,0,0,.07177-.5293,2.01835,2.01835,0,0,0-.07177-.57324.97332.97332,0,0,0-.20655-.38672.74652.74652,0,0,0-.21826-.16992.65339.65339,0,0,0-.291-.05664.57157.57157,0,0,0-.3335.08984.59141.59141,0,0,0-.19922.24316,1.23983,1.23983,0,0,0-.09912.35352A3.107,3.107,0,0,0,86.47149,66.48364Z"/><path class="cls-3" d="M91.93877,65.91235a.06119.06119,0,0,1-.04541-.01562.1176.1176,0,0,1-.02588-.041.51537.51537,0,0,1-.0166-.05078.25842.25842,0,0,0-.01806-.0498.97226.97226,0,0,0-.16456-.15528A1.166,1.166,0,0,0,91.45,65.47a1.329,1.329,0,0,0-.25244-.08789,1.08451,1.08451,0,0,0-.26562-.0332,1.38245,1.38245,0,0,0-.21582.0166.67855.67855,0,0,0-.18164.05273.33694.33694,0,0,0-.12452.09571.2264.2264,0,0,0-.04541.14258.25166.25166,0,0,0,.04932.15918.45107.45107,0,0,0,.14795.11718,1.473,1.473,0,0,0,.249.10059q.15015.04834.35547.10254a2.24173,2.24173,0,0,1,.9209.45019.84045.84045,0,0,1,.29492.62989.99562.99562,0,0,1-.10644.45117,1.1742,1.1742,0,0,1-.29981.375,1.45885,1.45885,0,0,1-.4707.25781,1.88814,1.88814,0,0,1-.61719.0957,2.31354,2.31354,0,0,1-.81836-.14062,2.111,2.111,0,0,1-.70508-.45313l.43555-.78711a.08727.08727,0,0,1,.06641.05371c.01465.03028.03271.07227.05468.126a.74928.74928,0,0,0,.16846.18457,1.48976,1.48976,0,0,0,.24561.16309,1.45838,1.45838,0,0,0,.28369.11719.99673.99673,0,0,0,.28369.04394,1.01622,1.01622,0,0,0,.46484-.08594.27593.27593,0,0,0,.165-.25781.31347.31347,0,0,0-.03662-.1543.38.38,0,0,0-.11523-.12207.933.933,0,0,0-.207-.10644c-.08545-.03321-.19043-.06836-.315-.10449-.06836-.01954-.13623-.03907-.20312-.0586-.06738-.01953-.13525-.043-.20313-.06933a2.24214,2.24214,0,0,1-.36621-.17383,1.231,1.231,0,0,1-.27295-.21875.83535.83535,0,0,1-.17041-.27246.93479.93479,0,0,1-.05859-.33887.75579.75579,0,0,1,.10449-.37305,1.14434,1.14434,0,0,1,.28711-.335,1.50945,1.50945,0,0,1,.438-.24219,1.60135,1.60135,0,0,1,.55811-.09375,1.89823,1.89823,0,0,1,.74169.14356,1.72817,1.72817,0,0,1,.62842.46484Z"/><path class="cls-3" d="M93.00469,68.27466v-3.541h.71777v.21973a1.10039,1.10039,0,0,1,.33155-.25293.75674.75674,0,0,1,.313-.07715.592.592,0,0,1,.14844.02051.53827.53827,0,0,1,.15381.06934.74992.74992,0,0,1,.14453.12988.88294.88294,0,0,1,.12451.19824.87727.87727,0,0,1,.32227-.31152.80825.80825,0,0,1,.38818-.10645.73934.73934,0,0,1,.335.06836.521.521,0,0,1,.21436.20117.95684.95684,0,0,1,.11523.333,2.69078,2.69078,0,0,1,.03467.46v2.58887h-.77978V65.82837a1.26549,1.26549,0,0,0-.04932-.41894.1774.1774,0,0,0-.17383-.127c-.19043,0-.28613.23047-.28613.68848v2.30371h-.77246V65.86841a1.85449,1.85449,0,0,0-.02-.30176.69046.69046,0,0,0-.05127-.17773.1943.1943,0,0,0-.06982-.084.15645.15645,0,0,0-.07862-.02246.23649.23649,0,0,0-.22363.1377.68161.68161,0,0,0-.062.20312,1.99449,1.99449,0,0,0-.022.32617v2.3252Z"/></g><g id="Layers"><rect class="cls-8" x="106.9336" y="36.15222" width="53.44445" height="64.88391"/><rect class="cls-8" x="108.31359" y="34.77223" width="53.44445" height="64.88391"/><rect class="cls-9" x="109.69359" y="33.45552" width="53.44446" height="64.88391"/><path class="cls-3" d="M137.52715,63.71362h.87109l-1.16406,2.28125,1.31446,2.39161h-.94483l-.85693-1.604-.83106,1.604h-.916l1.25976-2.38379-1.24511-2.28907h.916l.80908,1.53077Z"/><path class="cls-10" d="M106.85576,102.31275h1.7544v4.40918h.959v.65234H106.8084v-.65234h.959v-3.75684h-.91163Z"/><path class="cls-10" d="M110.62041,104.36743a1.75723,1.75723,0,0,1,1.32569-.57129,1.97221,1.97221,0,0,1,.59668.084,1.13362,1.13362,0,0,1,.44726.26172,1.18053,1.18053,0,0,1,.28174.45117,1.908,1.908,0,0,1,.09912.64941v2.13184h-.80224v-.31543a1.47473,1.47473,0,0,1-.47071.29687,1.45465,1.45465,0,0,1-.54736.11036,1.555,1.555,0,0,1-.53272-.083,1.04976,1.04976,0,0,1-.37158-.22168.87519.87519,0,0,1-.21826-.3252,1.099,1.099,0,0,1-.07129-.39258,1.07556,1.07556,0,0,1,.11524-.49609,1.09668,1.09668,0,0,1,.33886-.38769,1.69937,1.69937,0,0,1,.55127-.25489,2.8384,2.8384,0,0,1,.75586-.09179h.44336a.9075.9075,0,0,0-.16113-.57813.6015.6015,0,0,0-.4834-.17969,1.24619,1.24619,0,0,0-.87158.46485Zm1.65528,1.47559a2.3456,2.3456,0,0,0-.542.03906.97594.97594,0,0,0-.33349.126.44454.44454,0,0,0-.16651.18457.51874.51874,0,0,0-.04541.207.34938.34938,0,0,0,.04.165.42475.42475,0,0,0,.10987.13379.56812.56812,0,0,0,.16308.09179.58128.58128,0,0,0,.19971.03418.74792.74792,0,0,0,.30908-.06054.99658.99658,0,0,0,.23975-.14453,1.09968,1.09968,0,0,0,.2749-.333.49836.49836,0,0,0,.04395-.16309,2.09516,2.09516,0,0,0,.01464-.27246Z"/><path class="cls-10" d="M115.96709,107.75513a1.97861,1.97861,0,0,1-.21972.43164,1.29218,1.29218,0,0,1-.271.293.99738.99738,0,0,1-.313.167,1.14187,1.14187,0,0,1-.34619.05273,1.30181,1.30181,0,0,1-.92676-.3955l.418-.72071a.16956.16956,0,0,1,.062.04688.2349.2349,0,0,1,.0293.05859c.00732.02246.01465.04492.022.07031a.39981.39981,0,0,0,.03662.08008.3521.3521,0,0,0,.12647.13574.36743.36743,0,0,0,.18847.04395.36333.36333,0,0,0,.15381-.0332.43043.43043,0,0,0,.14453-.11328,1.07831,1.07831,0,0,0,.14112-.21289,2.47367,2.47367,0,0,0,.13916-.32911l-1.31494-3.457h1.02929a.26831.26831,0,0,1-.00732.06739.49437.49437,0,0,1-.01807.05371.30593.30593,0,0,0-.01855.05273.25465.25465,0,0,0-.00733.06445l.77979,2.17481.33691-.92285c.04639-.124.09131-.25293.13379-.38477.043-.13183.08252-.26172.11914-.3916.03662-.12891.06934-.25488.09864-.375.02929-.12109.05517-.23438.07714-.33887h.80176q-.09154.37647-.22656.78125c-.09082.27051-.19043.544-.30078.82227Z"/><path class="cls-10" d="M119.49,103.79614a1.53382,1.53382,0,0,1,.582.11036,1.34611,1.34611,0,0,1,.47461.32324,1.53685,1.53685,0,0,1,.32031.53515,2.15464,2.15464,0,0,1,.11719.74121c0,.06153-.00244.1211-.00732.17969s-.00977.11621-.01465.17188h-2.29639a1.35064,1.35064,0,0,0,.11719.43457,1.02993,1.02993,0,0,0,.21289.2998.80592.80592,0,0,0,.27637.17578.87.87,0,0,0,.30957.05664,1.09734,1.09734,0,0,0,.86035-.4248l.46484.46582a1.66393,1.66393,0,0,1-1.32519.62988,1.90787,1.90787,0,0,1-.69776-.125,1.56936,1.56936,0,0,1-.55322-.3584,1.65854,1.65854,0,0,1-.36426-.57324,2.10518,2.10518,0,0,1-.13183-.76758,2.31217,2.31217,0,0,1,.12451-.7832,1.70873,1.70873,0,0,1,.34619-.58984,1.51767,1.51767,0,0,1,.52344-.37207A1.65178,1.65178,0,0,1,119.49,103.79614Zm.65528,1.44629a.97428.97428,0,0,0-.04932-.3125.82388.82388,0,0,0-.13916-.26074.65847.65847,0,0,0-.21973-.17676.63356.63356,0,0,0-.291-.0664.67634.67634,0,0,0-.51075.22363.83892.83892,0,0,0-.15771.25586,1.33032,1.33032,0,0,0-.08252.33691Z"/><path class="cls-10" d="M121.973,103.87329h.86426v.38086a1.52353,1.52353,0,0,1,.19043-.17969,1.45314,1.45314,0,0,1,.227-.14648,1.22024,1.22024,0,0,1,.25439-.09668,1.07041,1.07041,0,0,1,.273-.03516,1.70952,1.70952,0,0,1,.56592.09375,1.31,1.31,0,0,1,.478.291l-.39209.81641a1.578,1.578,0,0,0-.35156-.37012.587.587,0,0,0-.33692-.11719.79468.79468,0,0,0-.36084.083.96816.96816,0,0,0-.293.22266,1.05736,1.05736,0,0,0-.19775.33007,1.1177,1.1177,0,0,0-.07129.39746v1.83106H121.973Z"/><path class="cls-10" d="M127.98223,105.012a.06164.06164,0,0,1-.04541-.0166.11341.11341,0,0,1-.02588-.04.53826.53826,0,0,1-.0166-.05175.273.273,0,0,0-.01807-.04883,1.0154,1.0154,0,0,0-.16455-.15625,1.22074,1.22074,0,0,0-.21826-.12989,1.48089,1.48089,0,0,0-.25244-.08789,1.1324,1.1324,0,0,0-.26563-.03222,1.38546,1.38546,0,0,0-.21582.01562.71623.71623,0,0,0-.18164.05371.335.335,0,0,0-.12451.09473.22729.22729,0,0,0-.04541.14355.25156.25156,0,0,0,.04932.15918.47764.47764,0,0,0,.14795.11719,1.55928,1.55928,0,0,0,.249.10059q.15015.04688.35547.10254a2.24161,2.24161,0,0,1,.9209.45019.84049.84049,0,0,1,.29492.62989.99162.99162,0,0,1-.10645.45019,1.18849,1.18849,0,0,1-.2998.376,1.47762,1.47762,0,0,1-.4707.25781,1.88814,1.88814,0,0,1-.61719.0957,2.31371,2.31371,0,0,1-.81836-.1416,2.09252,2.09252,0,0,1-.70508-.45215l.43555-.78711a.088.088,0,0,1,.0664.05274c.01465.03027.03272.07324.05469.12695a.74909.74909,0,0,0,.16846.18457,1.5544,1.5544,0,0,0,.2456.16309,1.45781,1.45781,0,0,0,.2837.11718.99635.99635,0,0,0,.28369.044,1.02933,1.02933,0,0,0,.46484-.08594.27631.27631,0,0,0,.165-.25879.30975.30975,0,0,0-.03662-.15332.39247.39247,0,0,0-.11524-.123.93212.93212,0,0,0-.207-.10645c-.08545-.03223-.19043-.06738-.31494-.10351-.06836-.01954-.13623-.03907-.20312-.0586a2.13333,2.13333,0,0,1-.20313-.07031,2.16349,2.16349,0,0,1-.36621-.17383,1.20077,1.20077,0,0,1-.27295-.21777.84537.84537,0,0,1-.17041-.27246.93855.93855,0,0,1-.05859-.33887.75922.75922,0,0,1,.10449-.374,1.157,1.157,0,0,1,.28711-.335,1.50793,1.50793,0,0,1,.438-.24121,1.60133,1.60133,0,0,1,.5581-.09375,1.91565,1.91565,0,0,1,.7417.14258,1.74257,1.74257,0,0,1,.62842.46582Z"/></g><rect class="cls-11" x="109.69359" y="0.25" width="53.44445" height="24.42509"/><path class="cls-3" d="M131.2791,11.27564h1.01465a.2113.2113,0,0,1-.00927.06787l-.01807.05322-.01856.05273a.21437.21437,0,0,0-.00878.06446l.79443,2.24121.34033-.98926q.13184-.38379.24561-.77783.11352-.39405.1792-.7124h.80224q-.08788.37719-.21777.78564-.13038.408-.30615.81836l-.77979,1.897h-.68848Z"/><path class="cls-3" d="M135.40655,11.76978a1.75719,1.75719,0,0,1,1.32568-.57129,1.95672,1.95672,0,0,1,.59668.08447,1.12788,1.12788,0,0,1,.44726.26172,1.17842,1.17842,0,0,1,.28174.45068,1.909,1.909,0,0,1,.09912.64991v2.13134h-.80224v-.31494a1.48213,1.48213,0,0,1-.47071.29639,1.45479,1.45479,0,0,1-.54736.11035,1.55542,1.55542,0,0,1-.53271-.08252,1.057,1.057,0,0,1-.37159-.22168.87693.87693,0,0,1-.21826-.32568,1.0963,1.0963,0,0,1-.07129-.39209,1.07416,1.07416,0,0,1,.11524-.4961,1.09823,1.09823,0,0,1,.33887-.38818,1.70923,1.70923,0,0,1,.55126-.25488,2.83913,2.83913,0,0,1,.75586-.09131h.44336a.90907.90907,0,0,0-.16113-.57862.60313.60313,0,0,0-.4834-.17968,1.24511,1.24511,0,0,0-.87158.46533Zm1.65527,1.47607a2.376,2.376,0,0,0-.542.03858.98629.98629,0,0,0-.3335.126.44842.44842,0,0,0-.1665.18506.5168.5168,0,0,0-.04541.207.3473.3473,0,0,0,.04.16455.41923.41923,0,0,0,.10986.13379.57477.57477,0,0,0,.36279.12647.75568.75568,0,0,0,.30908-.06055,1.01253,1.01253,0,0,0,.23975-.14453,1.05931,1.05931,0,0,0,.17236-.17578,1.04653,1.04653,0,0,0,.10254-.15772.49854.49854,0,0,0,.04395-.1626,2.09783,2.09783,0,0,0,.01465-.27294Z"/><path class="cls-3" d="M139.25908,11.27564h.86426v.38086a1.5228,1.5228,0,0,1,.19043-.17969,1.45367,1.45367,0,0,1,.227-.14649,1.24869,1.24869,0,0,1,.2544-.09668,1.07073,1.07073,0,0,1,.273-.03515,1.70946,1.70946,0,0,1,.56591.09375,1.3167,1.3167,0,0,1,.478.291l-.39209.81641a1.57468,1.57468,0,0,0-.35156-.36963.58708.58708,0,0,0-.33691-.11719.80075.80075,0,0,0-.36084.08252.96964.96964,0,0,0-.293.22315,1.05484,1.05484,0,0,0-.19776.32959,1.11958,1.11958,0,0,0-.07129.39746v1.831h-.84961Z"/><g id="Uns"><path class="cls-12" d="M24.58916,159.27075q0-.31786.02-.84668c.01319-.35254.02637-.7207.04-1.10644.0127-.38574.02637-.76367.03955-1.13672.01319-.37109.02-.69043.02-.95606a7.28108,7.28108,0,0,0-.15967-1.6748,2.78178,2.78178,0,0,0-.45849-1.04687,1.608,1.608,0,0,0-.74707-.54786,2.99014,2.99014,0,0,0-1.00684-.15918H20.62237v-3.62793h1.67431a2.26225,2.26225,0,0,0,1.874-.76757,4.01,4.01,0,0,0,.61767-2.502q0-.23877-.00976-.708c-.00684-.31153-.01661-.6377-.02979-.97657q-.02051-.50829-.03027-.94726-.01026-.438-.00977-.59766a7.23611,7.23611,0,0,1,1.95362-5.50195q1.95336-1.853,5.84082-1.85352h3.30908v3.6875H31.80547a2.29678,2.29678,0,0,0-1.94385.81738,3.99329,3.99329,0,0,0-.62793,2.45215q0,.2798.01026.72754.00952.44825.02978.92676.01978.479.02979.89746c.00683.27832.01025.48535.01025.61719a6.66862,6.66862,0,0,1-.76758,3.22949,6.21961,6.21961,0,0,1-2.123,2.293,5.262,5.262,0,0,1,1.12646.98633,6.5702,6.5702,0,0,1,.88672,1.33594,7.32034,7.32034,0,0,1,.58838,1.63476,8.1971,8.1971,0,0,1,.209,1.88379c0,.14648-.00341.40137-.00976.7666q-.01026.54932-.02979,1.11719-.02051.56689-.03027,1.03613c-.00684.3125-.00977.49512-.00977.54785a4.30526,4.30526,0,0,0,.877,3.02051,3.84045,3.84045,0,0,0,2.89062.92676h2.85059v3.6084H33.47979q-.41821,0-1.24561-.04981-.82764-.0498-1.77441-.19922a14.75574,14.75574,0,0,1-1.86377-.41894,4.604,4.604,0,0,1-1.51514-.72754,5.73374,5.73374,0,0,1-1.87353-2.542A9.90217,9.90217,0,0,1,24.58916,159.27075Z"/><path class="cls-12" d="M39.4002,158.1145a2.823,2.823,0,0,1,.20947-1.08593,2.514,2.514,0,0,1,.59815-.877,2.9987,2.9987,0,0,1,.90673-.58789,2.93511,2.93511,0,0,1,1.15625-.21972,3.03122,3.03122,0,0,1,1.15625.21972,2.82393,2.82393,0,0,1,.917.58789,2.77809,2.77809,0,0,1,.59814,3.04981,2.82037,2.82037,0,0,1-.59814.88672,2.74,2.74,0,0,1-.917.59863,3.04921,3.04921,0,0,1-1.15625.21875,2.95229,2.95229,0,0,1-1.15625-.21875,2.90362,2.90362,0,0,1-.90673-.59863,2.60836,2.60836,0,0,1-.59815-.88672A2.82435,2.82435,0,0,1,39.4002,158.1145Zm6.77783,0a2.83179,2.83179,0,0,1,.209-1.08593,2.514,2.514,0,0,1,.59815-.877,3.00716,3.00716,0,0,1,.90723-.58789,2.93161,2.93161,0,0,1,1.15625-.21972,3.027,3.027,0,0,1,1.15576.21972,2.82389,2.82389,0,0,1,.917.58789,2.77809,2.77809,0,0,1,.59814,3.04981,2.82037,2.82037,0,0,1-.59814.88672,2.74,2.74,0,0,1-.917.59863,3.04493,3.04493,0,0,1-1.15576.21875,2.94877,2.94877,0,0,1-1.15625-.21875,2.91157,2.91157,0,0,1-.90723-.59863,2.60836,2.60836,0,0,1-.59815-.88672A2.8332,2.8332,0,0,1,46.178,158.1145Zm6.73779,0a2.83179,2.83179,0,0,1,.209-1.08593,2.57758,2.57758,0,0,1,.58838-.877,2.84483,2.84483,0,0,1,.90673-.58789,2.95539,2.95539,0,0,1,1.14649-.21972,3.03126,3.03126,0,0,1,1.15625.21972,2.95086,2.95086,0,0,1,.92676.58789,2.6349,2.6349,0,0,1,.60791.877,2.75832,2.75832,0,0,1-.60791,3.05957,2.85963,2.85963,0,0,1-.92676.59863,3.04925,3.04925,0,0,1-1.15625.21875,2.97283,2.97283,0,0,1-1.14649-.21875,2.75929,2.75929,0,0,1-.90673-.59863,2.67679,2.67679,0,0,1-.58838-.88672A2.8332,2.8332,0,0,1,52.91582,158.1145Z"/><path class="cls-12" d="M74.26494,159.27075a9.91264,9.91264,0,0,1-.61767,3.61817,5.73463,5.73463,0,0,1-1.874,2.542,4.6011,4.6011,0,0,1-1.51464.72754,14.78235,14.78235,0,0,1-1.86426.41894q-.947.14941-1.77393.19922-.82763.04981-1.24609.04981h-2.292V163.218h2.85058a3.84,3.84,0,0,0,2.89014-.92676,4.30521,4.30521,0,0,0,.87744-3.02051c0-.05273-.00391-.23535-.01025-.54785q-.01026-.46875-.02979-1.03613-.0205-.56836-.02978-1.11719c-.00684-.36523-.01026-.62012-.01026-.7666a8.16977,8.16977,0,0,1,.20948-1.88379,7.63525,7.63525,0,0,1,.57812-1.63476,6.034,6.034,0,0,1,.88721-1.33594,5.454,5.454,0,0,1,1.13623-.98633,6.21159,6.21159,0,0,1-2.123-2.293,6.66312,6.66312,0,0,1-.76758-3.22949c0-.13184.00293-.33887.00977-.61719q.01024-.419.03027-.89746.019-.479.02979-.92676.00951-.44825.00976-.72754a3.98994,3.98994,0,0,0-.62793-2.45215,2.29516,2.29516,0,0,0-1.94336-.81738H63.04229v-3.6875h3.30908q3.887,0,5.84082,1.85352a7.238,7.238,0,0,1,1.95361,5.50195q0,.15968-.01025.59766-.01026.43945-.02979.94726c-.01367.33887-.02343.665-.02978.97657q-.01026.46875-.01025.708a4.00652,4.00652,0,0,0,.61816,2.502,2.26121,2.26121,0,0,0,1.87353.76757h1.67481v3.62793H76.51787a2.963,2.963,0,0,0-1.0166.15918,1.61537,1.61537,0,0,0-.73779.54786,2.78952,2.78952,0,0,0-.4585,1.04687,7.28493,7.28493,0,0,0-.15918,1.6748c0,.26563.00635.585.01953.95606.01319.373.02686.751.04,1.13672s.02637.7539.04,1.10644Q74.26446,158.95288,74.26494,159.27075Z"/><path class="cls-13" d="M46.89336,134.05884l.0083,3.08008a1.07024,1.07024,0,0,0,.02149.20117q.01977.10547.0498.21973l-.813.00195a.1628.1628,0,0,1-.05908-.09863.54772.54772,0,0,1-.01465-.11719l-.00049-.11328a.94536.94536,0,0,1-.186.20215,1.288,1.288,0,0,1-.23779.15039,1.33707,1.33707,0,0,1-.26123.0957,1.05915,1.05915,0,0,1-.2583.03418,1.40279,1.40279,0,0,1-.49122-.08008.86672.86672,0,0,1-.36669-.25488,1.17934,1.17934,0,0,1-.23047-.45313,2.51078,2.51078,0,0,1-.08057-.66992l-.00586-2.19043.82764-.002.00586,2.18945a.99945.99945,0,0,0,.13916.58789.42983.42983,0,0,0,.36474.1836.68125.68125,0,0,0,.29444-.06446.71848.71848,0,0,0,.23779-.17871.84461.84461,0,0,0,.15869-.27344,1.00608,1.00608,0,0,0,.05762-.3496l-.00586-2.09864Z"/><path class="cls-13" d="M47.79668,137.55689l-.00976-3.501.84619-.002.001.35839a1.44724,1.44724,0,0,1,.42383-.31738,1.10427,1.10427,0,0,1,.49024-.12109,1.36743,1.36743,0,0,1,.48.08008.88354.88354,0,0,1,.36865.25293,1.1782,1.1782,0,0,1,.23584.45019,2.35643,2.35643,0,0,1,.08447.668l.00586,2.124-.82763.002-.00586-2.11621a1.47975,1.47975,0,0,0-.0376-.34864.72162.72162,0,0,0-.10352-.23925.41475.41475,0,0,0-.15771-.13672.45765.45765,0,0,0-.20557-.043.7069.7069,0,0,0-.29394.0625.69985.69985,0,0,0-.2378.17676.85516.85516,0,0,0-.15869.27343,1.018,1.018,0,0,0-.05762.34961l.00586,2.02539Z"/><path class="cls-13" d="M54.01543,135.177a.06119.06119,0,0,1-.04541-.01562.12305.12305,0,0,1-.02588-.04.53849.53849,0,0,1-.0166-.05176.27425.27425,0,0,0-.01855-.04883.95758.95758,0,0,0-.165-.15527,1.16635,1.16635,0,0,0-.21826-.12988,1.40357,1.40357,0,0,0-.25293-.08692,1.1324,1.1324,0,0,0-.26563-.03222,1.38254,1.38254,0,0,0-.21582.0166.7157.7157,0,0,0-.18164.05371.339.339,0,0,0-.124.0957.22409.22409,0,0,0-.04492.14356.249.249,0,0,0,.0498.15918.46265.46265,0,0,0,.148.11621,1.586,1.586,0,0,0,.24951.10058c.1001.03125.21875.06446.356.10157a2.22561,2.22561,0,0,1,.92187.44726.84089.84089,0,0,1,.29688.62891.98842.98842,0,0,1-.10547.45117,1.18346,1.18346,0,0,1-.29834.376,1.4596,1.4596,0,0,1-.47022.25976,1.88465,1.88465,0,0,1-.61669.09668,2.316,2.316,0,0,1-.81885-.13867,2.10663,2.10663,0,0,1-.70655-.4502l.4336-.78906a.08722.08722,0,0,1,.0664.05371c.01465.03028.03272.07227.05518.126a.74224.74224,0,0,0,.169.18457,1.53352,1.53352,0,0,0,.24609.16211,1.45508,1.45508,0,0,0,.28369.11621.96614.96614,0,0,0,.28418.043,1.01266,1.01266,0,0,0,.46436-.08692.2768.2768,0,0,0,.16455-.25878.31519.31519,0,0,0-.03711-.15332.40012.40012,0,0,0-.11573-.123.97049.97049,0,0,0-.20751-.10547c-.08545-.03223-.19043-.06738-.315-.10352-.06836-.01855-.13623-.03808-.20361-.05761s-.13525-.043-.20312-.06934a2.16868,2.16868,0,0,1-.3667-.17285,1.20388,1.20388,0,0,1-.27344-.21777.83353.83353,0,0,1-.17139-.27149.94521.94521,0,0,1-.05957-.33887.76563.76563,0,0,1,.10352-.374,1.16939,1.16939,0,0,1,.28613-.33594,1.52974,1.52974,0,0,1,.4375-.24218,1.59669,1.59669,0,0,1,.55762-.09571,1.91722,1.91722,0,0,1,.74219.14063,1.74083,1.74083,0,0,1,.62988.46386Z"/></g><g class="cls-14"><line class="cls-15" x1="109.41189" y1="28.93777" x2="163.41973" y2="28.93777"/></g><g class="cls-16"><rect class="cls-3" x="125.07284" y="25.81984" width="23.28915" height="5.3524"/><path class="cls-17" d="M126.68682,27.97193h.60937a.12028.12028,0,0,1-.00537.04l-.01074.03223-.01123.03223a.12555.12555,0,0,0-.00537.03808l.47754,1.34668.20459-.59375c.05273-.15429.10205-.30957.14746-.46777.04541-.15723.08154-.30078.10791-.42773h.48193q-.05272.227-.13086.47167-.07836.2461-.18408.49219l-.46875,1.13965h-.41357Z"/><path class="cls-17" d="M129.1668,28.2688a1.05834,1.05834,0,0,1,.79687-.34375,1.19185,1.19185,0,0,1,.3584.05078.68518.68518,0,0,1,.26856.15723.70288.70288,0,0,1,.16943.27148,1.13715,1.13715,0,0,1,.05957.39063v1.28027h-.48193V29.886a.92418.92418,0,0,1-.61182.24511.92929.92929,0,0,1-.32031-.0498.63806.63806,0,0,1-.22315-.13281.53079.53079,0,0,1-.13134-.19629.661.661,0,0,1-.04248-.23535.6328.6328,0,0,1,.273-.53125,1.0287,1.0287,0,0,1,.331-.15332,1.67854,1.67854,0,0,1,.45459-.05469h.26611a.545.545,0,0,0-.09668-.34766.36227.36227,0,0,0-.29052-.1084.751.751,0,0,0-.52393.2793Zm.99463.88672a1.42475,1.42475,0,0,0-.32569.02344.59122.59122,0,0,0-.20019.07617.26861.26861,0,0,0-.1001.11035.30776.30776,0,0,0-.02734.125.2074.2074,0,0,0,.02392.09863.24328.24328,0,0,0,.06641.08008.32423.32423,0,0,0,.09766.05566.3485.3485,0,0,0,.12011.02051.45506.45506,0,0,0,.186-.03613.61364.61364,0,0,0,.144-.08691.67634.67634,0,0,0,.10352-.10547.65353.65353,0,0,0,.06152-.09473.30642.30642,0,0,0,.02637-.09766,1.27449,1.27449,0,0,0,.00879-.16406Z"/><path class="cls-17" d="M131.48223,27.97193h.51953v.22851a.85705.85705,0,0,1,.11426-.10742.7938.7938,0,0,1,.13672-.08789.697.697,0,0,1,.15283-.0586.66351.66351,0,0,1,.16406-.02148,1.03832,1.03832,0,0,1,.33985.05664.79042.79042,0,0,1,.28759.17481l-.23584.49121a.93565.93565,0,0,0-.21093-.22266.35487.35487,0,0,0-.20264-.07031.481.481,0,0,0-.2168.0498.56479.56479,0,0,0-.17627.13379.64149.64149,0,0,0-.11865.19824.66267.66267,0,0,0-.043.23828v1.10059h-.51074Z"/><path class="cls-17" d="M133.46514,30.1106h1.99414v.4209h-1.99414Z"/><path class="cls-17" d="M135.85967,30.07544V27.97193h.50879v.21582a.85423.85423,0,0,1,.25488-.19043.66154.66154,0,0,1,.29492-.07227.82054.82054,0,0,1,.28858.04883.53616.53616,0,0,1,.22119.15332.70892.70892,0,0,1,.14063.27051,1.40683,1.40683,0,0,1,.0498.40136v1.27637h-.49756V28.804a.86849.86849,0,0,0-.022-.209.42148.42148,0,0,0-.06152-.14453.2504.2504,0,0,0-.09473-.083.28071.28071,0,0,0-.12305-.02636.41568.41568,0,0,0-.17724.03808.40575.40575,0,0,0-.14307.10547.49269.49269,0,0,0-.0957.16406.60331.60331,0,0,0-.03516.21v1.2168Z"/><path class="cls-17" d="M138.18145,28.2688a1.05834,1.05834,0,0,1,.79687-.34375,1.19189,1.19189,0,0,1,.3584.05078.68525.68525,0,0,1,.26856.15723.70288.70288,0,0,1,.16943.27148,1.13715,1.13715,0,0,1,.05957.39063v1.28027h-.48193V29.886a.92418.92418,0,0,1-.61182.24511.92929.92929,0,0,1-.32031-.0498.63806.63806,0,0,1-.22315-.13281.53067.53067,0,0,1-.13134-.19629.661.661,0,0,1-.04249-.23535.63286.63286,0,0,1,.273-.53125,1.02886,1.02886,0,0,1,.33106-.15332,1.67849,1.67849,0,0,1,.45459-.05469h.26611a.545.545,0,0,0-.09668-.34766.36228.36228,0,0,0-.29053-.1084.75093.75093,0,0,0-.52392.2793Zm.99463.88672a1.42475,1.42475,0,0,0-.32569.02344.59122.59122,0,0,0-.20019.07617.26861.26861,0,0,0-.1001.11035.30776.30776,0,0,0-.02734.125.2074.2074,0,0,0,.02392.09863.24328.24328,0,0,0,.06641.08008.3243.3243,0,0,0,.09765.05566.34859.34859,0,0,0,.12012.02051.45506.45506,0,0,0,.186-.03613.614.614,0,0,0,.144-.08691.67678.67678,0,0,0,.10352-.10547.65353.65353,0,0,0,.06152-.09473.30642.30642,0,0,0,.02637-.09766,1.27449,1.27449,0,0,0,.00879-.16406Z"/><path class="cls-17" d="M140.24151,30.07544V27.94751h.43164v.13184a.6454.6454,0,0,1,.19922-.15137.44563.44563,0,0,1,.188-.04688.37873.37873,0,0,1,.08936.0127.2883.2883,0,0,1,.09228.042.41216.41216,0,0,1,.08692.07813.51114.51114,0,0,1,.07471.11816.52035.52035,0,0,1,.19384-.18652.47766.47766,0,0,1,.2334-.06446.44053.44053,0,0,1,.20117.041.31367.31367,0,0,1,.12891.12109.57447.57447,0,0,1,.06934.2002,1.64664,1.64664,0,0,1,.02148.27637v1.55566h-.46924V28.60571a.76664.76664,0,0,0-.02978-.25195.106.106,0,0,0-.1045-.07617c-.11474,0-.17187.13769-.17187.41406v1.38379H141.012V28.63013a1.06525,1.06525,0,0,0-.0122-.18164.38815.38815,0,0,0-.03076-.10742.11512.11512,0,0,0-.04151-.04981.09591.09591,0,0,0-.04736-.01367.15312.15312,0,0,0-.07617.01855.15138.15138,0,0,0-.05811.06446.39705.39705,0,0,0-.0376.12207,1.185,1.185,0,0,0-.01318.19531v1.39746Z"/><path class="cls-17" d="M143.5125,27.92505a.92421.92421,0,0,1,.34961.06641.8234.8234,0,0,1,.28516.19433.9223.9223,0,0,1,.19238.32227,1.29151,1.29151,0,0,1,.07031.44531c0,.03613-.001.07227-.0039.10742l-.00879.10352h-1.37988a.80584.80584,0,0,0,.07031.26074.61524.61524,0,0,0,.12695.18066.47406.47406,0,0,0,.167.10547.50755.50755,0,0,0,.18555.03418.6527.6527,0,0,0,.28027-.06445.67434.67434,0,0,0,.23731-.19043l.2793.2793a1.00231,1.00231,0,0,1-.79688.3789,1.14534,1.14534,0,0,1-.419-.07519.94787.94787,0,0,1-.333-.21582.99659.99659,0,0,1-.21875-.34473,1.26365,1.26365,0,0,1-.0791-.46094,1.39594,1.39594,0,0,1,.07519-.4707,1.02519,1.02519,0,0,1,.208-.35449.921.921,0,0,1,.31445-.22363A.9987.9987,0,0,1,143.5125,27.92505Zm.39356.87012a.59968.59968,0,0,0-.0293-.18848.51046.51046,0,0,0-.084-.15625.39915.39915,0,0,0-.13184-.10644.38361.38361,0,0,0-.1748-.04.40565.40565,0,0,0-.30762.13476.50267.50267,0,0,0-.09473.15332.82551.82551,0,0,0-.04883.20313Z"/><path class="cls-17" d="M146.36211,28.6565a.0404.0404,0,0,1-.02734-.00977.07.07,0,0,1-.01563-.02441l-.00976-.03125a.12993.12993,0,0,0-.01074-.0293A.60776.60776,0,0,0,146.2,28.468a.70307.70307,0,0,0-.13086-.07813.779.779,0,0,0-.15234-.05273.63989.63989,0,0,0-.15918-.01953.78872.78872,0,0,0-.12988.00976.389.389,0,0,0-.10938.03125.19454.19454,0,0,0-.07422.05762.13386.13386,0,0,0-.02832.08594.14775.14775,0,0,0,.03028.0957.2718.2718,0,0,0,.08886.07031.85781.85781,0,0,0,.14942.06055q.09081.02929.21386.06152a1.35271,1.35271,0,0,1,.55372.27051.50477.50477,0,0,1,.17675.37891.602.602,0,0,1-.06347.27051.7094.7094,0,0,1-.18067.22558.87691.87691,0,0,1-.2832.15528,1.13224,1.13224,0,0,1-.37012.05761,1.38565,1.38565,0,0,1-.49218-.085,1.27633,1.27633,0,0,1-.42383-.27148l.26172-.47364a.053.053,0,0,1,.04.03223c.00879.01758.01954.043.03321.0752a.43862.43862,0,0,0,.10058.11132,1.02036,1.02036,0,0,0,.14746.09864.8997.8997,0,0,0,.1709.07031.60184.60184,0,0,0,.1709.02637.6188.6188,0,0,0,.2793-.05176.168.168,0,0,0,.09863-.15527.18872.18872,0,0,0-.02148-.09278.232.232,0,0,0-.06934-.07324.56864.56864,0,0,0-.125-.06445c-.05078-.01953-.11426-.04-.18848-.0625-.041-.01172-.082-.02344-.12207-.03516a1.22065,1.22065,0,0,1-.123-.042,1.27524,1.27524,0,0,1-.21973-.10449.744.744,0,0,1-.16406-.13086.49477.49477,0,0,1-.10254-.16407.56113.56113,0,0,1-.03516-.20312.45361.45361,0,0,1,.06348-.22461.66772.66772,0,0,1,.17187-.20117.91179.91179,0,0,1,.26368-.14551.97206.97206,0,0,1,.335-.05664,1.161,1.161,0,0,1,.44629.08594,1.0419,1.0419,0,0,1,.37695.28027Z"/></g><g class="cls-18"><line class="cls-19" x1="3.28702" y1="28.80673" x2="67.64792" y2="28.80673"/></g><g class="cls-20"><rect class="cls-3" x="23.20091" y="25.57647" width="24.53315" height="5.3524"/><path class="cls-21" d="M26.46905,27.75318a.98046.98046,0,0,1,.38281.07519.90124.90124,0,0,1,.31152.2168,1.00592,1.00592,0,0,1,.209.34863,1.34853,1.34853,0,0,1,.07617.46875,1.37207,1.37207,0,0,1-.0752.46875,1.03005,1.03005,0,0,1-.20556.34961.86768.86768,0,0,1-.31153.21875.99645.99645,0,0,1-.3916.07617.96188.96188,0,0,1-.71631-.31055,1.0684,1.0684,0,0,1-.21582-.3496,1.22078,1.22078,0,0,1-.07812-.44434,1.208,1.208,0,0,1,.08008-.44434,1.11611,1.11611,0,0,1,.21923-.35449,1.017,1.017,0,0,1,.32227-.23437A.9251.9251,0,0,1,26.46905,27.75318Zm.47753,1.11816a1.16141,1.16141,0,0,0-.03613-.30371.69554.69554,0,0,0-.10254-.22363.4519.4519,0,0,0-.15625-.13868.43546.43546,0,0,0-.39306,0,.428.428,0,0,0-.15186.1377.716.716,0,0,0-.09766.21875,1.11332,1.11332,0,0,0-.03515.292,1.16239,1.16239,0,0,0,.03418.29395.6944.6944,0,0,0,.09765.22265.46212.46212,0,0,0,.15528.14356.41973.41973,0,0,0,.20361.05078.414.414,0,0,0,.35108-.17871A.8629.8629,0,0,0,26.94658,28.87134Z"/><path class="cls-21" d="M27.80254,26.86157h.56787a.084.084,0,0,1-.00879.042.14948.14948,0,0,1-.019.02734l-.021.02539a.06351.06351,0,0,0-.01318.03516v.98828a.67888.67888,0,0,1,.22705-.168.61551.61551,0,0,1,.25977-.05859.86816.86816,0,0,1,.33886.0664.7928.7928,0,0,1,.28272.19727.96524.96524,0,0,1,.19336.3291,1.34791,1.34791,0,0,1,.07178.46094,1.50748,1.50748,0,0,1-.07813.50976,1.10794,1.10794,0,0,1-.20557.36426.84105.84105,0,0,1-.29052.21777.79989.79989,0,0,1-.33057.07325.703.703,0,0,1-.30371-.06934.71054.71054,0,0,1-.25049-.20215l-.06836.20313h-.352Zm.50147,1.96582a1.666,1.666,0,0,0,.02881.333.7099.7099,0,0,0,.08154.22461.336.336,0,0,0,.12842.12695.36545.36545,0,0,0,.17089.03907.39366.39366,0,0,0,.15625-.03516.41679.41679,0,0,0,.14942-.11426.6151.6151,0,0,0,.11133-.208,1.024,1.024,0,0,0,.043-.31835,1.223,1.223,0,0,0-.043-.34375.57977.57977,0,0,0-.12451-.23243.427.427,0,0,0-.13086-.10254.39956.39956,0,0,0-.17481-.03418.3465.3465,0,0,0-.20019.05372.35963.35963,0,0,0-.12012.14648.74545.74545,0,0,0-.05957.21289A1.89361,1.89361,0,0,0,28.304,28.82739Z"/><path class="cls-21" d="M31.59014,28.48364a.03618.03618,0,0,1-.02734-.00976.07.07,0,0,1-.01563-.02442l-.00976-.03027a.14542.14542,0,0,0-.01075-.03027.59238.59238,0,0,0-.09912-.09375.78522.78522,0,0,0-.13086-.07813.944.944,0,0,0-.15185-.05273.693.693,0,0,0-.15967-.01953.79286.79286,0,0,0-.12988.00976.41989.41989,0,0,0-.10889.03223.18722.18722,0,0,0-.07471.05762.13265.13265,0,0,0-.02783.085.15031.15031,0,0,0,.02979.0957.26845.26845,0,0,0,.08935.07129,1.0013,1.0013,0,0,0,.14942.06055c.06005.01855.13134.03906.21337.06152a1.34035,1.34035,0,0,1,.55371.27051.50486.50486,0,0,1,.17725.37793.60009.60009,0,0,1-.064.27148.70278.70278,0,0,1-.18067.22559.893.893,0,0,1-.28271.15527,1.13542,1.13542,0,0,1-.37061.05664,1.3857,1.3857,0,0,1-.49219-.085,1.2444,1.2444,0,0,1-.42334-.27148l.26172-.47364a.05445.05445,0,0,1,.03955.03223c.00879.01855.02.04395.03321.07617a.45806.45806,0,0,0,.10107.11133.92013.92013,0,0,0,.14746.09766.8953.8953,0,0,0,.17041.07031.68314.68314,0,0,0,.4502-.02539.16577.16577,0,0,0,.09912-.15528.18511.18511,0,0,0-.022-.09179.22879.22879,0,0,0-.06934-.07422.56506.56506,0,0,0-.12451-.06348c-.05127-.01953-.11426-.041-.189-.0625-.041-.01172-.082-.02344-.12207-.03515-.04052-.01172-.08154-.02637-.12256-.042a1.35193,1.35193,0,0,1-.21972-.10449.74929.74929,0,0,1-.16406-.13086.515.515,0,0,1-.10254-.16406.56656.56656,0,0,1-.03516-.2041.45843.45843,0,0,1,.063-.22461.70129.70129,0,0,1,.17236-.20117.93236.93236,0,0,1,.26319-.14551.97483.97483,0,0,1,.33544-.05566,1.139,1.139,0,0,1,.44581.08593,1.03631,1.03631,0,0,1,.37744.2793Z"/><path class="cls-21" d="M32.21514,29.93872h1.99414v.41992H32.21514Z"/><path class="cls-21" d="M34.60967,29.90357v-2.1045h.50879v.21582a.87128.87128,0,0,1,.25488-.19043.66029.66029,0,0,1,.29492-.07128.79911.79911,0,0,1,.28858.04882.54326.54326,0,0,1,.22119.15235.72372.72372,0,0,1,.14063.2705,1.41884,1.41884,0,0,1,.0498.40235v1.27637H35.8709V28.6311a.87409.87409,0,0,0-.022-.209.43892.43892,0,0,0-.06152-.14453.24756.24756,0,0,0-.09473-.082.28071.28071,0,0,0-.12305-.02637.42158.42158,0,0,0-.32031.14258.513.513,0,0,0-.0957.16406.60722.60722,0,0,0-.03516.21v1.21778Z"/><path class="cls-21" d="M36.93145,28.09693a1.05485,1.05485,0,0,1,.79687-.34375,1.16165,1.16165,0,0,1,.3584.05078.66246.66246,0,0,1,.26856.15722.699.699,0,0,1,.16943.27051,1.13715,1.13715,0,0,1,.05957.39063v1.28125h-.48193v-.18946a.88094.88094,0,0,1-.28272.17774.85938.85938,0,0,1-.3291.0664.92929.92929,0,0,1-.32031-.0498.62382.62382,0,0,1-.22315-.13281.52293.52293,0,0,1-.13134-.19629.65708.65708,0,0,1-.04249-.23535.6403.6403,0,0,1,.06934-.29786.65928.65928,0,0,1,.20361-.23339,1.02865,1.02865,0,0,1,.33106-.15332,1.71778,1.71778,0,0,1,.45459-.05469H38.098a.547.547,0,0,0-.09668-.34766.3619.3619,0,0,0-.29053-.10742.74716.74716,0,0,0-.52392.2793Zm.99463.88671a1.49117,1.49117,0,0,0-.32569.02246.59142.59142,0,0,0-.20019.07618.26489.26489,0,0,0-.1001.11132.30343.30343,0,0,0-.02734.124.21415.21415,0,0,0,.02392.09961.25371.25371,0,0,0,.06641.08008.34433.34433,0,0,0,.09765.05468.32764.32764,0,0,0,.12012.02149.47159.47159,0,0,0,.186-.03614.61646.61646,0,0,0,.144-.08789.6525.6525,0,0,0,.165-.20019.29906.29906,0,0,0,.02637-.09766,1.25355,1.25355,0,0,0,.00879-.16406Z"/><path class="cls-21" d="M38.99151,29.90357V27.77466h.43164v.13281a.66584.66584,0,0,1,.19922-.15234.45833.45833,0,0,1,.188-.0459.37489.37489,0,0,1,.08936.01172.3382.3382,0,0,1,.09228.042.41216.41216,0,0,1,.08692.07813.51837.51837,0,0,1,.07471.11914.5309.5309,0,0,1,.19384-.1875.48683.48683,0,0,1,.2334-.06348.4404.4404,0,0,1,.20117.041.30744.30744,0,0,1,.12891.12109.577.577,0,0,1,.06934.20019,1.63844,1.63844,0,0,1,.021.2754v1.55664h-.46875V28.43286a.76664.76664,0,0,0-.02978-.252.10517.10517,0,0,0-.1045-.0752q-.17211,0-.17187.41309v1.38477H39.762V28.45728a1.073,1.073,0,0,0-.0122-.18164.38.38,0,0,0-.03076-.10645.11294.11294,0,0,0-.04151-.05078.09455.09455,0,0,0-.04736-.0127.153.153,0,0,0-.07617.01856.14291.14291,0,0,0-.05811.06348.41528.41528,0,0,0-.0376.12207,1.20609,1.20609,0,0,0-.01318.19628v1.39747Z"/><path class="cls-21" d="M42.262,27.75318a.90828.90828,0,0,1,.3501.0664.80417.80417,0,0,1,.28467.19434.92755.92755,0,0,1,.19287.32129,1.29929,1.29929,0,0,1,.07031.44531q0,.05567-.00439.1084l-.00879.10351H41.7669a.82022.82022,0,0,0,.07031.26075.62979.62979,0,0,0,.12744.18066.50665.50665,0,0,0,.16651.10547.53139.53139,0,0,0,.186.03418.66609.66609,0,0,0,.51709-.25586l.2793.2793a.99847.99847,0,0,1-.79639.3789,1.12961,1.12961,0,0,1-.41943-.07519.94351.94351,0,0,1-.33252-.21485.9896.9896,0,0,1-.21875-.34472,1.26373,1.26373,0,0,1-.0791-.46094,1.38805,1.38805,0,0,1,.0747-.4707,1.02524,1.02524,0,0,1,.208-.3545.90815.90815,0,0,1,.31445-.22363A1.00041,1.00041,0,0,1,42.262,27.75318Zm.39405.86914a.60442.60442,0,0,0-.02979-.18848.521.521,0,0,0-.08349-.15625.40848.40848,0,0,0-.13233-.10645.38177.38177,0,0,0-.1748-.03906.40737.40737,0,0,0-.30713.13379.50777.50777,0,0,0-.09473.1543.79607.79607,0,0,0-.04931.20215Z"/><path class="cls-21" d="M45.11211,28.48364a.03618.03618,0,0,1-.02734-.00976.07.07,0,0,1-.01563-.02442l-.00976-.03027a.146.146,0,0,0-.01074-.03027.59247.59247,0,0,0-.09913-.09375.78553.78553,0,0,0-.13085-.07813.94444.94444,0,0,0-.15186-.05273.69292.69292,0,0,0-.15967-.01953.79286.79286,0,0,0-.12988.00976.41989.41989,0,0,0-.10889.03223.18712.18712,0,0,0-.0747.05762.1326.1326,0,0,0-.02784.085.15031.15031,0,0,0,.02979.0957.26845.26845,0,0,0,.08935.07129,1.0013,1.0013,0,0,0,.14942.06055c.06006.01855.13135.03906.21338.06152a1.34048,1.34048,0,0,1,.55371.27051.50488.50488,0,0,1,.17724.37793.60009.60009,0,0,1-.064.27148.70278.70278,0,0,1-.18067.22559.893.893,0,0,1-.28271.15527,1.13542,1.13542,0,0,1-.37061.05664,1.38565,1.38565,0,0,1-.49218-.085,1.2443,1.2443,0,0,1-.42334-.27148l.26172-.47364a.05446.05446,0,0,1,.03955.03223c.00879.01855.02.04395.0332.07617a.45827.45827,0,0,0,.10107.11133.92057.92057,0,0,0,.14746.09766.89512.89512,0,0,0,.17042.07031.68311.68311,0,0,0,.45019-.02539.16577.16577,0,0,0,.09912-.15528.185.185,0,0,0-.022-.09179.22879.22879,0,0,0-.06934-.07422.56506.56506,0,0,0-.12451-.06348c-.05127-.01953-.11426-.041-.189-.0625-.041-.01172-.082-.02344-.12207-.03515-.04053-.01172-.08155-.02637-.12256-.042a1.352,1.352,0,0,1-.21973-.10449.74929.74929,0,0,1-.16406-.13086.51535.51535,0,0,1-.10254-.16406.56656.56656,0,0,1-.03516-.2041.45843.45843,0,0,1,.063-.22461.70145.70145,0,0,1,.17236-.20117.93264.93264,0,0,1,.26319-.14551.97488.97488,0,0,1,.33545-.05566,1.139,1.139,0,0,1,.4458.08593,1.03623,1.03623,0,0,1,.37744.2793Z"/></g><g id="var_names_vertical" data-name="var_names  vertical"><g class="cls-22"><line class="cls-15" x1="166.93844" y1="138.66761" x2="166.93844" y2="192.67546"/></g><line class="cls-3" x1="164.70397" y1="154.32856" x2="170.05637" y2="154.32856"/><line class="cls-1" x1="171.39954" y1="152.84454" x2="163.36079" y2="152.84454"/><g class="cls-23"><g class="cls-24"><rect class="cls-3" x="164.70396" y="154.32859" width="5.3524" height="23.28914"/><path class="cls-25" d="M167.81817,155.9436v.60938a.12156.12156,0,0,1-.04-.00488l-.03223-.01075-.03223-.01171a.1443.1443,0,0,0-.03808-.00489l-1.34668.47754.59375.2041c.1543.05274.30957.10254.46777.14746.15723.0459.30078.082.42774.1084v.48145q-.22706-.05274-.47168-.13086-.2461-.07764-.49219-.18359l-1.13965-.46875v-.41407Z"/><path class="cls-25" d="M167.52129,158.42407a1.05687,1.05687,0,0,1,.34375.79688,1.19421,1.19421,0,0,1-.05078.3584.68853.68853,0,0,1-.15723.26855.70215.70215,0,0,1-.27148.16895,1.13715,1.13715,0,0,1-.39063.05957h-1.28027V159.595h.18945a.88564.88564,0,0,1-.17871-.2832.87629.87629,0,0,1-.0664-.3291.93135.93135,0,0,1,.0498-.32032.6401.6401,0,0,1,.13281-.22265.53206.53206,0,0,1,.19629-.13184.66057.66057,0,0,1,.23535-.042.634.634,0,0,1,.53125.27246,1.03878,1.03878,0,0,1,.15333.33106,1.68508,1.68508,0,0,1,.05468.45507v.26563a.54507.54507,0,0,0,.34766-.09668.3605.3605,0,0,0,.1084-.29.75185.75185,0,0,0-.2793-.52441Zm-.88672.99414a1.41844,1.41844,0,0,0-.02343-.32519.58747.58747,0,0,0-.07618-.2002.26667.26667,0,0,0-.11035-.10058.30761.30761,0,0,0-.125-.02735.20232.20232,0,0,0-.09863.02442.2373.2373,0,0,0-.08008.0664.3185.3185,0,0,0-.05566.09766.34484.34484,0,0,0-.02051.12012.45263.45263,0,0,0,.03613.18554.61773.61773,0,0,0,.08692.14454.69932.69932,0,0,0,.10546.10351.74832.74832,0,0,0,.09473.06152.30642.30642,0,0,0,.09766.02637,1.27449,1.27449,0,0,0,.16406.00879Z"/><path class="cls-25" d="M167.81817,160.7395v.51953h-.22852a.80164.80164,0,0,1,.10742.11426.77543.77543,0,0,1,.08789.13672.68331.68331,0,0,1,.0586.15234.66359.66359,0,0,1,.02148.16407,1.03393,1.03393,0,0,1-.05664.33984.78854.78854,0,0,1-.1748.28809l-.49121-.23633a.9356.9356,0,0,0,.22265-.21094.35217.35217,0,0,0,.07031-.20215.478.478,0,0,0-.0498-.21679.561.561,0,0,0-.13379-.17676.64014.64014,0,0,0-.19824-.11817.65248.65248,0,0,0-.23828-.043h-1.10059v-.51075Z"/><path class="cls-25" d="M165.67949,162.72193v1.99414h-.42089v-1.99414Z"/><path class="cls-25" d="M165.71465,165.11646h2.10352v.50879h-.21582a.85457.85457,0,0,1,.19043.25488.66316.66316,0,0,1,.07226.29492.82322.82322,0,0,1-.04883.28906.53447.53447,0,0,1-.15332.22071.70235.70235,0,0,1-.2705.14062,1.40692,1.40692,0,0,1-.40137.04981h-1.27637v-.49707h1.27149a.86635.86635,0,0,0,.209-.02247.42109.42109,0,0,0,.14453-.06152.24684.24684,0,0,0,.083-.09473.27765.27765,0,0,0,.02637-.123.41354.41354,0,0,0-.03809-.17676.40314.40314,0,0,0-.10547-.14356.50147.50147,0,0,0-.16406-.0957.60331.60331,0,0,0-.21-.03515h-1.2168Z"/><path class="cls-25" d="M167.52129,167.43872a1.05685,1.05685,0,0,1,.34375.79688,1.19421,1.19421,0,0,1-.05078.3584.6886.6886,0,0,1-.15723.26855.70215.70215,0,0,1-.27148.16895,1.13739,1.13739,0,0,1-.39063.05957h-1.28027v-.48145h.18945a.88564.88564,0,0,1-.17871-.2832.87629.87629,0,0,1-.0664-.3291.93131.93131,0,0,1,.0498-.32032.6401.6401,0,0,1,.13281-.22265.53206.53206,0,0,1,.19629-.13184.66057.66057,0,0,1,.23535-.042.634.634,0,0,1,.53125.27246,1.03872,1.03872,0,0,1,.15333.33105,1.6852,1.6852,0,0,1,.05468.45508v.26563a.54507.54507,0,0,0,.34766-.09668.36053.36053,0,0,0,.1084-.29.75187.75187,0,0,0-.2793-.52442Zm-.88672.99414a1.41844,1.41844,0,0,0-.02343-.32519.58739.58739,0,0,0-.07618-.2002.2666.2666,0,0,0-.11035-.10058.30761.30761,0,0,0-.125-.02735.20221.20221,0,0,0-.09863.02442.2373.2373,0,0,0-.08008.0664.3185.3185,0,0,0-.05566.09766.34484.34484,0,0,0-.02051.12012.45263.45263,0,0,0,.03613.18554.61745.61745,0,0,0,.08692.14453.69893.69893,0,0,0,.10546.10352.74944.74944,0,0,0,.09473.06152.30642.30642,0,0,0,.09766.02637,1.27449,1.27449,0,0,0,.16406.00879Z"/><path class="cls-25" d="M165.71465,169.49829h2.12793v.43164h-.13184a.65708.65708,0,0,1,.15137.19922.4494.4494,0,0,1,.04688.18848.37494.37494,0,0,1-.0127.08887.29062.29062,0,0,1-.042.09277.42472.42472,0,0,1-.07813.08691.50943.50943,0,0,1-.11816.07422.52153.52153,0,0,1,.18652.19434.47623.47623,0,0,1,.06446.2334.44184.44184,0,0,1-.041.20117.31358.31358,0,0,1-.12109.1289.59481.59481,0,0,1-.2002.06934,1.65434,1.65434,0,0,1-.27636.02051h-1.55567v-.46875h1.46973a.76955.76955,0,0,0,.25195-.0293.10645.10645,0,0,0,.07617-.10449c0-.11524-.13769-.17188-.41406-.17188h-1.38379v-.46484H167.16a1.12659,1.12659,0,0,0,.18164-.01172.38561.38561,0,0,0,.10743-.03125.11461.11461,0,0,0,.0498-.041.09628.09628,0,0,0,.01367-.04786.15442.15442,0,0,0-.01855-.07617.15053.15053,0,0,0-.06446-.05761.38286.38286,0,0,0-.12207-.03809,1.19208,1.19208,0,0,0-.19531-.0127h-1.39746Z"/><path class="cls-25" d="M167.865,172.7688a.92947.92947,0,0,1-.0664.35059.811.811,0,0,1-.19434.28418.92416.92416,0,0,1-.32227.19336,1.29171,1.29171,0,0,1-.44531.07031c-.03613,0-.07226-.002-.10742-.00489l-.10352-.00878v-1.37989a.80609.80609,0,0,0-.26074.07032.61719.61719,0,0,0-.18066.12793.4791.4791,0,0,0-.10547.166.51267.51267,0,0,0-.03418.18652.656.656,0,0,0,.06445.28028.66268.66268,0,0,0,.19043.23633l-.27929.27929a1.00039,1.00039,0,0,1-.37891-.7959,1.15438,1.15438,0,0,1,.07519-.41992.94382.94382,0,0,1,.21582-.332.9828.9828,0,0,1,.34473-.21875,1.26386,1.26386,0,0,1,.46094-.0791,1.39606,1.39606,0,0,1,.4707.07422,1.025,1.025,0,0,1,.35449.208.92109.92109,0,0,1,.22364.31445A1.00227,1.00227,0,0,1,167.865,172.7688Zm-.87012.39453a.60009.60009,0,0,0,.18848-.03027.50828.50828,0,0,0,.15625-.083.39315.39315,0,0,0,.10645-.13281.38084.38084,0,0,0,.04-.17481.41489.41489,0,0,0-.03516-.1709.41071.41071,0,0,0-.09961-.13574.50246.50246,0,0,0-.15332-.09472.78341.78341,0,0,0-.20313-.04981Z"/><path class="cls-25" d="M167.1336,175.61939a.04044.04044,0,0,1,.00976-.02735.06994.06994,0,0,1,.02442-.01562.2905.2905,0,0,1,.03125-.00977.20389.20389,0,0,0,.02929-.01074.57846.57846,0,0,0,.09375-.09961.64451.64451,0,0,0,.07813-.13086.79245.79245,0,0,0,.05273-.15137.64748.64748,0,0,0,.01953-.16015.79725.79725,0,0,0-.00976-.12989.38171.38171,0,0,0-.03125-.10839.19815.19815,0,0,0-.05762-.0752.13326.13326,0,0,0-.08594-.02734.153.153,0,0,0-.0957.02929.28784.28784,0,0,0-.07031.08985.799.799,0,0,0-.06055.14941c-.01953.05957-.04.13086-.06152.21289a1.3526,1.3526,0,0,1-.27051.55371.50586.50586,0,0,1-.37891.17774.59028.59028,0,0,1-.2705-.06446.69612.69612,0,0,1-.22559-.18066.87164.87164,0,0,1-.15527-.28223,1.1379,1.1379,0,0,1-.05762-.37109,1.3857,1.3857,0,0,1,.085-.49219,1.27279,1.27279,0,0,1,.27148-.42285l.47364.26172a.05165.05165,0,0,1-.03223.03906c-.01758.00879-.043.02051-.07519.03321a.44335.44335,0,0,0-.11133.10156.96863.96863,0,0,0-.09864.14746.89092.89092,0,0,0-.07031.16992.60707.60707,0,0,0-.02637.1709.616.616,0,0,0,.05176.2793.1674.1674,0,0,0,.15528.09961.189.189,0,0,0,.09277-.02247.22115.22115,0,0,0,.07324-.06933.55873.55873,0,0,0,.06445-.124c.01954-.05176.04-.11426.0625-.18946.01172-.041.02344-.082.03516-.12207s.02539-.08105.042-.12207a1.2756,1.2756,0,0,1,.1045-.21973.70135.70135,0,0,1,.13085-.16406.49487.49487,0,0,1,.16407-.10254.56134.56134,0,0,1,.20312-.03515.45206.45206,0,0,1,.22461.0625.68529.68529,0,0,1,.20117.17285.906.906,0,0,1,.14551.26269.97775.97775,0,0,1,.05664.33594,1.15241,1.15241,0,0,1-.08594.44531,1.03668,1.03668,0,0,1-.28027.37793Z"/></g></g></g><g class="cls-26"><g class="cls-27"><line class="cls-19" x1="166.93844" y1="33.17382" x2="166.93844" y2="98.62114"/></g></g><g class="cls-28"><g class="cls-27"><rect class="cls-3" x="164.70393" y="53.9964" width="5.3524" height="24.53315"/><path class="cls-21" d="M167.865,57.26685a.984.984,0,0,1-.07519.38281.90574.90574,0,0,1-.2168.31152,1.015,1.015,0,0,1-.34863.209,1.34853,1.34853,0,0,1-.46875.07617,1.372,1.372,0,0,1-.46875-.0752,1.01847,1.01847,0,0,1-.35059-.20605.88772.88772,0,0,1-.21875-.31152.99653.99653,0,0,1-.07617-.39161.97151.97151,0,0,1,.31055-.71582,1.07036,1.07036,0,0,1,.34961-.21582,1.29027,1.29027,0,0,1,.88964.002,1.12365,1.12365,0,0,1,.3545.21875,1.02786,1.02786,0,0,1,.23437.32226A.92891.92891,0,0,1,167.865,57.26685Zm-1.11816.47754a1.18259,1.18259,0,0,0,.30371-.03614.6899.6899,0,0,0,.22265-.10254.44638.44638,0,0,0,.13868-.15625.411.411,0,0,0,.04785-.19628.40668.40668,0,0,0-.04785-.19727.43723.43723,0,0,0-.13672-.15137.71013.71013,0,0,0-.21973-.09765,1.10527,1.10527,0,0,0-.291-.03516,1.13531,1.13531,0,0,0-.294.03418.68021.68021,0,0,0-.22363.09766.441.441,0,0,0-.14258.15527.40735.40735,0,0,0-.05078.20312.417.417,0,0,0,.17773.35157A.86621.86621,0,0,0,166.74688,57.74439Z"/><path class="cls-21" d="M168.75567,58.59985v.56836a.08671.08671,0,0,1-.042-.00878.27677.27677,0,0,1-.02734-.01954l-.02539-.0205a.0637.0637,0,0,0-.03516-.01368h-.98828a.67892.67892,0,0,1,.169.22754.61387.61387,0,0,1,.05859.25977.88814.88814,0,0,1-.0664.33887.79379.79379,0,0,1-.19825.28222.93211.93211,0,0,1-.3291.19336,1.34352,1.34352,0,0,1-.46094.07227,1.52778,1.52778,0,0,1-.50976-.07813,1.13845,1.13845,0,0,1-.36426-.206.84726.84726,0,0,1-.21777-.29.8166.8166,0,0,1-.07227-.33106.70384.70384,0,0,1,.27051-.55371l-.20215-.06836v-.35254Zm-1.96485.502a1.71043,1.71043,0,0,0-.334.02832.73113.73113,0,0,0-.22461.082.33554.33554,0,0,0-.126.12793.36753.36753,0,0,0-.04.1709.39193.39193,0,0,0,.03516.15625.40132.40132,0,0,0,.11523.14941.59858.59858,0,0,0,.208.11133,1.01746,1.01746,0,0,0,.31738.043,1.23033,1.23033,0,0,0,.34473-.043.5857.5857,0,0,0,.23242-.124.44415.44415,0,0,0,.10157-.13086.38758.38758,0,0,0,.03418-.17481.33721.33721,0,0,0-.05372-.20019.3558.3558,0,0,0-.14648-.12012.70865.70865,0,0,0-.21191-.05957A1.89377,1.89377,0,0,0,166.79082,59.10181Z"/><path class="cls-21" d="M167.1336,62.38794a.04039.04039,0,0,1,.00976-.02734.07.07,0,0,1,.02442-.01563.29276.29276,0,0,1,.03125-.00976.20388.20388,0,0,0,.02929-.01075.57809.57809,0,0,0,.09375-.09961.64443.64443,0,0,0,.07813-.13085.79293.79293,0,0,0,.05273-.15137.6475.6475,0,0,0,.01953-.16016.797.797,0,0,0-.00976-.12988.38169.38169,0,0,0-.03125-.1084.198.198,0,0,0-.05762-.07519.13321.13321,0,0,0-.08594-.02735.153.153,0,0,0-.0957.0293.28779.28779,0,0,0-.07031.08984.79915.79915,0,0,0-.06055.14942c-.01953.05957-.04.13086-.06152.21289a1.35273,1.35273,0,0,1-.27051.55371.50588.50588,0,0,1-.37891.17773.59027.59027,0,0,1-.2705-.06445.69625.69625,0,0,1-.22559-.18066.87175.87175,0,0,1-.15527-.28223,1.138,1.138,0,0,1-.05762-.3711,1.38565,1.38565,0,0,1,.085-.49218,1.27269,1.27269,0,0,1,.27148-.42285l.47364.26171a.05166.05166,0,0,1-.03223.03907c-.01758.00879-.043.0205-.07519.0332a.44373.44373,0,0,0-.11133.10156.96963.96963,0,0,0-.09864.14746.89074.89074,0,0,0-.07031.16993.607.607,0,0,0-.02637.17089.616.616,0,0,0,.05176.2793.16738.16738,0,0,0,.15528.09961.189.189,0,0,0,.09277-.02246.22129.22129,0,0,0,.07324-.06934.55873.55873,0,0,0,.06445-.124c.01954-.05176.04-.11426.0625-.18945.01172-.041.02344-.082.03516-.12207s.02539-.08106.042-.12207a1.27489,1.27489,0,0,1,.1045-.21973.70094.70094,0,0,1,.13085-.16406.49487.49487,0,0,1,.16407-.10254.56113.56113,0,0,1,.20312-.03516.45216.45216,0,0,1,.22461.0625.68529.68529,0,0,1,.20117.17285.90619.90619,0,0,1,.14551.2627.97775.97775,0,0,1,.05664.33594,1.15248,1.15248,0,0,1-.08594.44531,1.03685,1.03685,0,0,1-.28027.37793Z"/><path class="cls-21" d="M165.67949,63.01294v1.99414h-.42089V63.01294Z"/><path class="cls-21" d="M165.71465,65.40747h2.10352v.50879h-.21582a.85457.85457,0,0,1,.19043.25488.66011.66011,0,0,1,.07226.29493.81775.81775,0,0,1-.04883.28808.53751.53751,0,0,1-.15332.22168.7158.7158,0,0,1-.2705.14063,1.407,1.407,0,0,1-.40137.0498h-1.27637v-.498h1.27149a.87043.87043,0,0,0,.209-.02148.42148.42148,0,0,0,.14453-.06152.25407.25407,0,0,0,.083-.09473.28378.28378,0,0,0,.02637-.12305.41792.41792,0,0,0-.03809-.17773.40828.40828,0,0,0-.10547-.14258.48455.48455,0,0,0-.16406-.0957.60331.60331,0,0,0-.21-.03516h-1.2168Z"/><path class="cls-21" d="M167.52129,67.72876a1.05985,1.05985,0,0,1,.34375.79688,1.18947,1.18947,0,0,1-.05078.35839.68158.68158,0,0,1-.15723.26856.70376.70376,0,0,1-.27148.16992,1.13715,1.13715,0,0,1-.39063.05957h-1.28027v-.48242h.18945a.92165.92165,0,0,1-.24511-.61133.92735.92735,0,0,1,.0498-.32031.63578.63578,0,0,1,.13281-.22363.52945.52945,0,0,1,.19629-.13086.66137.66137,0,0,1,.23535-.043.63163.63163,0,0,1,.53125.27344,1.019,1.019,0,0,1,.15333.33105,1.67273,1.67273,0,0,1,.05468.4541v.2666a.545.545,0,0,0,.34766-.09668.364.364,0,0,0,.1084-.291.75.75,0,0,0-.2793-.52344Zm-.88672.99512a1.43217,1.43217,0,0,0-.02343-.32617.59563.59563,0,0,0-.07618-.2002.27059.27059,0,0,0-.11035-.09961.30776.30776,0,0,0-.125-.02734.21277.21277,0,0,0-.09863.02344.24926.24926,0,0,0-.08008.0664.3303.3303,0,0,0-.05566.09766.35281.35281,0,0,0-.02051.12012.45741.45741,0,0,0,.03613.18652.61056.61056,0,0,0,.08692.14355.65508.65508,0,0,0,.10546.10352.57936.57936,0,0,0,.09473.06152.30642.30642,0,0,0,.09766.02637,1.27449,1.27449,0,0,0,.16406.00879Z"/><path class="cls-21" d="M165.71465,69.78931h2.12793V70.221h-.13184a.63425.63425,0,0,1,.15137.19922.4419.4419,0,0,1,.04688.1875.3826.3826,0,0,1-.0127.08984.28613.28613,0,0,1-.042.0918.40071.40071,0,0,1-.07813.08691.51143.51143,0,0,1-.11816.0752.51907.51907,0,0,1,.18652.19336.479.479,0,0,1,.06446.2334.439.439,0,0,1-.041.20117.31358.31358,0,0,1-.12109.1289.57419.57419,0,0,1-.2002.06934,1.6466,1.6466,0,0,1-.27636.02148h-1.55567v-.46875h1.46973a.76363.76363,0,0,0,.25195-.03027.10564.10564,0,0,0,.07617-.10449c0-.11426-.13769-.17188-.41406-.17188h-1.38379v-.46386H167.16a1.00994,1.00994,0,0,0,.18164-.0127.38989.38989,0,0,0,.10743-.03027.11575.11575,0,0,0,.0498-.042.09561.09561,0,0,0,.01367-.04687.14138.14138,0,0,0-.083-.13477.4122.4122,0,0,0-.12207-.03711,1.1789,1.1789,0,0,0-.19531-.01367h-1.39746Z"/><path class="cls-21" d="M167.865,73.05982a.92444.92444,0,0,1-.0664.34961.82362.82362,0,0,1-.19434.28515.92215.92215,0,0,1-.32227.19238,1.29146,1.29146,0,0,1-.44531.07032c-.03613,0-.07226-.001-.10742-.00391l-.10352-.00879V72.5647a.80609.80609,0,0,0-.26074.07031.61543.61543,0,0,0-.18066.127.47415.47415,0,0,0-.10547.167.5075.5075,0,0,0-.03418.18554.65274.65274,0,0,0,.06445.28028.6743.6743,0,0,0,.19043.2373l-.27929.2793a1.00228,1.00228,0,0,1-.37891-.79688,1.14532,1.14532,0,0,1,.07519-.41894.94782.94782,0,0,1,.21582-.333.99674.99674,0,0,1,.34473-.21875,1.26386,1.26386,0,0,1,.46094-.0791,1.3959,1.3959,0,0,1,.4707.07519,1.02519,1.02519,0,0,1,.35449.208.92119.92119,0,0,1,.22364.31445A.99888.99888,0,0,1,167.865,73.05982Zm-.87012.39355a.59968.59968,0,0,0,.18848-.0293.51025.51025,0,0,0,.15625-.084.3992.3992,0,0,0,.10645-.13184.38374.38374,0,0,0,.04-.1748.4057.4057,0,0,0-.13477-.30762.50267.50267,0,0,0-.15332-.09473.826.826,0,0,0-.20313-.04882Z"/><path class="cls-21" d="M167.1336,75.90943a.04044.04044,0,0,1,.00976-.02735.06994.06994,0,0,1,.02442-.01562l.03125-.00977a.13.13,0,0,0,.02929-.01074.60809.60809,0,0,0,.09375-.09863.70285.70285,0,0,0,.07813-.13086.77929.77929,0,0,0,.05273-.15235.63984.63984,0,0,0,.01953-.15918.7888.7888,0,0,0-.00976-.12988.38856.38856,0,0,0-.03125-.10937.19447.19447,0,0,0-.05762-.07422.13381.13381,0,0,0-.08594-.02832.14775.14775,0,0,0-.0957.03027.27185.27185,0,0,0-.07031.08887.85846.85846,0,0,0-.06055.14941q-.02929.09083-.06152.21387a1.35273,1.35273,0,0,1-.27051.55371.50478.50478,0,0,1-.37891.17676.602.602,0,0,1-.2705-.06348.70943.70943,0,0,1-.22559-.18066.87686.87686,0,0,1-.15527-.28321,1.13191,1.13191,0,0,1-.05762-.37011,1.38566,1.38566,0,0,1,.085-.49219,1.27653,1.27653,0,0,1,.27148-.42383l.47364.26172a.053.053,0,0,1-.03223.04c-.01758.00879-.043.01953-.07519.0332a.43835.43835,0,0,0-.11133.10059,1.01981,1.01981,0,0,0-.09864.14746.8997.8997,0,0,0-.07031.1709.60183.60183,0,0,0-.02637.17089.61877.61877,0,0,0,.05176.2793.168.168,0,0,0,.15528.09863.18871.18871,0,0,0,.09277-.02148.23184.23184,0,0,0,.07324-.06934.568.568,0,0,0,.06445-.125c.01954-.05078.04-.11425.0625-.18847.01172-.041.02344-.082.03516-.12207a1.22082,1.22082,0,0,1,.042-.123,1.2756,1.2756,0,0,1,.1045-.21973.744.744,0,0,1,.13085-.16406.49487.49487,0,0,1,.16407-.10254.56113.56113,0,0,1,.20312-.03515.4536.4536,0,0,1,.22461.06347.66763.66763,0,0,1,.20117.17188.91173.91173,0,0,1,.14551.26367.9721.9721,0,0,1,.05664.335,1.161,1.161,0,0,1-.08594.44629,1.0419,1.0419,0,0,1-.28027.377Z"/></g></g></g></g></svg>