<svg xmlns="http://www.w3.org/2000/svg" xmlns:xlink="http://www.w3.org/1999/xlink" viewBox="0 0 200.44 195.44"><defs><style>.cls-1,.cls-15,.cls-19{fill:none;}.cls-2,.cls-21{fill:#efc41c;}.cls-11,.cls-2,.cls-4,.cls-5,.cls-6,.cls-7,.cls-8,.cls-9{stroke:#010101;stroke-miterlimit:10;stroke-width:0.5px;}.cls-3{fill:#fff;}.cls-4{fill:#f15c5a;}.cls-5{fill:#965ba5;}.cls-6{fill:#194c61;}.cls-7{fill:#ef9021;}.cls-10,.cls-8{fill:#3c8b53;}.cls-9{fill:#4fba6f;}.cls-11,.cls-25{fill:#2c96c0;}.cls-12{fill:#010101;}.cls-13{fill:#231f20;}.cls-14{clip-path:url(#clip-path);}.cls-15{stroke:#2c96c0;}.cls-15,.cls-19{stroke-width:2px;}.cls-16{clip-path:url(#clip-path-2);}.cls-17{fill:#4899d4;}.cls-18{clip-path:url(#clip-path-3);}.cls-19{stroke:#efc41c;}.cls-20{clip-path:url(#clip-path-4);}.cls-22{clip-path:url(#clip-path-5);}.cls-23{clip-path:url(#clip-path-6);}.cls-24{clip-path:url(#clip-path-7);}.cls-26{clip-path:url(#clip-path-8);}.cls-27{clip-path:url(#clip-path-9);}.cls-28{clip-path:url(#clip-path-10);}</style><clipPath id="clip-path"><rect class="cls-1" x="109.13" y="28.37" width="54.57" height="1.13"/></clipPath><clipPath id="clip-path-2"><rect class="cls-1" x="123.59" y="24.48" width="26.26" height="8.04"/></clipPath><clipPath id="clip-path-3"><rect class="cls-1" x="3.01" y="28.25" width="64.91" height="1.11"/></clipPath><clipPath id="clip-path-4"><rect class="cls-1" x="18.85" y="24.23" width="33.23" height="8.04"/></clipPath><clipPath id="clip-path-5"><rect class="cls-1" x="166.38" y="138.39" width="1.13" height="54.57"/></clipPath><clipPath id="clip-path-6"><rect id="SVGID" class="cls-1" x="163.36" y="152.84" width="8.04" height="26.26"/></clipPath><clipPath id="clip-path-7"><polygon id="SVGID-2" data-name="SVGID" class="cls-1" points="0.51 198.09 288.98 198.09 280.65 -36.15 -7.82 -36.15 0.51 198.09"/></clipPath><clipPath id="clip-path-8"><rect class="cls-1" x="166.38" y="32.89" width="1.13" height="66.01"/></clipPath><clipPath id="clip-path-9"><rect class="cls-1" x="-7.82" y="-37.25" width="288.47" height="216.35"/></clipPath><clipPath id="clip-path-10"><rect class="cls-1" x="163.36" y="49.65" width="8.04" height="33.23"/></clipPath></defs><g id="Layer_2" data-name="Layer 2"><g id="Panel_A" data-name="Panel A"><g id="obs"><rect class="cls-2" x="171.18" y="33.49" width="29" height="64.88"/><path class="cls-3" d="M182,64.81a1.64,1.64,0,0,1,.63.12,1.73,1.73,0,0,1,.52.36,1.87,1.87,0,0,1,.35.58,2.36,2.36,0,0,1,.13.78,2.27,2.27,0,0,1-.13.78,1.79,1.79,0,0,1-.34.59,1.43,1.43,0,0,1-.52.36,1.57,1.57,0,0,1-.65.13,1.59,1.59,0,0,1-.66-.14,1.52,1.52,0,0,1-.53-.38,1.58,1.58,0,0,1-.36-.58,2.17,2.17,0,0,1,0-1.48,1.79,1.79,0,0,1,.37-.59,1.55,1.55,0,0,1,.53-.39A1.63,1.63,0,0,1,182,64.81Zm.79,1.86a2,2,0,0,0-.06-.51,1.26,1.26,0,0,0-.17-.37.71.71,0,0,0-.26-.23.73.73,0,0,0-.33-.08.66.66,0,0,0-.32.08.71.71,0,0,0-.26.23,1.15,1.15,0,0,0-.16.37,1.75,1.75,0,0,0-.06.48,1.88,1.88,0,0,0,.06.49,1.25,1.25,0,0,0,.16.37.85.85,0,0,0,.26.24.63.63,0,0,0,.34.08.69.69,0,0,0,.58-.29A1.42,1.42,0,0,0,182.76,66.67Z"/><path class="cls-3" d="M184.18,63.33h.95s0,.05,0,.07l0,0,0,0a.14.14,0,0,0,0,.06v1.65a1,1,0,0,1,.37-.28,1,1,0,0,1,.44-.1,1.55,1.55,0,0,1,.56.11,1.18,1.18,0,0,1,.47.33,1.48,1.48,0,0,1,.32.55,2.16,2.16,0,0,1,.12.76,2.41,2.41,0,0,1-.13.85,1.79,1.79,0,0,1-.34.61,1.38,1.38,0,0,1-.48.36,1.37,1.37,0,0,1-.55.12,1.26,1.26,0,0,1-.51-.11,1.24,1.24,0,0,1-.42-.34l-.11.34h-.59ZM185,66.6a2.87,2.87,0,0,0,0,.55,1.06,1.06,0,0,0,.13.37.58.58,0,0,0,.22.22.64.64,0,0,0,.28.06.65.65,0,0,0,.26-.06.72.72,0,0,0,.25-.19.85.85,0,0,0,.18-.34,1.64,1.64,0,0,0,.08-.53,1.93,1.93,0,0,0-.08-.58.86.86,0,0,0-.2-.38.57.57,0,0,0-.22-.17.62.62,0,0,0-.29-.06.54.54,0,0,0-.33.09.52.52,0,0,0-.2.24,1.26,1.26,0,0,0-.1.36A2.77,2.77,0,0,0,185,66.6Z"/><path class="cls-3" d="M190.49,66h-.05a.08.08,0,0,1,0,0s0,0,0,0,0,0,0,0a.81.81,0,0,0-.16-.16l-.22-.13-.25-.09a1.24,1.24,0,0,0-.27,0l-.22,0-.18,0a.29.29,0,0,0-.12.1.2.2,0,0,0-.05.14.28.28,0,0,0,.05.16.49.49,0,0,0,.15.12l.25.1.35.1a2.37,2.37,0,0,1,.93.45.85.85,0,0,1,.29.63,1,1,0,0,1-.11.45,1.07,1.07,0,0,1-.3.37,1.33,1.33,0,0,1-.47.26,1.7,1.7,0,0,1-.61.1,2.39,2.39,0,0,1-.82-.14,2.21,2.21,0,0,1-.71-.46l.44-.78a.06.06,0,0,1,.06.05.53.53,0,0,1,.06.13.7.7,0,0,0,.17.18,1,1,0,0,0,.24.16,1.48,1.48,0,0,0,.29.12,1,1,0,0,0,.28,0,1,1,0,0,0,.47-.09.27.27,0,0,0,.16-.26.24.24,0,0,0,0-.15.25.25,0,0,0-.11-.12.68.68,0,0,0-.21-.11l-.31-.11-.21,0-.2-.07a2.55,2.55,0,0,1-.37-.18,1.13,1.13,0,0,1-.27-.22,1,1,0,0,1-.17-.27.9.9,0,0,1-.06-.34.75.75,0,0,1,.11-.37,1.13,1.13,0,0,1,.28-.34,1.85,1.85,0,0,1,.44-.24,1.69,1.69,0,0,1,.56-.09,2,2,0,0,1,.74.14,1.73,1.73,0,0,1,.63.47Z"/></g><g id="obsp"><rect class="cls-4" x="0.25" y="36.22" width="64.91" height="64.88"/><rect class="cls-4" x="1.63" y="34.84" width="64.91" height="64.88"/><rect class="cls-4" x="3.01" y="33.46" width="64.91" height="64.88"/><path class="cls-3" d="M30.18,64.46a1.48,1.48,0,0,1,.63.13,1.43,1.43,0,0,1,.52.36,1.53,1.53,0,0,1,.35.58,2.41,2.41,0,0,1,0,1.56,1.74,1.74,0,0,1-.34.58,1.43,1.43,0,0,1-.52.36,1.57,1.57,0,0,1-.65.13,1.63,1.63,0,0,1-.66-.14,1.52,1.52,0,0,1-.53-.38,1.5,1.5,0,0,1-.36-.58,2,2,0,0,1-.13-.74,2,2,0,0,1,.13-.74A1.79,1.79,0,0,1,29,65a1.87,1.87,0,0,1,.53-.39A1.63,1.63,0,0,1,30.18,64.46ZM31,66.32a1.85,1.85,0,0,0-.06-.5,1.33,1.33,0,0,0-.17-.38.82.82,0,0,0-.26-.23.73.73,0,0,0-.33-.08.69.69,0,0,0-.32.08.82.82,0,0,0-.26.23,1.15,1.15,0,0,0-.16.37,1.75,1.75,0,0,0-.06.48,1.83,1.83,0,0,0,.06.49,1.15,1.15,0,0,0,.16.37.74.74,0,0,0,.26.24.63.63,0,0,0,.34.08.67.67,0,0,0,.58-.29A1.4,1.4,0,0,0,31,66.32Z"/><path class="cls-3" d="M32.4,63h.94a.15.15,0,0,1,0,.07s0,0,0,0l0,0a.08.08,0,0,0,0,0v1.65a1,1,0,0,1,.38-.28.94.94,0,0,1,.43-.1,1.55,1.55,0,0,1,.56.11,1.18,1.18,0,0,1,.47.33,1.56,1.56,0,0,1,.32.55,2.22,2.22,0,0,1,.12.77,2.39,2.39,0,0,1-.13.84,1.7,1.7,0,0,1-.34.61,1.38,1.38,0,0,1-.48.36,1.37,1.37,0,0,1-.55.12,1.26,1.26,0,0,1-.51-.11,1.12,1.12,0,0,1-.41-.34L33,68H32.4Zm.83,3.27a2.79,2.79,0,0,0,.05.55,1.4,1.4,0,0,0,.13.38.63.63,0,0,0,.22.21.64.64,0,0,0,.28.06.65.65,0,0,0,.26-.06.56.56,0,0,0,.25-.19.92.92,0,0,0,.19-.34,1.94,1.94,0,0,0,.07-.53,2.34,2.34,0,0,0-.07-.57,1,1,0,0,0-.21-.39.69.69,0,0,0-.22-.17.62.62,0,0,0-.29-.06.54.54,0,0,0-.33.09.5.5,0,0,0-.2.25,1.2,1.2,0,0,0-.1.35A2.77,2.77,0,0,0,33.23,66.25Z"/><path class="cls-3" d="M38.7,65.68l-.05,0a.05.05,0,0,1,0,0l0-.05a.08.08,0,0,0,0,0,1.21,1.21,0,0,0-.16-.16l-.22-.13L38,65.15a.84.84,0,0,0-.27,0l-.21,0-.19.05a.4.4,0,0,0-.12.1.22.22,0,0,0-.05.14.28.28,0,0,0,.05.16l.15.12.25.1.36.1a2.39,2.39,0,0,1,.92.45.85.85,0,0,1,.29.63.88.88,0,0,1-.11.45,1.33,1.33,0,0,1-.29.38,1.55,1.55,0,0,1-.48.25,1.7,1.7,0,0,1-.61.1,2.39,2.39,0,0,1-.82-.14,2.36,2.36,0,0,1-.71-.45l.44-.79s0,0,.07,0l0,.13a.94.94,0,0,0,.17.18,1.46,1.46,0,0,0,.24.17,1.45,1.45,0,0,0,.29.11,1,1,0,0,0,.28,0,1,1,0,0,0,.47-.09.27.27,0,0,0,.16-.26.33.33,0,0,0,0-.15.46.46,0,0,0-.12-.12.68.68,0,0,0-.21-.11l-.31-.1-.21-.06-.2-.07a1.51,1.51,0,0,1-.36-.18,1.21,1.21,0,0,1-.28-.21,1,1,0,0,1-.17-.28.9.9,0,0,1-.06-.34.78.78,0,0,1,.11-.37,1,1,0,0,1,.29-.33,1.62,1.62,0,0,1,.43-.25,1.69,1.69,0,0,1,.56-.09,2,2,0,0,1,.74.14,1.73,1.73,0,0,1,.63.47Z"/><path class="cls-3" d="M39.93,64.54h.81v.36a.88.88,0,0,1,.18-.2,1,1,0,0,1,.22-.14l.22-.08.22,0a1.37,1.37,0,0,1,1.05.48,1.9,1.9,0,0,1,.32.6,3,3,0,0,1,.11.84,2.26,2.26,0,0,1-.12.77,1.79,1.79,0,0,1-.32.56,1.38,1.38,0,0,1-1,.44,1.19,1.19,0,0,1-.44-.09,1.21,1.21,0,0,1-.37-.25v1.48h-.83Zm.84,1.72a2.87,2.87,0,0,0,0,.55,1.06,1.06,0,0,0,.14.37.53.53,0,0,0,.21.21.57.57,0,0,0,.29.07.65.65,0,0,0,.26-.06.72.72,0,0,0,.25-.19,1.2,1.2,0,0,0,.18-.34A2,2,0,0,0,42,65.46a.68.68,0,0,0-.59-.31.58.58,0,0,0-.33.09.68.68,0,0,0-.2.24,1.26,1.26,0,0,0-.1.36A2.77,2.77,0,0,0,40.77,66.26Z"/></g><g id="varp"><rect class="cls-5" x="106.93" y="141.67" width="53.44" height="53.52"/><rect class="cls-5" x="108.31" y="140.29" width="53.44" height="53.52"/><rect class="cls-5" x="109.69" y="138.91" width="53.44" height="53.52"/><path class="cls-3" d="M128.85,164.47h1a.15.15,0,0,1,0,.07l0,.05,0,.06s0,0,0,.06l.8,2.24.34-1q.13-.37.24-.78a6.73,6.73,0,0,0,.18-.71h.81c-.06.25-.14.52-.22.79s-.19.54-.31.82l-.78,1.89h-.69Z"/><path class="cls-3" d="M133,165a1.76,1.76,0,0,1,1.33-.58,1.78,1.78,0,0,1,.59.09,1.11,1.11,0,0,1,.45.26,1.15,1.15,0,0,1,.28.45,1.81,1.81,0,0,1,.1.65V168h-.8v-.31a1.49,1.49,0,0,1-.47.29,1.35,1.35,0,0,1-.55.11,1.44,1.44,0,0,1-.53-.08,1,1,0,0,1-.37-.22.83.83,0,0,1-.22-.33,1,1,0,0,1-.07-.39,1,1,0,0,1,.45-.88,1.87,1.87,0,0,1,.55-.26,2.88,2.88,0,0,1,.76-.09h.44a.91.91,0,0,0-.16-.58.59.59,0,0,0-.48-.18,1.23,1.23,0,0,0-.87.47Zm1.66,1.47a2.88,2.88,0,0,0-.55,0,.84.84,0,0,0-.33.13.48.48,0,0,0-.17.18.52.52,0,0,0,0,.21.29.29,0,0,0,0,.16.38.38,0,0,0,.11.14.51.51,0,0,0,.16.09.64.64,0,0,0,.2,0,.75.75,0,0,0,.31-.06,1.38,1.38,0,0,0,.24-.14.94.94,0,0,0,.17-.18l.11-.15a.61.61,0,0,0,0-.17,2.1,2.1,0,0,0,0-.27Z"/><path class="cls-3" d="M136.83,164.47h.87v.38a1.66,1.66,0,0,1,.19-.18,1.28,1.28,0,0,1,.23-.14,1.09,1.09,0,0,1,.25-.1,1.26,1.26,0,0,1,.27,0,1.8,1.8,0,0,1,.57.1,1.32,1.32,0,0,1,.48.29l-.4.82a1.26,1.26,0,0,0-.35-.37.56.56,0,0,0-.33-.12.86.86,0,0,0-.36.08,1.11,1.11,0,0,0-.3.22,1.38,1.38,0,0,0-.2.33,1.34,1.34,0,0,0-.07.4V168h-.85Z"/><path class="cls-3" d="M140.32,164.47h.81v.36a1.21,1.21,0,0,1,.19-.2,1.2,1.2,0,0,1,.21-.13.74.74,0,0,1,.22-.08l.22,0a1.4,1.4,0,0,1,.58.12,1.26,1.26,0,0,1,.47.36,1.71,1.71,0,0,1,.32.6,2.66,2.66,0,0,1,.12.84,2.22,2.22,0,0,1-.12.77,1.54,1.54,0,0,1-.33.56,1.18,1.18,0,0,1-.47.33,1.34,1.34,0,0,1-.56.12,1,1,0,0,1-.44-.1,1,1,0,0,1-.37-.25v1.49h-.84Zm.85,1.72a2.79,2.79,0,0,0,.05.55,1.13,1.13,0,0,0,.13.38.63.63,0,0,0,.22.21.64.64,0,0,0,.28.06.8.8,0,0,0,.26,0,.76.76,0,0,0,.25-.19.89.89,0,0,0,.18-.35,1.6,1.6,0,0,0,.08-.53,1.57,1.57,0,0,0-.21-.88.65.65,0,0,0-.58-.3.54.54,0,0,0-.33.09.59.59,0,0,0-.2.24,1.2,1.2,0,0,0-.1.35A2.77,2.77,0,0,0,141.17,166.19Z"/></g><g id="Varm"><rect class="cls-6" x="106.93" y="112.01" width="53.44" height="24.43"/><rect class="cls-6" x="108.31" y="110.63" width="53.44" height="24.43"/><rect class="cls-6" x="109.69" y="109.25" width="53.44" height="24.43"/><path class="cls-3" d="M129.4,120.07h1a.15.15,0,0,1,0,.07l0,0,0,.06s0,0,0,.06l.8,2.24.34-1q.13-.37.24-.78a6.73,6.73,0,0,0,.18-.71h.81c-.06.25-.14.52-.22.79s-.19.54-.31.82l-.78,1.89h-.69Z"/><path class="cls-3" d="M133.53,120.57a1.75,1.75,0,0,1,1.33-.57,1.79,1.79,0,0,1,.59.08,1.11,1.11,0,0,1,.45.26,1.15,1.15,0,0,1,.28.45,1.81,1.81,0,0,1,.1.65v2.13h-.8v-.31a1.49,1.49,0,0,1-.47.29,1.37,1.37,0,0,1-.55.12,1.44,1.44,0,0,1-.53-.09,1,1,0,0,1-.37-.22.87.87,0,0,1-.22-.32,1.09,1.09,0,0,1-.07-.4,1,1,0,0,1,.45-.88,1.87,1.87,0,0,1,.55-.26,2.88,2.88,0,0,1,.76-.09h.44a.91.91,0,0,0-.16-.58.59.59,0,0,0-.48-.18,1.23,1.23,0,0,0-.87.47Zm1.66,1.47a2.88,2.88,0,0,0-.55,0,.84.84,0,0,0-.33.13.48.48,0,0,0-.17.18.52.52,0,0,0,0,.21.29.29,0,0,0,0,.16.38.38,0,0,0,.11.14.51.51,0,0,0,.16.09.64.64,0,0,0,.2,0,.75.75,0,0,0,.31-.06.92.92,0,0,0,.41-.32l.11-.15a.61.61,0,0,0,0-.17,2.1,2.1,0,0,0,0-.27Z"/><path class="cls-3" d="M137.38,120.07h.87v.38a1.66,1.66,0,0,1,.19-.18l.23-.14a1.09,1.09,0,0,1,.25-.1,1.24,1.24,0,0,1,.27,0,1.79,1.79,0,0,1,.57.09,1.32,1.32,0,0,1,.48.29l-.39.82a1.59,1.59,0,0,0-.36-.37.56.56,0,0,0-.33-.12.86.86,0,0,0-.36.08,1,1,0,0,0-.3.23,1.08,1.08,0,0,0-.2.33,1.23,1.23,0,0,0-.07.39v1.83h-.85Z"/><path class="cls-3" d="M140.71,123.57V120h.72v.22a1.2,1.2,0,0,1,.33-.25.75.75,0,0,1,.31-.08l.15,0,.15.07.15.13a1,1,0,0,1,.12.2A.89.89,0,0,1,143,120a.76.76,0,0,1,.38-.11.82.82,0,0,1,.34.07.51.51,0,0,1,.21.2,1,1,0,0,1,.12.33,3.23,3.23,0,0,1,0,.46v2.59h-.78v-2.44a1.07,1.07,0,0,0-.05-.42.17.17,0,0,0-.17-.13c-.19,0-.29.23-.29.69v2.3H142v-2.4a2.11,2.11,0,0,0,0-.3.56.56,0,0,0-.05-.18.22.22,0,0,0-.07-.09l-.08,0a.28.28,0,0,0-.13,0,.25.25,0,0,0-.09.11.52.52,0,0,0-.06.2,1.55,1.55,0,0,0,0,.33v2.32Z"/></g><g id="Obsm"><rect class="cls-7" x="71.75" y="36.1" width="29" height="64.88"/><rect class="cls-7" x="73.13" y="34.72" width="29" height="64.88"/><rect class="cls-7" x="74.51" y="33.38" width="29" height="64.88"/><path class="cls-3" d="M83.42,64.7a1.64,1.64,0,0,1,.63.12,1.35,1.35,0,0,1,.52.36,1.61,1.61,0,0,1,.35.58,2.36,2.36,0,0,1,.13.78,2.13,2.13,0,0,1-.13.78,1.51,1.51,0,0,1-.34.58,1.59,1.59,0,0,1-.52.37,1.75,1.75,0,0,1-.65.13,1.62,1.62,0,0,1-1.19-.52,1.89,1.89,0,0,1-.36-.58,2,2,0,0,1-.13-.74,2,2,0,0,1,.13-.74,1.69,1.69,0,0,1,.37-.59,1.55,1.55,0,0,1,.53-.39A1.51,1.51,0,0,1,83.42,64.7Zm.79,1.86a2,2,0,0,0-.06-.51,1.26,1.26,0,0,0-.17-.37.71.71,0,0,0-.26-.23.72.72,0,0,0-.32-.08.73.73,0,0,0-.33.08.71.71,0,0,0-.26.23,1.5,1.5,0,0,0-.16.36,2,2,0,0,0,0,1,1.25,1.25,0,0,0,.16.37.85.85,0,0,0,.26.24.77.77,0,0,0,.34.08.68.68,0,0,0,.58-.3A1.37,1.37,0,0,0,84.21,66.56Z"/><path class="cls-3" d="M85.64,63.21h.94s0,.06,0,.07l0,0,0,0a.14.14,0,0,0,0,.06v1.64a1.17,1.17,0,0,1,.38-.28,1.07,1.07,0,0,1,.43-.09,1.33,1.33,0,0,1,.56.11,1.18,1.18,0,0,1,.47.33,1.39,1.39,0,0,1,.32.54,2.26,2.26,0,0,1,.12.77,2.45,2.45,0,0,1-.13.85,1.74,1.74,0,0,1-.34.6,1.3,1.3,0,0,1-.48.37,1.37,1.37,0,0,1-.55.12,1.13,1.13,0,0,1-.51-.12,1.09,1.09,0,0,1-.41-.33l-.12.33h-.58Zm.83,3.27a2.9,2.9,0,0,0,0,.56,1.32,1.32,0,0,0,.13.37.49.49,0,0,0,.22.21.53.53,0,0,0,.28.07.62.62,0,0,0,.26-.06.64.64,0,0,0,.25-.19,1,1,0,0,0,.19-.35,1.94,1.94,0,0,0,.07-.53,2.34,2.34,0,0,0-.07-.57,1,1,0,0,0-.21-.39.87.87,0,0,0-.22-.17.76.76,0,0,0-.29-.05.54.54,0,0,0-.33.09.59.59,0,0,0-.2.24,1.2,1.2,0,0,0-.1.35A3,3,0,0,0,86.47,66.48Z"/><path class="cls-3" d="M91.94,65.91h0a.08.08,0,0,1,0,0s0,0,0-.06a.08.08,0,0,0,0,0,.81.81,0,0,0-.16-.16l-.22-.13a1.06,1.06,0,0,0-.25-.09,1.24,1.24,0,0,0-.27,0,.71.71,0,0,0-.21,0,.59.59,0,0,0-.19,0,.27.27,0,0,0-.12.09.25.25,0,0,0,0,.15.3.3,0,0,0,0,.16.58.58,0,0,0,.15.11,1.18,1.18,0,0,0,.25.1l.36.11a2.13,2.13,0,0,1,.92.45.85.85,0,0,1,.29.63,1,1,0,0,1-.1.45A1.52,1.52,0,0,1,92,68a1.43,1.43,0,0,1-.47.26,2,2,0,0,1-.62.1,2.18,2.18,0,0,1-.82-.15,2,2,0,0,1-.71-.45L89.8,67a.13.13,0,0,1,.07.06l0,.12a.75.75,0,0,0,.17.19,1.2,1.2,0,0,0,.25.16,1.39,1.39,0,0,0,.28.12,1,1,0,0,0,.28,0,1.17,1.17,0,0,0,.47-.08.28.28,0,0,0,.16-.26.33.33,0,0,0,0-.15.49.49,0,0,0-.12-.13.69.69,0,0,0-.21-.1,2.68,2.68,0,0,0-.31-.11l-.2-.06-.21-.07a2.42,2.42,0,0,1-.36-.17,1.24,1.24,0,0,1-.28-.22,1,1,0,0,1-.17-.27.9.9,0,0,1-.06-.34.75.75,0,0,1,.11-.37A1,1,0,0,1,90,65a1.37,1.37,0,0,1,.43-.24A1.69,1.69,0,0,1,91,64.7a1.78,1.78,0,0,1,.74.14,1.7,1.7,0,0,1,.63.46Z"/><path class="cls-3" d="M93,68.27V64.73h.72V65a1.2,1.2,0,0,1,.33-.25.79.79,0,0,1,.32-.08l.15,0,.15.07a.86.86,0,0,1,.14.13,1,1,0,0,1,.13.2.79.79,0,0,1,.32-.31.82.82,0,0,1,.39-.11.81.81,0,0,1,.33.07.6.6,0,0,1,.22.2,1,1,0,0,1,.11.34,2.07,2.07,0,0,1,0,.46v2.58h-.78V65.83a1.31,1.31,0,0,0,0-.42.17.17,0,0,0-.17-.13c-.2,0-.29.23-.29.69v2.3h-.77v-2.4a2.11,2.11,0,0,0,0-.3,1.06,1.06,0,0,0,0-.18l-.07-.09-.08,0a.28.28,0,0,0-.13,0,.27.27,0,0,0-.1.11,1.67,1.67,0,0,0-.06.2,2.92,2.92,0,0,0,0,.33v2.32Z"/></g><g id="Layers"><rect class="cls-8" x="106.93" y="36.15" width="53.44" height="64.88"/><rect class="cls-8" x="108.31" y="34.77" width="53.44" height="64.88"/><rect class="cls-9" x="109.69" y="33.46" width="53.44" height="64.88"/><path class="cls-3" d="M137.53,63.71h.87L137.23,66l1.32,2.4h-1l-.85-1.61-.83,1.61H135L136.26,66,135,63.71h.92l.81,1.53Z"/><path class="cls-10" d="M106.86,102.31h1.75v4.41h1v.65h-2.76v-.65h1V103h-.91Z"/><path class="cls-10" d="M110.62,104.37a1.75,1.75,0,0,1,1.33-.57,1.79,1.79,0,0,1,.59.08,1.11,1.11,0,0,1,.45.26,1.15,1.15,0,0,1,.28.45,1.81,1.81,0,0,1,.1.65v2.13h-.8v-.31a1.72,1.72,0,0,1-.47.3,1.54,1.54,0,0,1-.55.11,1.44,1.44,0,0,1-.53-.09,1,1,0,0,1-.37-.22.87.87,0,0,1-.22-.32,1.09,1.09,0,0,1-.07-.4,1,1,0,0,1,.45-.88,1.87,1.87,0,0,1,.55-.26,2.88,2.88,0,0,1,.76-.09h.44a.91.91,0,0,0-.16-.58.59.59,0,0,0-.48-.18,1.23,1.23,0,0,0-.87.47Zm1.66,1.47a2.88,2.88,0,0,0-.55,0,.84.84,0,0,0-.33.13.42.42,0,0,0-.17.18.52.52,0,0,0,0,.21.29.29,0,0,0,0,.16.38.38,0,0,0,.11.14.42.42,0,0,0,.16.09.64.64,0,0,0,.2,0,.75.75,0,0,0,.31-.06.92.92,0,0,0,.41-.32.77.77,0,0,0,.1-.15.49.49,0,0,0,0-.17,2.1,2.1,0,0,0,0-.27Z"/><path class="cls-10" d="M116,107.75a2.57,2.57,0,0,1-.22.44,1.92,1.92,0,0,1-.27.29,1.1,1.1,0,0,1-.32.17,1.26,1.26,0,0,1-1.27-.35l.42-.72s0,0,.06,0l0,.06a.64.64,0,0,1,0,.07l0,.08a.26.26,0,0,0,.12.13.38.38,0,0,0,.19,0,.41.41,0,0,0,.16,0,.5.5,0,0,0,.14-.12.7.7,0,0,0,.14-.21,1.72,1.72,0,0,0,.14-.33L114,103.87h1s0,0,0,.07,0,0,0,0,0,0,0,.06,0,0,0,.06l.78,2.18.34-.93c.05-.12.09-.25.14-.38s.08-.26.11-.39.07-.26.1-.38.06-.23.08-.34h.8c-.06.25-.13.52-.22.78s-.19.55-.31.83Z"/><path class="cls-10" d="M119.49,103.8a1.47,1.47,0,0,1,1.06.43,1.63,1.63,0,0,1,.32.53,2.19,2.19,0,0,1,.11.75v.18l0,.17h-2.29a1.29,1.29,0,0,0,.11.43,1,1,0,0,0,.22.3.8.8,0,0,0,.27.18.84.84,0,0,0,.31,0,1.1,1.1,0,0,0,.47-.1,1.2,1.2,0,0,0,.39-.32l.47.47a1.7,1.7,0,0,1-1.33.62,2,2,0,0,1-.7-.12,1.54,1.54,0,0,1-.55-.36,1.59,1.59,0,0,1-.36-.57,2.07,2.07,0,0,1-.14-.77,2.36,2.36,0,0,1,.13-.78,1.65,1.65,0,0,1,.35-.59,1.38,1.38,0,0,1,.52-.37A1.59,1.59,0,0,1,119.49,103.8Zm.66,1.44a1.06,1.06,0,0,0-.05-.31.92.92,0,0,0-.14-.26,1,1,0,0,0-.22-.18.72.72,0,0,0-.29-.06.88.88,0,0,0-.29,0,.72.72,0,0,0-.22.17.76.76,0,0,0-.16.26,1.14,1.14,0,0,0-.08.33Z"/><path class="cls-10" d="M122,103.87h.87v.38a1.37,1.37,0,0,1,.41-.32,1.39,1.39,0,0,1,.26-.1,1.24,1.24,0,0,1,.27,0,1.79,1.79,0,0,1,.57.09,1.32,1.32,0,0,1,.48.29l-.4.82a1.58,1.58,0,0,0-.35-.37.56.56,0,0,0-.33-.12,1,1,0,0,0-.37.08,1.05,1.05,0,0,0-.29.23,1.08,1.08,0,0,0-.2.33,1.23,1.23,0,0,0-.07.39v1.83H122Z"/><path class="cls-10" d="M128,105h0l0,0a.17.17,0,0,0,0,0,.43.43,0,0,1,0-.05,1.29,1.29,0,0,0-.17-.15,1.16,1.16,0,0,0-.22-.13,1.06,1.06,0,0,0-.25-.09l-.26,0h-.22a.76.76,0,0,0-.18.06.3.3,0,0,0-.13.09.24.24,0,0,0,0,.15.2.2,0,0,0,0,.15.31.31,0,0,0,.15.12.91.91,0,0,0,.24.1l.36.11a2.08,2.08,0,0,1,.92.45.82.82,0,0,1,.3.63,1.06,1.06,0,0,1-.11.45,1.17,1.17,0,0,1-.3.37,1.43,1.43,0,0,1-.47.26,2,2,0,0,1-.62.09,2.21,2.21,0,0,1-.82-.14,2,2,0,0,1-.7-.45l.43-.79a.11.11,0,0,1,.07.06l0,.12a.75.75,0,0,0,.17.19l.25.16a1.39,1.39,0,0,0,.28.12,1,1,0,0,0,.29,0,1.12,1.12,0,0,0,.46-.08.29.29,0,0,0,.17-.26.42.42,0,0,0,0-.16.45.45,0,0,0-.12-.12.75.75,0,0,0-.2-.1l-.32-.11-.2-.06-.2-.07a2.56,2.56,0,0,1-.37-.17,1.23,1.23,0,0,1-.27-.22.77.77,0,0,1-.17-.27.93.93,0,0,1-.06-.34.74.74,0,0,1,.1-.37,1.17,1.17,0,0,1,.29-.34,1.43,1.43,0,0,1,.44-.24,1.64,1.64,0,0,1,.56-.09,1.84,1.84,0,0,1,.74.14,1.7,1.7,0,0,1,.63.46Z"/></g><g id="var"><rect class="cls-11" x="109.69" y="0.25" width="53.44" height="24.43"/><path class="cls-3" d="M131.28,11.28h1a.13.13,0,0,1,0,.06v.06l0,0a.13.13,0,0,0,0,.06l.79,2.25.34-1c.09-.26.17-.52.25-.78s.13-.5.18-.71h.8c-.06.25-.13.51-.22.78s-.19.55-.3.82l-.78,1.9h-.69Z"/><path class="cls-3" d="M135.41,11.77a1.75,1.75,0,0,1,1.32-.57,2.23,2.23,0,0,1,.6.08,1.43,1.43,0,0,1,.45.26,1.23,1.23,0,0,1,.28.46,2,2,0,0,1,.1.65v2.13h-.81v-.32a1.4,1.4,0,0,1-.47.3,1.49,1.49,0,0,1-.54.11,1.71,1.71,0,0,1-.54-.08,1.06,1.06,0,0,1-.37-.23.87.87,0,0,1-.22-.32,1.34,1.34,0,0,1-.07-.39,1.06,1.06,0,0,1,.12-.5,1.14,1.14,0,0,1,.34-.39,1.64,1.64,0,0,1,.55-.25,2.86,2.86,0,0,1,.75-.09h.45a1,1,0,0,0-.16-.58.63.63,0,0,0-.49-.18,1.25,1.25,0,0,0-.87.46Zm1.65,1.48a2.18,2.18,0,0,0-.54,0,1,1,0,0,0-.33.13.44.44,0,0,0-.17.19.49.49,0,0,0-.05.2.47.47,0,0,0,0,.17.69.69,0,0,0,.11.13.46.46,0,0,0,.17.09.45.45,0,0,0,.2,0,.81.81,0,0,0,.31-.06A1,1,0,0,0,137,14l.17-.17.1-.16a.34.34,0,0,0,0-.16,2.16,2.16,0,0,0,0-.28Z"/><path class="cls-3" d="M139.26,11.28h.86v.38a1.07,1.07,0,0,1,.19-.18,1.14,1.14,0,0,1,.23-.15l.26-.1a1.18,1.18,0,0,1,.27,0,1.73,1.73,0,0,1,.56.09,1.32,1.32,0,0,1,.48.29l-.39.82a1.58,1.58,0,0,0-.35-.37.59.59,0,0,0-.34-.12.74.74,0,0,0-.36.09.77.77,0,0,0-.29.22.91.91,0,0,0-.2.33,1.05,1.05,0,0,0-.07.4v1.83h-.85Z"/></g><g id="Uns"><path class="cls-12" d="M24.59,159.27c0-.21,0-.49,0-.85s0-.72,0-1.1,0-.77,0-1.14,0-.69,0-1a7.09,7.09,0,0,0-.16-1.67,2.84,2.84,0,0,0-.46-1.05,1.63,1.63,0,0,0-.75-.55,3.13,3.13,0,0,0-1-.15H20.62v-3.63H22.3a2.27,2.27,0,0,0,1.87-.77,4,4,0,0,0,.62-2.5c0-.16,0-.4,0-.71s0-.64,0-1,0-.65,0-.94,0-.49,0-.6a7.23,7.23,0,0,1,1.95-5.5q1.95-1.86,5.84-1.86h3.31V138h-4a2.29,2.29,0,0,0-1.95.82,4,4,0,0,0-.63,2.45c0,.19,0,.43,0,.73s0,.61,0,.93,0,.61,0,.89,0,.49,0,.62a6.67,6.67,0,0,1-.76,3.23A6.24,6.24,0,0,1,26.42,150a5.54,5.54,0,0,1,1.13,1,6.7,6.7,0,0,1,1.47,3,8.14,8.14,0,0,1,.21,1.88c0,.15,0,.4,0,.77s0,.74,0,1.12,0,.72,0,1,0,.5,0,.55a4.32,4.32,0,0,0,.88,3,3.84,3.84,0,0,0,2.89.93h2.85v3.61H33.48c-.28,0-.69,0-1.25-.05s-1.14-.1-1.77-.2a14.72,14.72,0,0,1-1.86-.42,4.48,4.48,0,0,1-1.52-.73,5.68,5.68,0,0,1-1.87-2.54A10,10,0,0,1,24.59,159.27Z"/><path class="cls-12" d="M39.4,158.11a2.81,2.81,0,0,1,.21-1.08,2.55,2.55,0,0,1,.6-.88,3.26,3.26,0,0,1,.9-.59,3.11,3.11,0,0,1,1.16-.22,3.19,3.19,0,0,1,1.16.22,2.92,2.92,0,0,1,.91.59,2.55,2.55,0,0,1,.6.88,2.79,2.79,0,0,1,0,2.17,2.59,2.59,0,0,1-.6.89,2.77,2.77,0,0,1-.91.6,3.19,3.19,0,0,1-1.16.22,3.11,3.11,0,0,1-1.16-.22,3.08,3.08,0,0,1-.9-.6,2.59,2.59,0,0,1-.6-.89A2.82,2.82,0,0,1,39.4,158.11Zm6.78,0a2.81,2.81,0,0,1,.21-1.08,2.55,2.55,0,0,1,.6-.88,3.12,3.12,0,0,1,.9-.59,3.14,3.14,0,0,1,2.31,0,3,3,0,0,1,.92.59,2.86,2.86,0,0,1,.6.88,2.79,2.79,0,0,1,0,2.17,2.91,2.91,0,0,1-.6.89,2.82,2.82,0,0,1-.92.6,3.14,3.14,0,0,1-2.31,0,3,3,0,0,1-.9-.6,2.59,2.59,0,0,1-.6-.89A2.82,2.82,0,0,1,46.18,158.11Zm6.74,0a3,3,0,0,1,.2-1.08,2.67,2.67,0,0,1,.59-.88,3.17,3.17,0,0,1,.91-.59,3.06,3.06,0,0,1,1.15-.22,3,3,0,0,1,2.08.81,2.72,2.72,0,0,1,.61.88,2.79,2.79,0,0,1,0,2.17,2.77,2.77,0,0,1-.61.89,3,3,0,0,1-.93.6,3.14,3.14,0,0,1-1.15.22,3.06,3.06,0,0,1-1.15-.22,3,3,0,0,1-.91-.6,2.71,2.71,0,0,1-.59-.89A3,3,0,0,1,52.92,158.11Z"/><path class="cls-12" d="M74.26,159.27a10,10,0,0,1-.61,3.62,5.7,5.7,0,0,1-1.88,2.54,4.52,4.52,0,0,1-1.51.73,14.48,14.48,0,0,1-1.87.42c-.63.1-1.22.16-1.77.2s-1,.05-1.25.05H63.08v-3.61h2.85a3.83,3.83,0,0,0,2.89-.93,4.27,4.27,0,0,0,.88-3c0-.05,0-.24,0-.55s0-.66,0-1l0-1.12c0-.37,0-.62,0-.77a8.14,8.14,0,0,1,.21-1.88,7.57,7.57,0,0,1,.58-1.64A5.83,5.83,0,0,1,71.3,151a5.54,5.54,0,0,1,1.13-1,6.22,6.22,0,0,1-2.12-2.29,6.68,6.68,0,0,1-.77-3.23c0-.13,0-.34,0-.62s0-.58,0-.89,0-.63,0-.93,0-.54,0-.73a4,4,0,0,0-.63-2.45,2.27,2.27,0,0,0-1.94-.82H63v-3.69h3.31q3.89,0,5.84,1.86a7.24,7.24,0,0,1,2,5.5c0,.11,0,.3,0,.6s0,.61,0,.94,0,.67,0,1,0,.55,0,.71a4,4,0,0,0,.61,2.5,2.29,2.29,0,0,0,1.88.77h1.67v3.63H76.52a3.13,3.13,0,0,0-1,.15,1.66,1.66,0,0,0-.74.55,2.84,2.84,0,0,0-.46,1.05,7.75,7.75,0,0,0-.15,1.67c0,.27,0,.59,0,1s0,.75,0,1.14,0,.75,0,1.1S74.26,159.06,74.26,159.27Z"/><path class="cls-13" d="M46.89,134.06v3.08a1.5,1.5,0,0,0,0,.2c0,.07,0,.14,0,.22h-.81a.14.14,0,0,1-.06-.1.45.45,0,0,1,0-.11v-.12a.91.91,0,0,1-.19.2,1,1,0,0,1-.24.15.82.82,0,0,1-.26.1,1.15,1.15,0,0,1-.26,0,1.29,1.29,0,0,1-.49-.07,1,1,0,0,1-.37-.26,1.36,1.36,0,0,1-.23-.45,2.62,2.62,0,0,1-.08-.67v-2.19h.83v2.19a1,1,0,0,0,.14.59.44.44,0,0,0,.36.19.73.73,0,0,0,.3-.07.69.69,0,0,0,.24-.18.88.88,0,0,0,.16-.27,1.29,1.29,0,0,0,0-.35v-2.1Z"/><path class="cls-13" d="M47.8,137.56v-3.5h.84v.36a1.66,1.66,0,0,1,.43-.32,1.07,1.07,0,0,1,.49-.12,1.51,1.51,0,0,1,.48.08,1,1,0,0,1,.37.26,1.06,1.06,0,0,1,.23.45,2.1,2.1,0,0,1,.09.66v2.13H49.9v-2.12a1.13,1.13,0,0,0,0-.34.67.67,0,0,0-.1-.24.42.42,0,0,0-.16-.14.45.45,0,0,0-.2,0,.73.73,0,0,0-.3.06.69.69,0,0,0-.24.18.88.88,0,0,0-.16.27,1.29,1.29,0,0,0,0,.35v2Z"/><path class="cls-13" d="M54,135.18l-.05,0,0,0a.43.43,0,0,1,0-.05s0,0,0,0a.63.63,0,0,0-.17-.15.74.74,0,0,0-.21-.13,1.23,1.23,0,0,0-.52-.12h-.22a.48.48,0,0,0-.18.06.27.27,0,0,0-.12.09.25.25,0,0,0,0,.3.31.31,0,0,0,.15.12,1.18,1.18,0,0,0,.25.1l.35.1a2.37,2.37,0,0,1,.93.45.85.85,0,0,1,.29.63,1,1,0,0,1-.1.45,1.2,1.2,0,0,1-.3.38,1.63,1.63,0,0,1-.47.26,2,2,0,0,1-.62.09,2.21,2.21,0,0,1-.82-.14,2,2,0,0,1-.7-.45l.43-.78s0,0,.07.05l0,.13a.94.94,0,0,0,.17.18,1.53,1.53,0,0,0,.25.16,1.39,1.39,0,0,0,.28.12,1,1,0,0,0,.28,0,1,1,0,0,0,.47-.09.26.26,0,0,0,.16-.26.4.4,0,0,0,0-.15.68.68,0,0,0-.12-.12,1,1,0,0,0-.21-.11l-.31-.1-.21-.06-.2-.07a2.56,2.56,0,0,1-.37-.17,1.44,1.44,0,0,1-.27-.22,1,1,0,0,1-.17-.27.9.9,0,0,1-.06-.34.74.74,0,0,1,.1-.37,1.17,1.17,0,0,1,.29-.34,1.43,1.43,0,0,1,.44-.24,1.64,1.64,0,0,1,.56-.1,2,2,0,0,1,.74.14,1.73,1.73,0,0,1,.63.47Z"/></g><g id="var_names_horizontal" data-name="var_names horizontal"><g class="cls-14"><line class="cls-15" x1="109.41" y1="28.94" x2="163.42" y2="28.94"/></g><g class="cls-16"><rect class="cls-3" x="125.07" y="25.82" width="23.29" height="5.35"/><path class="cls-17" d="M126.69,28h.61s0,0,0,0v.07s0,0,0,0l.48,1.35.21-.59c0-.16.1-.31.14-.47s.08-.3.11-.43h.48a4.77,4.77,0,0,1-.13.47,5,5,0,0,1-.18.5l-.47,1.14h-.41Z"/><path class="cls-17" d="M129.17,28.27a1,1,0,0,1,.79-.34,1,1,0,0,1,.36.05.59.59,0,0,1,.27.15.73.73,0,0,1,.17.27,1.14,1.14,0,0,1,.06.39v1.29h-.48v-.19a.92.92,0,0,1-.29.17.71.71,0,0,1-.32.07,1,1,0,0,1-.32-.05.73.73,0,0,1-.23-.13.53.53,0,0,1-.13-.2.59.59,0,0,1,0-.23.6.6,0,0,1,.07-.3.55.55,0,0,1,.2-.23,1,1,0,0,1,.33-.16,2.09,2.09,0,0,1,.46,0h.26a.54.54,0,0,0-.09-.35.38.38,0,0,0-.29-.11.74.74,0,0,0-.53.28Zm1,.89a1,1,0,0,0-.32,0,.57.57,0,0,0-.2.07s-.09.07-.1.12a.27.27,0,0,0,0,.12.3.3,0,0,0,0,.1.27.27,0,0,0,.07.08l.1,0a.21.21,0,0,0,.12,0,.48.48,0,0,0,.18,0,.54.54,0,0,0,.15-.09l.1-.1a.37.37,0,0,0,.06-.1.41.41,0,0,0,0-.1s0-.09,0-.16Z"/><path class="cls-17" d="M131.48,28H132v.23l.12-.11.13-.09.16-.05a.41.41,0,0,1,.16,0,1,1,0,0,1,.34.05.88.88,0,0,1,.29.18l-.24.49a.74.74,0,0,0-.21-.22.34.34,0,0,0-.2-.08.54.54,0,0,0-.22,0,.79.79,0,0,0-.18.14.43.43,0,0,0-.11.2.59.59,0,0,0,0,.23v1.11h-.51Z"/><path class="cls-17" d="M133.47,30.11h2v.42h-2Z"/><path class="cls-17" d="M135.86,30.08V28h.51v.22a.76.76,0,0,1,.25-.19.66.66,0,0,1,.3-.07.92.92,0,0,1,.29,0,.63.63,0,0,1,.36.43,1.5,1.5,0,0,1,.05.4v1.28h-.5V28.8a1.25,1.25,0,0,0,0-.21l-.06-.14a.25.25,0,0,0-.1-.08.21.21,0,0,0-.12,0,.39.39,0,0,0-.18,0,.45.45,0,0,0-.14.1.69.69,0,0,0-.1.17.66.66,0,0,0,0,.21v1.22Z"/><path class="cls-17" d="M138.18,28.27a1.16,1.16,0,0,1,1.16-.29.72.72,0,0,1,.27.15.61.61,0,0,1,.16.27,1.14,1.14,0,0,1,.06.39v1.29h-.48v-.19a.88.88,0,0,1-.28.17.78.78,0,0,1-.33.07,1,1,0,0,1-.32-.05.67.67,0,0,1-.22-.13.44.44,0,0,1-.13-.2.59.59,0,0,1,0-.23.73.73,0,0,1,.07-.3.66.66,0,0,1,.21-.23,1,1,0,0,1,.33-.16,2,2,0,0,1,.45,0h.27a.54.54,0,0,0-.1-.35.37.37,0,0,0-.29-.11.72.72,0,0,0-.52.28Zm1,.89a1.1,1.1,0,0,0-.33,0,.77.77,0,0,0-.2.07.28.28,0,0,0-.1.12.27.27,0,0,0,0,.12.17.17,0,0,0,0,.1.16.16,0,0,0,.06.08.31.31,0,0,0,.1,0,.27.27,0,0,0,.12,0,.58.58,0,0,0,.19,0,.67.67,0,0,0,.14-.09.47.47,0,0,0,.1-.1l.07-.1a.22.22,0,0,0,0-.1.71.71,0,0,0,0-.16Z"/><path class="cls-17" d="M140.24,30.08V28h.43v.13a.8.8,0,0,1,.2-.15.49.49,0,0,1,.19-.05h.09l.09.05a.28.28,0,0,1,.09.07.75.75,0,0,1,.07.12.49.49,0,0,1,.2-.18.41.41,0,0,1,.23-.07.4.4,0,0,1,.2,0,.3.3,0,0,1,.13.12.59.59,0,0,1,.07.2,2.3,2.3,0,0,1,0,.28v1.56h-.47V28.61a.79.79,0,0,0,0-.26.1.1,0,0,0-.1-.07c-.12,0-.17.14-.17.41v1.39H141V28.63a.87.87,0,0,0,0-.18.81.81,0,0,0,0-.11l0-.05h-.05a.12.12,0,0,0-.08,0,.1.1,0,0,0-.05.06.34.34,0,0,0,0,.12,1.15,1.15,0,0,0,0,.2v1.4Z"/><path class="cls-17" d="M143.51,27.93a1,1,0,0,1,.35.06.84.84,0,0,1,.29.2.91.91,0,0,1,.19.32,1.2,1.2,0,0,1,.07.44v.21H143a.71.71,0,0,0,.07.27.57.57,0,0,0,.12.18.61.61,0,0,0,.36.14.72.72,0,0,0,.28-.07.6.6,0,0,0,.23-.19l.28.28a1,1,0,0,1-.79.38,1.16,1.16,0,0,1-.42-.08.93.93,0,0,1-.33-.21.91.91,0,0,1-.22-.35,1.11,1.11,0,0,1-.08-.46,1.41,1.41,0,0,1,.07-.47.93.93,0,0,1,.21-.35,1,1,0,0,1,.31-.23A1.09,1.09,0,0,1,143.51,27.93Zm.4.86a.57.57,0,0,0,0-.18.42.42,0,0,0-.09-.16.37.37,0,0,0-.3-.15.53.53,0,0,0-.18,0,.41.41,0,0,0-.13.1.56.56,0,0,0-.1.15,1.17,1.17,0,0,0-.05.2Z"/><path class="cls-17" d="M146.36,28.66h0v-.06s0,0,0,0l-.1-.09a.57.57,0,0,0-.13-.08l-.15-.05a.47.47,0,0,0-.16,0h-.13a.2.2,0,0,0-.11,0,.16.16,0,0,0-.08.06.19.19,0,0,0,0,.08.17.17,0,0,0,0,.1.29.29,0,0,0,.08.07l.15.06.22.06a1.34,1.34,0,0,1,.55.27.51.51,0,0,1,.18.38.52.52,0,0,1-.07.27.66.66,0,0,1-.18.23.92.92,0,0,1-.28.15,1.06,1.06,0,0,1-.37.06,1.3,1.3,0,0,1-.49-.09,1.08,1.08,0,0,1-.42-.27l.26-.47a.05.05,0,0,1,0,0,.34.34,0,0,1,0,.08l.1.11.15.1.17.07.17,0a.56.56,0,0,0,.28-.05.18.18,0,0,0,.1-.15.3.3,0,0,0,0-.1.46.46,0,0,0-.07-.07l-.13-.06-.19-.07-.12,0-.12,0-.22-.11a.76.76,0,0,1-.17-.13.86.86,0,0,1-.1-.16.66.66,0,0,1,0-.21.46.46,0,0,1,.06-.22.65.65,0,0,1,.17-.2,1,1,0,0,1,.27-.15.88.88,0,0,1,.33-.05,1.12,1.12,0,0,1,.45.08,1.07,1.07,0,0,1,.37.28Z"/></g></g><g id="obs_names_horizontal" data-name="obs_names horizontal"><g class="cls-18"><line class="cls-19" x1="3.29" y1="28.81" x2="67.65" y2="28.81"/></g><g class="cls-20"><rect class="cls-3" x="23.2" y="25.58" width="24.53" height="5.35"/><path class="cls-21" d="M26.47,27.75a1,1,0,0,1,.38.08,1,1,0,0,1,.31.21,1.13,1.13,0,0,1,.21.35,1.4,1.4,0,0,1,.08.47,1.36,1.36,0,0,1-.08.47.92.92,0,0,1-.2.35.84.84,0,0,1-.31.22,1,1,0,0,1-.4.08.86.86,0,0,1-.39-.09,1,1,0,0,1-.32-.22,1.15,1.15,0,0,1-.22-.35,1.33,1.33,0,0,1-.08-.45,1.23,1.23,0,0,1,.08-.44,1.28,1.28,0,0,1,.22-.36.94.94,0,0,1,.33-.23A.86.86,0,0,1,26.47,27.75ZM27,28.87a1.36,1.36,0,0,0,0-.3.7.7,0,0,0-.1-.23.48.48,0,0,0-.16-.13.32.32,0,0,0-.19-.05.33.33,0,0,0-.2.05.37.37,0,0,0-.15.13.74.74,0,0,0-.1.22,1.27,1.27,0,0,0,0,.29,1.36,1.36,0,0,0,0,.3.55.55,0,0,0,.1.22.4.4,0,0,0,.15.14.35.35,0,0,0,.2,0,.45.45,0,0,0,.36-.17A.92.92,0,0,0,27,28.87Z"/><path class="cls-21" d="M27.8,26.86h.57s0,0,0,0,0,0,0,0l0,0a0,0,0,0,0,0,0v1a.66.66,0,0,1,.23-.17.58.58,0,0,1,.26-.06.75.75,0,0,1,.33.07.72.72,0,0,1,.29.2,1,1,0,0,1,.19.33,1.27,1.27,0,0,1,.07.46,1.37,1.37,0,0,1-.08.51,1.25,1.25,0,0,1-.2.36.86.86,0,0,1-.29.22.78.78,0,0,1-.33.07.71.71,0,0,1-.56-.27l-.07.2H27.8Zm.5,2a1.55,1.55,0,0,0,0,.33,1,1,0,0,0,.08.23.37.37,0,0,0,.13.12.33.33,0,0,0,.17,0,.45.45,0,0,0,.16,0A.79.79,0,0,0,29,29.4a.68.68,0,0,0,.11-.21.93.93,0,0,0,0-.31,1.2,1.2,0,0,0,0-.35A.62.62,0,0,0,29,28.3a.38.38,0,0,0-.13-.1.34.34,0,0,0-.18,0,.32.32,0,0,0-.2.06.33.33,0,0,0-.12.14.65.65,0,0,0-.06.21A2.28,2.28,0,0,0,28.3,28.83Z"/><path class="cls-21" d="M31.59,28.48h0a0,0,0,0,1,0,0v0a0,0,0,0,1,0,0l-.1-.09-.13-.08-.16-.06-.15,0h-.13l-.11,0a.16.16,0,0,0-.08,0,.16.16,0,0,0,0,.09.17.17,0,0,0,0,.1l.09.07.15.06.22.06a1.34,1.34,0,0,1,.55.27.49.49,0,0,1,.18.38.54.54,0,0,1-.07.27.63.63,0,0,1-.18.22.85.85,0,0,1-.28.16A1.06,1.06,0,0,1,31,30a1.3,1.3,0,0,1-.49-.09,1.54,1.54,0,0,1-.43-.27l.26-.47s0,0,0,0l0,.07a.35.35,0,0,0,.1.12l.15.09a.83.83,0,0,0,.34.1.7.7,0,0,0,.28,0,.19.19,0,0,0,.1-.16.16.16,0,0,0,0-.09.12.12,0,0,0-.07-.07.35.35,0,0,0-.12-.07l-.19-.06-.12,0L30.7,29a.9.9,0,0,1-.22-.1.76.76,0,0,1-.17-.13.59.59,0,0,1-.1-.17.64.64,0,0,1,0-.2.46.46,0,0,1,.06-.22.68.68,0,0,1,.17-.21.92.92,0,0,1,.26-.14,1,1,0,0,1,.34-.06,1,1,0,0,1,.44.09,1,1,0,0,1,.38.28Z"/><path class="cls-21" d="M32.22,29.94h2v.42h-2Z"/><path class="cls-21" d="M34.61,29.9V27.8h.51V28a1.18,1.18,0,0,1,.25-.19.82.82,0,0,1,.3-.07.93.93,0,0,1,.29.05.54.54,0,0,1,.22.15.69.69,0,0,1,.14.27,1.64,1.64,0,0,1,0,.41V29.9h-.5V28.63a1.25,1.25,0,0,0,0-.21,1,1,0,0,0-.06-.14.19.19,0,0,0-.1-.08.21.21,0,0,0-.12,0,.39.39,0,0,0-.18,0,.45.45,0,0,0-.14.1.69.69,0,0,0-.1.17.66.66,0,0,0,0,.21V29.9Z"/><path class="cls-21" d="M36.93,28.1a1.06,1.06,0,0,1,.8-.35,1.36,1.36,0,0,1,.36.05.92.92,0,0,1,.27.16.61.61,0,0,1,.16.27,1.14,1.14,0,0,1,.06.39V29.9H38.1v-.19a.75.75,0,0,1-.28.18.78.78,0,0,1-.33.07,1,1,0,0,1-.32-.05.67.67,0,0,1-.22-.13.49.49,0,0,1-.13-.2.64.64,0,0,1,0-.24.73.73,0,0,1,.07-.29.79.79,0,0,1,.21-.24,1.26,1.26,0,0,1,.33-.15,1.53,1.53,0,0,1,.45-.06h.27a.51.51,0,0,0-.1-.34.34.34,0,0,0-.29-.11.72.72,0,0,0-.52.28Zm1,.88a1.48,1.48,0,0,0-.33,0,.52.52,0,0,0-.2.07.26.26,0,0,0-.1.11.35.35,0,0,0,0,.13.19.19,0,0,0,0,.1.21.21,0,0,0,.06.08l.1.05a.25.25,0,0,0,.12,0,.58.58,0,0,0,.19,0l.14-.09a.35.35,0,0,0,.1-.11l.07-.09a.25.25,0,0,0,0-.1.76.76,0,0,0,0-.16Z"/><path class="cls-21" d="M39,29.9V27.77h.43v.14a.8.8,0,0,1,.2-.15.36.36,0,0,1,.19-.05h.09l.09,0,.09.08a.35.35,0,0,1,.07.12.61.61,0,0,1,.2-.19.49.49,0,0,1,.23-.06.4.4,0,0,1,.2,0,.3.3,0,0,1,.13.12.52.52,0,0,1,.07.2,2.16,2.16,0,0,1,0,.28V29.9h-.47V28.43a.77.77,0,0,0,0-.25.1.1,0,0,0-.1-.07c-.12,0-.17.13-.17.41V29.9h-.47V28.46a.87.87,0,0,0,0-.18.53.53,0,0,0,0-.11.11.11,0,0,0,0-.05h-.13a.18.18,0,0,0,0,.07.34.34,0,0,0,0,.12,1.15,1.15,0,0,0,0,.2V29.9Z"/><path class="cls-21" d="M42.26,27.75a.93.93,0,0,1,.64.26,1.06,1.06,0,0,1,.19.33,1.16,1.16,0,0,1,.07.44V29H41.77a.66.66,0,0,0,.07.26.41.41,0,0,0,.12.18.45.45,0,0,0,.17.11.58.58,0,0,0,.19,0,.62.62,0,0,0,.51-.25l.28.28a1,1,0,0,1-.79.38,1.16,1.16,0,0,1-.42-.08.93.93,0,0,1-.33-.21.91.91,0,0,1-.22-.35,1.14,1.14,0,0,1-.08-.46,1.41,1.41,0,0,1,.07-.47,1.07,1.07,0,0,1,.21-.36,1,1,0,0,1,.31-.22A1.1,1.1,0,0,1,42.26,27.75Zm.4.87a.63.63,0,0,0,0-.19.38.38,0,0,0-.09-.15.35.35,0,0,0-.13-.11.33.33,0,0,0-.17,0,.37.37,0,0,0-.18,0,.31.31,0,0,0-.13.1.56.56,0,0,0-.1.15,1.17,1.17,0,0,0,0,.2Z"/><path class="cls-21" d="M45.11,28.48h0a0,0,0,0,1,0,0v0s0,0,0,0L45,28.3a.57.57,0,0,0-.13-.08l-.15-.06-.16,0h-.13l-.11,0-.08,0a.29.29,0,0,0,0,.09.17.17,0,0,0,0,.1l.08.07.15.06.22.06a1.34,1.34,0,0,1,.55.27.49.49,0,0,1,.18.38.54.54,0,0,1-.07.27.63.63,0,0,1-.18.22.76.76,0,0,1-.28.16,1.06,1.06,0,0,1-.37.06,1.3,1.3,0,0,1-.49-.09,1.37,1.37,0,0,1-.42-.27l.26-.47a.05.05,0,0,1,0,0l0,.07a.53.53,0,0,0,.1.12l.15.09a.51.51,0,0,0,.17.07l.17,0a.7.7,0,0,0,.28,0,.19.19,0,0,0,.1-.16.29.29,0,0,0,0-.09.23.23,0,0,0-.07-.07l-.13-.07-.19-.06-.12,0L44.22,29a1.12,1.12,0,0,1-.22-.1.76.76,0,0,1-.17-.13,1,1,0,0,1-.1-.17.64.64,0,0,1,0-.2.46.46,0,0,1,.06-.22.68.68,0,0,1,.17-.21,1,1,0,0,1,.27-.14.88.88,0,0,1,.33-.06,1.13,1.13,0,0,1,.45.09,1.07,1.07,0,0,1,.37.28Z"/></g></g><g id="var_names_vertical" data-name="var_names  vertical"><g class="cls-22"><line class="cls-15" x1="166.94" y1="138.67" x2="166.94" y2="192.68"/></g><line class="cls-3" x1="164.7" y1="154.33" x2="170.06" y2="154.33"/><line class="cls-1" x1="171.4" y1="152.84" x2="163.36" y2="152.84"/><g class="cls-23"><g class="cls-24"><rect class="cls-3" x="164.7" y="154.33" width="5.35" height="23.29"/><path class="cls-25" d="M167.82,155.94v.61h-.14l-1.35.48.59.2.47.15.43.11v.48l-.47-.13a3.41,3.41,0,0,1-.5-.19l-1.14-.46v-.42Z"/><path class="cls-25" d="M167.52,158.42a1.07,1.07,0,0,1,.34.8,1,1,0,0,1-.05.36.72.72,0,0,1-.15.27.83.83,0,0,1-.27.17,1.16,1.16,0,0,1-.4.06h-1.28v-.49h.19a1,1,0,0,1-.24-.61,1,1,0,0,1,.05-.32.67.67,0,0,1,.13-.22.53.53,0,0,1,.2-.13.59.59,0,0,1,.23,0,.73.73,0,0,1,.3.06.66.66,0,0,1,.23.21,1,1,0,0,1,.16.33,2,2,0,0,1,0,.45v.27a.54.54,0,0,0,.35-.1.37.37,0,0,0,.11-.29.78.78,0,0,0-.28-.52Zm-.89,1a1.12,1.12,0,0,0,0-.33.52.52,0,0,0-.08-.2.21.21,0,0,0-.11-.1l-.12,0a.17.17,0,0,0-.1,0,.18.18,0,0,0-.08.07.26.26,0,0,0-.05.09.27.27,0,0,0,0,.12.58.58,0,0,0,0,.19.42.42,0,0,0,.09.14l.1.11.1.06a.22.22,0,0,0,.1,0h.16Z"/><path class="cls-25" d="M167.82,160.74v.52h-.23l.11.11a1,1,0,0,1,.08.14.47.47,0,0,1,.06.15.5.5,0,0,1,0,.17,1,1,0,0,1-.05.34.84.84,0,0,1-.18.28l-.49-.23a1.13,1.13,0,0,0,.22-.21.37.37,0,0,0,.08-.21.5.5,0,0,0-.05-.21.62.62,0,0,0-.14-.18.56.56,0,0,0-.2-.12.61.61,0,0,0-.24,0h-1.1v-.51Z"/><path class="cls-25" d="M165.68,162.72v2h-.42v-2Z"/><path class="cls-25" d="M165.71,165.12h2.11v.51h-.22a.79.79,0,0,1,.19.25.66.66,0,0,1,.07.3.82.82,0,0,1,0,.28.6.6,0,0,1-.16.22.7.7,0,0,1-.27.15,1.5,1.5,0,0,1-.4,0h-1.28v-.5H167l.21,0,.14-.07a.18.18,0,0,0,.08-.09.27.27,0,0,0,0-.12.34.34,0,0,0,0-.18.36.36,0,0,0-.1-.14.48.48,0,0,0-.17-.1.66.66,0,0,0-.21,0h-1.22Z"/><path class="cls-25" d="M167.52,167.44a1.05,1.05,0,0,1,.34.8,1,1,0,0,1-.05.35.59.59,0,0,1-.15.27.69.69,0,0,1-.27.17,1.16,1.16,0,0,1-.4.06h-1.28v-.48h.19a.88.88,0,0,1-.17-.28.78.78,0,0,1-.07-.33,1,1,0,0,1,.05-.32.73.73,0,0,1,.13-.23.53.53,0,0,1,.2-.13.59.59,0,0,1,.23,0,.6.6,0,0,1,.3.07.63.63,0,0,1,.23.2,1,1,0,0,1,.16.33,2.16,2.16,0,0,1,0,.46v.26a.54.54,0,0,0,.35-.09.37.37,0,0,0,.11-.29.79.79,0,0,0-.28-.53Zm-.89,1a1,1,0,0,0,0-.32.46.46,0,0,0-.08-.2.21.21,0,0,0-.11-.1.27.27,0,0,0-.12,0l-.1,0a.27.27,0,0,0-.08.07.31.31,0,0,0-.05.1.27.27,0,0,0,0,.12.48.48,0,0,0,0,.18.38.38,0,0,0,.09.15.94.94,0,0,0,.1.1l.1.06.1,0h.16Z"/><path class="cls-25" d="M165.71,169.5h2.13v.43h-.13a.65.65,0,0,1,.15.2.49.49,0,0,1,0,.19s0,.05,0,.09a.41.41,0,0,1-.05.09l-.07.09-.12.07a.54.54,0,0,1,.18.19.44.44,0,0,1,.07.24.54.54,0,0,1,0,.2.37.37,0,0,1-.12.13l-.2.07-.28,0h-1.56V171h1.47a.79.79,0,0,0,.26,0,.1.1,0,0,0,.07-.1c0-.12-.14-.18-.41-.18h-1.39v-.46h1.63l.11,0,.05,0a.06.06,0,0,0,0,0,.11.11,0,0,0,0-.08l-.06-.06a.35.35,0,0,0-.12,0l-.2,0h-1.4Z"/><path class="cls-25" d="M167.86,172.77a1,1,0,0,1-.06.35.93.93,0,0,1-.52.48,1.45,1.45,0,0,1-.44.07h-.21v-1.38l-.27.07a.83.83,0,0,0-.18.13.61.61,0,0,0-.14.35.68.68,0,0,0,.07.28.57.57,0,0,0,.19.24l-.28.28a1,1,0,0,1-.38-.8,1.09,1.09,0,0,1,.29-.75,1.23,1.23,0,0,1,.35-.22,1.3,1.3,0,0,1,.46-.08,1.4,1.4,0,0,1,.47.08.93.93,0,0,1,.35.21,1,1,0,0,1,.23.31A1,1,0,0,1,167.86,172.77Zm-.87.39a.58.58,0,0,0,.19,0,.48.48,0,0,0,.16-.08.69.69,0,0,0,.11-.13.48.48,0,0,0,0-.18.47.47,0,0,0,0-.17.32.32,0,0,0-.1-.13.56.56,0,0,0-.15-.1l-.21-.05Z"/><path class="cls-25" d="M167.13,175.62v0h.09l.09-.1.08-.13a.75.75,0,0,0,0-.16.41.41,0,0,0,0-.16.62.62,0,0,0,0-.13.17.17,0,0,0,0-.1.12.12,0,0,0-.06-.08.11.11,0,0,0-.08,0,.17.17,0,0,0-.1,0,.35.35,0,0,0-.07.09,1.16,1.16,0,0,0-.06.15q0,.09-.06.21a1.33,1.33,0,0,1-.27.56.51.51,0,0,1-.38.18.6.6,0,0,1-.27-.07.66.66,0,0,1-.23-.18,1.06,1.06,0,0,1-.15-.28,1.1,1.1,0,0,1-.06-.37,1.3,1.3,0,0,1,.09-.49,1.11,1.11,0,0,1,.27-.43l.47.26s0,0,0,0l-.08,0a.33.33,0,0,0-.11.1,1,1,0,0,0-.1.15.87.87,0,0,0-.07.17,1,1,0,0,0,0,.17.56.56,0,0,0,.05.28.19.19,0,0,0,.25.07.15.15,0,0,0,.07-.07l.06-.12s0-.12.07-.19l0-.12s0-.08,0-.12a.9.9,0,0,1,.11-.22.76.76,0,0,1,.13-.17.54.54,0,0,1,.16-.1.65.65,0,0,1,.21,0,.38.38,0,0,1,.22.07.65.65,0,0,1,.2.17.86.86,0,0,1,.2.6,1,1,0,0,1-.08.44,1,1,0,0,1-.28.38Z"/></g></g></g><g id="obs_names_vertical" data-name="obs_names vertical"><g class="cls-26"><g class="cls-27"><line class="cls-19" x1="166.94" y1="33.17" x2="166.94" y2="98.62"/></g></g><g class="cls-28"><g class="cls-27"><rect class="cls-3" x="164.7" y="54" width="5.35" height="24.53"/><path class="cls-21" d="M167.86,57.27a1,1,0,0,1-.07.38.84.84,0,0,1-.22.31.93.93,0,0,1-.35.21,1.3,1.3,0,0,1-.46.08,1.32,1.32,0,0,1-.47-.08,1.07,1.07,0,0,1-.35-.2.87.87,0,0,1-.22-.32,1,1,0,0,1,0-.78.94.94,0,0,1,.23-.32,1,1,0,0,1,.35-.22,1.29,1.29,0,0,1,.45-.08,1.19,1.19,0,0,1,.8.3,1.24,1.24,0,0,1,.23.32A.92.92,0,0,1,167.86,57.27Zm-1.11.47a1.39,1.39,0,0,0,.3,0,.9.9,0,0,0,.22-.1.52.52,0,0,0,.14-.16.46.46,0,0,0,.05-.2.41.41,0,0,0-.05-.19.52.52,0,0,0-.14-.16.67.67,0,0,0-.21-.09,1,1,0,0,0-.3,0,.92.92,0,0,0-.29,0,.63.63,0,0,0-.22.09.75.75,0,0,0-.15.16.46.46,0,0,0,0,.2.4.4,0,0,0,.18.35A.85.85,0,0,0,166.75,57.74Z"/><path class="cls-21" d="M168.76,58.6v.57h0l0,0,0,0h-1a.72.72,0,0,1,.17.22.6.6,0,0,1,.05.26,1,1,0,0,1-.06.34.8.8,0,0,1-.2.28.91.91,0,0,1-.33.2,1.27,1.27,0,0,1-.46.07,1.6,1.6,0,0,1-.51-.08,1,1,0,0,1-.36-.2,1,1,0,0,1-.22-.29.8.8,0,0,1-.07-.34.66.66,0,0,1,.07-.3.6.6,0,0,1,.2-.25l-.21-.07V58.6Zm-2,.5a1.55,1.55,0,0,0-.33,0,1,1,0,0,0-.23.08.29.29,0,0,0-.12.13.33.33,0,0,0,0,.17.5.5,0,0,0,0,.16.4.4,0,0,0,.12.15.75.75,0,0,0,.2.11,1,1,0,0,0,.32,0,1.2,1.2,0,0,0,.35,0,.58.58,0,0,0,.23-.13.41.41,0,0,0,.1-.13.4.4,0,0,0,0-.17.31.31,0,0,0,0-.2.31.31,0,0,0-.15-.12.65.65,0,0,0-.21-.06Z"/><path class="cls-21" d="M167.13,62.39v0l0,0h.06a.45.45,0,0,0,.09-.1.41.41,0,0,0,.08-.13.53.53,0,0,0,0-.15.41.41,0,0,0,0-.16.57.57,0,0,0,0-.13.2.2,0,0,0,0-.11.13.13,0,0,0-.06-.07.11.11,0,0,0-.08,0,.17.17,0,0,0-.1,0,.35.35,0,0,0-.07.09,1.16,1.16,0,0,0-.06.15q0,.09-.06.21a1.39,1.39,0,0,1-.27.56.5.5,0,0,1-.38.17.6.6,0,0,1-.27-.06.66.66,0,0,1-.23-.18,1.06,1.06,0,0,1-.15-.28,1.1,1.1,0,0,1-.06-.37,1.35,1.35,0,0,1,.09-.5,1.08,1.08,0,0,1,.27-.42l.47.26s0,0,0,0l-.08,0a.33.33,0,0,0-.11.1l-.1.14a1.22,1.22,0,0,0-.07.17,1.11,1.11,0,0,0,0,.17.52.52,0,0,0,.05.28.16.16,0,0,0,.15.1.16.16,0,0,0,.1,0l.07-.07.06-.12s0-.12.07-.19l0-.12,0-.13a1.51,1.51,0,0,1,.11-.22.7.7,0,0,1,.13-.16A.54.54,0,0,1,167,61a.46.46,0,0,1,.21,0,.38.38,0,0,1,.22.07.54.54,0,0,1,.2.17.93.93,0,0,1,.15.26.9.9,0,0,1,.05.34,1,1,0,0,1-.08.44,1,1,0,0,1-.28.38Z"/><path class="cls-21" d="M165.68,63v2h-.42V63Z"/><path class="cls-21" d="M165.71,65.41h2.11v.51h-.22a.79.79,0,0,1,.19.25.66.66,0,0,1,.07.3.82.82,0,0,1,0,.28.73.73,0,0,1-.16.23.86.86,0,0,1-.27.14,1.5,1.5,0,0,1-.4,0h-1.28v-.5H167l.21,0a.61.61,0,0,0,.14-.07.18.18,0,0,0,.08-.09.27.27,0,0,0,0-.12.34.34,0,0,0,0-.18.36.36,0,0,0-.1-.14.48.48,0,0,0-.17-.1.66.66,0,0,0-.21,0h-1.22Z"/><path class="cls-21" d="M167.52,67.73a1.05,1.05,0,0,1,.34.8,1,1,0,0,1-.05.35.59.59,0,0,1-.15.27.69.69,0,0,1-.27.17,1.16,1.16,0,0,1-.4.06h-1.28V68.9h.19a.88.88,0,0,1-.17-.28.78.78,0,0,1-.07-.33,1,1,0,0,1,.05-.32.73.73,0,0,1,.13-.23.69.69,0,0,1,.2-.13.59.59,0,0,1,.23,0,.6.6,0,0,1,.3.07.63.63,0,0,1,.23.2,1,1,0,0,1,.16.33,2.16,2.16,0,0,1,0,.46v.27a.61.61,0,0,0,.35-.1.37.37,0,0,0,.11-.29.79.79,0,0,0-.28-.53Zm-.89,1a1,1,0,0,0,0-.32.46.46,0,0,0-.08-.2.21.21,0,0,0-.11-.1.27.27,0,0,0-.12,0l-.1,0a.27.27,0,0,0-.08.07.31.31,0,0,0-.05.1.27.27,0,0,0,0,.12.48.48,0,0,0,0,.18.38.38,0,0,0,.09.15.94.94,0,0,0,.1.1l.1.06s0,0,.1,0h.16Z"/><path class="cls-21" d="M165.71,69.79h2.13v.43h-.13a.65.65,0,0,1,.15.2.49.49,0,0,1,0,.19s0,.06,0,.09a.41.41,0,0,1-.05.09l-.07.09-.12.07a.54.54,0,0,1,.18.19.44.44,0,0,1,.07.24.54.54,0,0,1,0,.2.37.37,0,0,1-.12.13l-.2.07-.28,0h-1.56v-.47h1.47a.79.79,0,0,0,.26,0,.1.1,0,0,0,.07-.1c0-.12-.14-.18-.41-.18h-1.39v-.46h1.63l.11,0s0,0,.05,0a.06.06,0,0,0,0,0,.11.11,0,0,0,0-.08l-.06-.06a.35.35,0,0,0-.12,0l-.2,0h-1.4Z"/><path class="cls-21" d="M167.86,73.06a1,1,0,0,1-.06.35.93.93,0,0,1-.52.48,1.45,1.45,0,0,1-.44.07h-.21V72.56l-.27.07a.83.83,0,0,0-.18.13.61.61,0,0,0-.14.35.68.68,0,0,0,.07.28.57.57,0,0,0,.19.24l-.28.28a1,1,0,0,1-.38-.8,1.14,1.14,0,0,1,.29-.75,1.23,1.23,0,0,1,.35-.22,1.3,1.3,0,0,1,.46-.08,1.4,1.4,0,0,1,.47.08.93.93,0,0,1,.35.21,1,1,0,0,1,.23.31A1.05,1.05,0,0,1,167.86,73.06Zm-.87.39a.58.58,0,0,0,.19,0,.48.48,0,0,0,.16-.08.69.69,0,0,0,.11-.13.48.48,0,0,0,0-.18.47.47,0,0,0,0-.17.32.32,0,0,0-.1-.13.56.56,0,0,0-.15-.1l-.21,0Z"/><path class="cls-21" d="M167.13,75.91s0,0,0,0h.09l.09-.1.08-.13a.75.75,0,0,0,0-.16.41.41,0,0,0,0-.16.62.62,0,0,0,0-.13.17.17,0,0,0,0-.1.12.12,0,0,0-.06-.08.11.11,0,0,0-.08,0,.17.17,0,0,0-.1,0,.35.35,0,0,0-.07.09,1.16,1.16,0,0,0-.06.15,2.18,2.18,0,0,0-.06.22,1.34,1.34,0,0,1-.27.55.51.51,0,0,1-.38.18.6.6,0,0,1-.27-.07.66.66,0,0,1-.23-.18,1.06,1.06,0,0,1-.15-.28,1.1,1.1,0,0,1-.06-.37,1.3,1.3,0,0,1,.09-.49,1.11,1.11,0,0,1,.27-.43l.47.26s0,0,0,0l-.08,0a.33.33,0,0,0-.11.1,1,1,0,0,0-.1.15.87.87,0,0,0-.07.17,1,1,0,0,0,0,.17.56.56,0,0,0,.05.28.18.18,0,0,0,.15.1.17.17,0,0,0,.1,0,.15.15,0,0,0,.07-.07l.06-.12.07-.19,0-.12s0-.08,0-.12a.9.9,0,0,1,.11-.22.76.76,0,0,1,.13-.17.54.54,0,0,1,.16-.1.65.65,0,0,1,.21,0,.47.47,0,0,1,.22.07.65.65,0,0,1,.2.17.93.93,0,0,1,.15.26,1,1,0,0,1,.05.34,1,1,0,0,1-.08.44,1,1,0,0,1-.28.38Z"/></g></g></g></g></g></svg>