<svg xmlns="http://www.w3.org/2000/svg" xmlns:xlink="http://www.w3.org/1999/xlink" viewBox="0 0 200.44 195.44"><defs><style>.cls-1,.cls-15,.cls-20{fill:none;}.cls-2,.cls-22{fill:#efc41c;}.cls-11,.cls-2,.cls-4,.cls-5,.cls-6,.cls-7,.cls-8,.cls-9{stroke:#010101;stroke-miterlimit:10;stroke-width:0.5px;}.cls-10,.cls-13,.cls-3{font-size:7.5px;}.cls-17,.cls-3{fill:#fff;}.cls-10,.cls-12,.cls-13,.cls-18,.cls-22,.cls-26,.cls-3{font-family:Inconsolata-Bold, Inconsolata;font-weight:700;}.cls-4{fill:#f15c5a;}.cls-5{fill:#965ba5;}.cls-6{fill:#194c61;}.cls-7{fill:#ef9021;}.cls-10,.cls-8{fill:#3c8b53;}.cls-9{fill:#4fba6f;}.cls-11,.cls-26{fill:#2c96c0;}.cls-12{font-size:40.83px;fill:#010101;}.cls-13{fill:#231f20;}.cls-14{clip-path:url(#clip-path);}.cls-15{stroke:#2c96c0;}.cls-15,.cls-20{stroke-width:2px;}.cls-16{clip-path:url(#clip-path-2);}.cls-18,.cls-22,.cls-26{font-size:4.51px;}.cls-18{fill:#4899d4;}.cls-19{clip-path:url(#clip-path-3);}.cls-20{stroke:#efc41c;}.cls-21{clip-path:url(#clip-path-4);}.cls-23{clip-path:url(#clip-path-5);}.cls-24{clip-path:url(#clip-path-6);}.cls-25{clip-path:url(#clip-path-7);}.cls-27{clip-path:url(#clip-path-8);}.cls-28{clip-path:url(#clip-path-9);}.cls-29{clip-path:url(#clip-path-10);}</style><clipPath id="clip-path"><rect class="cls-1" x="109.13" y="28.37" width="54.57" height="1.13"/></clipPath><clipPath id="clip-path-2"><rect class="cls-1" x="123.59" y="24.48" width="26.26" height="8.04"/></clipPath><clipPath id="clip-path-3"><rect class="cls-1" x="3.01" y="28.25" width="64.91" height="1.11"/></clipPath><clipPath id="clip-path-4"><rect class="cls-1" x="18.85" y="24.23" width="33.23" height="8.04"/></clipPath><clipPath id="clip-path-5"><rect class="cls-1" x="166.38" y="138.39" width="1.13" height="54.57"/></clipPath><clipPath id="clip-path-6"><rect id="SVGID" class="cls-1" x="163.36" y="152.84" width="8.04" height="26.26"/></clipPath><clipPath id="clip-path-7"><polygon id="SVGID-2" data-name="SVGID" class="cls-1" points="0.51 198.09 288.98 198.09 280.65 -36.15 -7.82 -36.15 0.51 198.09"/></clipPath><clipPath id="clip-path-8"><rect class="cls-1" x="166.38" y="32.89" width="1.13" height="66.01"/></clipPath><clipPath id="clip-path-9"><rect class="cls-1" x="-7.82" y="-37.25" width="288.47" height="216.35"/></clipPath><clipPath id="clip-path-10"><rect class="cls-1" x="163.36" y="49.65" width="8.04" height="33.23"/></clipPath></defs><g id="Layer_2" data-name="Layer 2"><g id="Panel_A" data-name="Panel A"><g id="obs"><rect class="cls-2" x="171.18" y="33.49" width="29" height="64.88"/><text class="cls-3" transform="translate(180.06 68.39)">obs</text></g><g id="obsp"><rect class="cls-4" x="0.25" y="36.22" width="64.91" height="64.88"/><rect class="cls-4" x="1.63" y="34.84" width="64.91" height="64.88"/><rect class="cls-4" x="3.01" y="33.46" width="64.91" height="64.88"/><text class="cls-3" transform="translate(28.27 68.04)">obsp</text></g><g id="varp"><rect class="cls-5" x="106.93" y="141.67" width="53.44" height="53.52"/><rect class="cls-5" x="108.31" y="140.29" width="53.44" height="53.52"/><rect class="cls-5" x="109.69" y="138.91" width="53.44" height="53.52"/><text class="cls-3" transform="translate(128.67 167.97)">varp</text></g><g id="Varm"><rect class="cls-6" x="106.93" y="112.01" width="53.44" height="24.43"/><rect class="cls-6" x="108.31" y="110.63" width="53.44" height="24.43"/><rect class="cls-6" x="109.69" y="109.25" width="53.44" height="24.43"/><text class="cls-3" transform="translate(129.22 123.57)">varm</text></g><g id="Obsm"><rect class="cls-7" x="71.75" y="36.1" width="29" height="64.88"/><rect class="cls-7" x="73.13" y="34.72" width="29" height="64.88"/><rect class="cls-7" x="74.51" y="33.38" width="29" height="64.88"/><text class="cls-3" transform="translate(81.51 68.27)">obsm</text></g><g id="Layers"><rect class="cls-8" x="106.93" y="36.15" width="53.44" height="64.88"/><rect class="cls-8" x="108.31" y="34.77" width="53.44" height="64.88"/><rect class="cls-9" x="109.69" y="33.46" width="53.44" height="64.88"/><text class="cls-3" transform="translate(134.84 68.39)">X</text><text class="cls-10" transform="translate(106.31 107.37)">layers</text></g><g id="var"><rect class="cls-11" x="109.69" y="0.25" width="53.44" height="24.43"/><text class="cls-3" transform="translate(131.09 14.78)">var</text></g><g id="Uns"><text class="cls-12" transform="translate(18.79 160.33)">{…}</text><text class="cls-13" transform="translate(43.6 137.57) rotate(-0.16)">uns</text></g><g id="var_names_horizontal" data-name="var_names horizontal"><g class="cls-14"><line class="cls-15" x1="109.41" y1="28.94" x2="163.42" y2="28.94"/></g><g class="cls-16"><rect class="cls-17" x="125.07" y="25.82" width="23.29" height="5.35"/><text class="cls-18" transform="translate(126.57 30.08)">var_names</text></g></g><g id="obs_names_horizontal" data-name="obs_names horizontal"><g class="cls-19"><line class="cls-20" x1="3.29" y1="28.81" x2="67.65" y2="28.81"/></g><g class="cls-21"><rect class="cls-17" x="23.2" y="25.58" width="24.53" height="5.35"/><text class="cls-22" transform="translate(25.32 29.9)">obs_names</text></g></g><g id="var_names_vertical" data-name="var_names  vertical"><g class="cls-23"><line class="cls-15" x1="166.94" y1="138.67" x2="166.94" y2="192.68"/></g><line class="cls-17" x1="164.7" y1="154.33" x2="170.06" y2="154.33"/><line class="cls-1" x1="171.4" y1="152.84" x2="163.36" y2="152.84"/><g class="cls-24"><g class="cls-25"><rect class="cls-17" x="164.7" y="154.33" width="5.35" height="23.29"/><text class="cls-26" transform="translate(165.71 155.83) rotate(90)">var_names</text></g></g></g><g id="obs_names_vertical" data-name="obs_names vertical"><g class="cls-27"><g class="cls-28"><line class="cls-20" x1="166.94" y1="33.17" x2="166.94" y2="98.62"/></g></g><g class="cls-29"><g class="cls-28"><rect class="cls-17" x="164.7" y="54" width="5.35" height="24.53"/><text class="cls-22" transform="translate(165.71 56.12) rotate(90)">obs_names</text></g></g></g></g></g></svg>