<?xml version="1.0" encoding="UTF-8" standalone="no"?>
<!DOCTYPE svg PUBLIC "-//W3C//DTD SVG 1.1//EN"
 "http://www.w3.org/Graphics/SVG/1.1/DTD/svg11.dtd">
<!-- Generated by graphviz version 6.0.1 (20220911.2005)
 -->
<!-- Pages: 1 -->
<svg width="2934pt" height="246pt"
 viewBox="0.00 0.00 2934.39 246.39" xmlns="http://www.w3.org/2000/svg" xmlns:xlink="http://www.w3.org/1999/xlink">
<g id="graph0" class="graph" transform="scale(1 1) rotate(0) translate(4 242.39)">
<polygon fill="white" stroke="none" points="-4,4 -4,-242.39 2930.39,-242.39 2930.39,4 -4,4"/>
<!-- &#45;9023098035547930907 -->
<g id="node1" class="node">
<title>&#45;9023098035547930907</title>
<ellipse fill="none" stroke="black" cx="83.19" cy="-83.19" rx="83.39" ry="83.39"/>
<text text-anchor="middle" x="83.19" y="-79.49" font-family="Helvetica,sans-Serif" font-size="14.00">random_sample</text>
</g>
<!-- &#45;7866721054060119890 -->
<g id="node2" class="node">
<title>&#45;7866721054060119890</title>
<polygon fill="none" stroke="black" points="110.19,-238.39 56.19,-238.39 56.19,-202.39 110.19,-202.39 110.19,-238.39"/>
<text text-anchor="middle" x="83.19" y="-216.69" font-family="Helvetica,sans-Serif" font-size="14.00">(0, 0)</text>
</g>
<!-- &#45;9023098035547930907&#45;&gt;&#45;7866721054060119890 -->
<g id="edge1" class="edge">
<title>&#45;9023098035547930907&#45;&gt;&#45;7866721054060119890</title>
<path fill="none" stroke="black" d="M83.19,-166.73C83.19,-175.85 83.19,-184.58 83.19,-192.23"/>
<polygon fill="black" stroke="black" points="79.69,-192.23 83.19,-202.23 86.69,-192.23 79.69,-192.23"/>
</g>
<!-- 7054588811065845492 -->
<g id="node3" class="node">
<title>7054588811065845492</title>
<ellipse fill="none" stroke="black" cx="267.19" cy="-83.19" rx="83.39" ry="83.39"/>
<text text-anchor="middle" x="267.19" y="-79.49" font-family="Helvetica,sans-Serif" font-size="14.00">random_sample</text>
</g>
<!-- 1288591607692367232 -->
<g id="node4" class="node">
<title>1288591607692367232</title>
<polygon fill="none" stroke="black" points="294.19,-238.39 240.19,-238.39 240.19,-202.39 294.19,-202.39 294.19,-238.39"/>
<text text-anchor="middle" x="267.19" y="-216.69" font-family="Helvetica,sans-Serif" font-size="14.00">(0, 1)</text>
</g>
<!-- 7054588811065845492&#45;&gt;1288591607692367232 -->
<g id="edge2" class="edge">
<title>7054588811065845492&#45;&gt;1288591607692367232</title>
<path fill="none" stroke="black" d="M267.19,-166.73C267.19,-175.85 267.19,-184.58 267.19,-192.23"/>
<polygon fill="black" stroke="black" points="263.69,-192.23 267.19,-202.23 270.69,-192.23 263.69,-192.23"/>
</g>
<!-- 7582679720740727024 -->
<g id="node5" class="node">
<title>7582679720740727024</title>
<ellipse fill="none" stroke="black" cx="451.19" cy="-83.19" rx="83.39" ry="83.39"/>
<text text-anchor="middle" x="451.19" y="-79.49" font-family="Helvetica,sans-Serif" font-size="14.00">random_sample</text>
</g>
<!-- 7796232363794365657 -->
<g id="node6" class="node">
<title>7796232363794365657</title>
<polygon fill="none" stroke="black" points="478.19,-238.39 424.19,-238.39 424.19,-202.39 478.19,-202.39 478.19,-238.39"/>
<text text-anchor="middle" x="451.19" y="-216.69" font-family="Helvetica,sans-Serif" font-size="14.00">(0, 2)</text>
</g>
<!-- 7582679720740727024&#45;&gt;7796232363794365657 -->
<g id="edge3" class="edge">
<title>7582679720740727024&#45;&gt;7796232363794365657</title>
<path fill="none" stroke="black" d="M451.19,-166.73C451.19,-175.85 451.19,-184.58 451.19,-192.23"/>
<polygon fill="black" stroke="black" points="447.69,-192.23 451.19,-202.23 454.69,-192.23 447.69,-192.23"/>
</g>
<!-- &#45;6624745180529931984 -->
<g id="node7" class="node">
<title>&#45;6624745180529931984</title>
<ellipse fill="none" stroke="black" cx="635.19" cy="-83.19" rx="83.39" ry="83.39"/>
<text text-anchor="middle" x="635.19" y="-79.49" font-family="Helvetica,sans-Serif" font-size="14.00">random_sample</text>
</g>
<!-- 2903158334821669291 -->
<g id="node8" class="node">
<title>2903158334821669291</title>
<polygon fill="none" stroke="black" points="662.19,-238.39 608.19,-238.39 608.19,-202.39 662.19,-202.39 662.19,-238.39"/>
<text text-anchor="middle" x="635.19" y="-216.69" font-family="Helvetica,sans-Serif" font-size="14.00">(0, 3)</text>
</g>
<!-- &#45;6624745180529931984&#45;&gt;2903158334821669291 -->
<g id="edge4" class="edge">
<title>&#45;6624745180529931984&#45;&gt;2903158334821669291</title>
<path fill="none" stroke="black" d="M635.19,-166.73C635.19,-175.85 635.19,-184.58 635.19,-192.23"/>
<polygon fill="black" stroke="black" points="631.69,-192.23 635.19,-202.23 638.69,-192.23 631.69,-192.23"/>
</g>
<!-- 5469236728011446544 -->
<g id="node9" class="node">
<title>5469236728011446544</title>
<ellipse fill="none" stroke="black" cx="819.19" cy="-83.19" rx="83.39" ry="83.39"/>
<text text-anchor="middle" x="819.19" y="-79.49" font-family="Helvetica,sans-Serif" font-size="14.00">random_sample</text>
</g>
<!-- &#45;2414929785080099966 -->
<g id="node10" class="node">
<title>&#45;2414929785080099966</title>
<polygon fill="none" stroke="black" points="846.19,-238.39 792.19,-238.39 792.19,-202.39 846.19,-202.39 846.19,-238.39"/>
<text text-anchor="middle" x="819.19" y="-216.69" font-family="Helvetica,sans-Serif" font-size="14.00">(1, 0)</text>
</g>
<!-- 5469236728011446544&#45;&gt;&#45;2414929785080099966 -->
<g id="edge5" class="edge">
<title>5469236728011446544&#45;&gt;&#45;2414929785080099966</title>
<path fill="none" stroke="black" d="M819.19,-166.73C819.19,-175.85 819.19,-184.58 819.19,-192.23"/>
<polygon fill="black" stroke="black" points="815.69,-192.23 819.19,-202.23 822.69,-192.23 815.69,-192.23"/>
</g>
<!-- &#45;8738188173259212464 -->
<g id="node11" class="node">
<title>&#45;8738188173259212464</title>
<ellipse fill="none" stroke="black" cx="1003.19" cy="-83.19" rx="83.39" ry="83.39"/>
<text text-anchor="middle" x="1003.19" y="-79.49" font-family="Helvetica,sans-Serif" font-size="14.00">random_sample</text>
</g>
<!-- &#45;7308003814052796332 -->
<g id="node12" class="node">
<title>&#45;7308003814052796332</title>
<polygon fill="none" stroke="black" points="1030.19,-238.39 976.19,-238.39 976.19,-202.39 1030.19,-202.39 1030.19,-238.39"/>
<text text-anchor="middle" x="1003.19" y="-216.69" font-family="Helvetica,sans-Serif" font-size="14.00">(1, 1)</text>
</g>
<!-- &#45;8738188173259212464&#45;&gt;&#45;7308003814052796332 -->
<g id="edge6" class="edge">
<title>&#45;8738188173259212464&#45;&gt;&#45;7308003814052796332</title>
<path fill="none" stroke="black" d="M1003.19,-166.73C1003.19,-175.85 1003.19,-184.58 1003.19,-192.23"/>
<polygon fill="black" stroke="black" points="999.69,-192.23 1003.19,-202.23 1006.69,-192.23 999.69,-192.23"/>
</g>
<!-- 4506071612317397982 -->
<g id="node13" class="node">
<title>4506071612317397982</title>
<ellipse fill="none" stroke="black" cx="1187.19" cy="-83.19" rx="83.39" ry="83.39"/>
<text text-anchor="middle" x="1187.19" y="-79.49" font-family="Helvetica,sans-Serif" font-size="14.00">random_sample</text>
</g>
<!-- &#45;800363057950797907 -->
<g id="node14" class="node">
<title>&#45;800363057950797907</title>
<polygon fill="none" stroke="black" points="1214.19,-238.39 1160.19,-238.39 1160.19,-202.39 1214.19,-202.39 1214.19,-238.39"/>
<text text-anchor="middle" x="1187.19" y="-216.69" font-family="Helvetica,sans-Serif" font-size="14.00">(1, 2)</text>
</g>
<!-- 4506071612317397982&#45;&gt;&#45;800363057950797907 -->
<g id="edge7" class="edge">
<title>4506071612317397982&#45;&gt;&#45;800363057950797907</title>
<path fill="none" stroke="black" d="M1187.19,-166.73C1187.19,-175.85 1187.19,-184.58 1187.19,-192.23"/>
<polygon fill="black" stroke="black" points="1183.69,-192.23 1187.19,-202.23 1190.69,-192.23 1183.69,-192.23"/>
</g>
<!-- &#45;1125375053012638357 -->
<g id="node15" class="node">
<title>&#45;1125375053012638357</title>
<ellipse fill="none" stroke="black" cx="1371.19" cy="-83.19" rx="83.39" ry="83.39"/>
<text text-anchor="middle" x="1371.19" y="-79.49" font-family="Helvetica,sans-Serif" font-size="14.00">random_sample</text>
</g>
<!-- 5707277698151200518 -->
<g id="node16" class="node">
<title>5707277698151200518</title>
<polygon fill="none" stroke="black" points="1398.19,-238.39 1344.19,-238.39 1344.19,-202.39 1398.19,-202.39 1398.19,-238.39"/>
<text text-anchor="middle" x="1371.19" y="-216.69" font-family="Helvetica,sans-Serif" font-size="14.00">(1, 3)</text>
</g>
<!-- &#45;1125375053012638357&#45;&gt;5707277698151200518 -->
<g id="edge8" class="edge">
<title>&#45;1125375053012638357&#45;&gt;5707277698151200518</title>
<path fill="none" stroke="black" d="M1371.19,-166.73C1371.19,-175.85 1371.19,-184.58 1371.19,-192.23"/>
<polygon fill="black" stroke="black" points="1367.69,-192.23 1371.19,-202.23 1374.69,-192.23 1367.69,-192.23"/>
</g>
<!-- &#45;808943789691033565 -->
<g id="node17" class="node">
<title>&#45;808943789691033565</title>
<ellipse fill="none" stroke="black" cx="1555.19" cy="-83.19" rx="83.39" ry="83.39"/>
<text text-anchor="middle" x="1555.19" y="-79.49" font-family="Helvetica,sans-Serif" font-size="14.00">random_sample</text>
</g>
<!-- &#45;453630248835977531 -->
<g id="node18" class="node">
<title>&#45;453630248835977531</title>
<polygon fill="none" stroke="black" points="1582.19,-238.39 1528.19,-238.39 1528.19,-202.39 1582.19,-202.39 1582.19,-238.39"/>
<text text-anchor="middle" x="1555.19" y="-216.69" font-family="Helvetica,sans-Serif" font-size="14.00">(2, 0)</text>
</g>
<!-- &#45;808943789691033565&#45;&gt;&#45;453630248835977531 -->
<g id="edge9" class="edge">
<title>&#45;808943789691033565&#45;&gt;&#45;453630248835977531</title>
<path fill="none" stroke="black" d="M1555.19,-166.73C1555.19,-175.85 1555.19,-184.58 1555.19,-192.23"/>
<polygon fill="black" stroke="black" points="1551.69,-192.23 1555.19,-202.23 1558.69,-192.23 1551.69,-192.23"/>
</g>
<!-- &#45;7086960412033131128 -->
<g id="node19" class="node">
<title>&#45;7086960412033131128</title>
<ellipse fill="none" stroke="black" cx="1739.19" cy="-83.19" rx="83.39" ry="83.39"/>
<text text-anchor="middle" x="1739.19" y="-79.49" font-family="Helvetica,sans-Serif" font-size="14.00">random_sample</text>
</g>
<!-- 8701682412916509591 -->
<g id="node20" class="node">
<title>8701682412916509591</title>
<polygon fill="none" stroke="black" points="1766.19,-238.39 1712.19,-238.39 1712.19,-202.39 1766.19,-202.39 1766.19,-238.39"/>
<text text-anchor="middle" x="1739.19" y="-216.69" font-family="Helvetica,sans-Serif" font-size="14.00">(2, 1)</text>
</g>
<!-- &#45;7086960412033131128&#45;&gt;8701682412916509591 -->
<g id="edge10" class="edge">
<title>&#45;7086960412033131128&#45;&gt;8701682412916509591</title>
<path fill="none" stroke="black" d="M1739.19,-166.73C1739.19,-175.85 1739.19,-184.58 1739.19,-192.23"/>
<polygon fill="black" stroke="black" points="1735.69,-192.23 1739.19,-202.23 1742.69,-192.23 1735.69,-192.23"/>
</g>
<!-- &#45;2649910107111927250 -->
<g id="node21" class="node">
<title>&#45;2649910107111927250</title>
<ellipse fill="none" stroke="black" cx="1923.19" cy="-83.19" rx="83.39" ry="83.39"/>
<text text-anchor="middle" x="1923.19" y="-79.49" font-family="Helvetica,sans-Serif" font-size="14.00">random_sample</text>
</g>
<!-- &#45;3237420904691043600 -->
<g id="node22" class="node">
<title>&#45;3237420904691043600</title>
<polygon fill="none" stroke="black" points="1950.19,-238.39 1896.19,-238.39 1896.19,-202.39 1950.19,-202.39 1950.19,-238.39"/>
<text text-anchor="middle" x="1923.19" y="-216.69" font-family="Helvetica,sans-Serif" font-size="14.00">(2, 2)</text>
</g>
<!-- &#45;2649910107111927250&#45;&gt;&#45;3237420904691043600 -->
<g id="edge11" class="edge">
<title>&#45;2649910107111927250&#45;&gt;&#45;3237420904691043600</title>
<path fill="none" stroke="black" d="M1923.19,-166.73C1923.19,-175.85 1923.19,-184.58 1923.19,-192.23"/>
<polygon fill="black" stroke="black" points="1919.69,-192.23 1923.19,-202.23 1926.69,-192.23 1919.69,-192.23"/>
</g>
<!-- &#45;7852394395244868420 -->
<g id="node23" class="node">
<title>&#45;7852394395244868420</title>
<ellipse fill="none" stroke="black" cx="2107.19" cy="-83.19" rx="83.39" ry="83.39"/>
<text text-anchor="middle" x="2107.19" y="-79.49" font-family="Helvetica,sans-Serif" font-size="14.00">random_sample</text>
</g>
<!-- 3270219851410954825 -->
<g id="node24" class="node">
<title>3270219851410954825</title>
<polygon fill="none" stroke="black" points="2134.19,-238.39 2080.19,-238.39 2080.19,-202.39 2134.19,-202.39 2134.19,-238.39"/>
<text text-anchor="middle" x="2107.19" y="-216.69" font-family="Helvetica,sans-Serif" font-size="14.00">(2, 3)</text>
</g>
<!-- &#45;7852394395244868420&#45;&gt;3270219851410954825 -->
<g id="edge12" class="edge">
<title>&#45;7852394395244868420&#45;&gt;3270219851410954825</title>
<path fill="none" stroke="black" d="M2107.19,-166.73C2107.19,-175.85 2107.19,-184.58 2107.19,-192.23"/>
<polygon fill="black" stroke="black" points="2103.69,-192.23 2107.19,-202.23 2110.69,-192.23 2103.69,-192.23"/>
</g>
<!-- 842283971535047771 -->
<g id="node25" class="node">
<title>842283971535047771</title>
<ellipse fill="none" stroke="black" cx="2291.19" cy="-83.19" rx="83.39" ry="83.39"/>
<text text-anchor="middle" x="2291.19" y="-79.49" font-family="Helvetica,sans-Serif" font-size="14.00">random_sample</text>
</g>
<!-- &#45;2890688095576223224 -->
<g id="node26" class="node">
<title>&#45;2890688095576223224</title>
<polygon fill="none" stroke="black" points="2318.19,-238.39 2264.19,-238.39 2264.19,-202.39 2318.19,-202.39 2318.19,-238.39"/>
<text text-anchor="middle" x="2291.19" y="-216.69" font-family="Helvetica,sans-Serif" font-size="14.00">(3, 0)</text>
</g>
<!-- 842283971535047771&#45;&gt;&#45;2890688095576223224 -->
<g id="edge13" class="edge">
<title>842283971535047771&#45;&gt;&#45;2890688095576223224</title>
<path fill="none" stroke="black" d="M2291.19,-166.73C2291.19,-175.85 2291.19,-184.58 2291.19,-192.23"/>
<polygon fill="black" stroke="black" points="2287.69,-192.23 2291.19,-202.23 2294.69,-192.23 2287.69,-192.23"/>
</g>
<!-- 5081603143973940379 -->
<g id="node27" class="node">
<title>5081603143973940379</title>
<ellipse fill="none" stroke="black" cx="2475.19" cy="-83.19" rx="83.39" ry="83.39"/>
<text text-anchor="middle" x="2475.19" y="-79.49" font-family="Helvetica,sans-Serif" font-size="14.00">random_sample</text>
</g>
<!-- &#45;7783762124548919590 -->
<g id="node28" class="node">
<title>&#45;7783762124548919590</title>
<polygon fill="none" stroke="black" points="2502.19,-238.39 2448.19,-238.39 2448.19,-202.39 2502.19,-202.39 2502.19,-238.39"/>
<text text-anchor="middle" x="2475.19" y="-216.69" font-family="Helvetica,sans-Serif" font-size="14.00">(3, 1)</text>
</g>
<!-- 5081603143973940379&#45;&gt;&#45;7783762124548919590 -->
<g id="edge14" class="edge">
<title>5081603143973940379&#45;&gt;&#45;7783762124548919590</title>
<path fill="none" stroke="black" d="M2475.19,-166.73C2475.19,-175.85 2475.19,-184.58 2475.19,-192.23"/>
<polygon fill="black" stroke="black" points="2471.69,-192.23 2475.19,-202.23 2478.69,-192.23 2471.69,-192.23"/>
</g>
<!-- &#45;6280418719163918662 -->
<g id="node29" class="node">
<title>&#45;6280418719163918662</title>
<ellipse fill="none" stroke="black" cx="2659.19" cy="-83.19" rx="83.39" ry="83.39"/>
<text text-anchor="middle" x="2659.19" y="-79.49" font-family="Helvetica,sans-Serif" font-size="14.00">random_sample</text>
</g>
<!-- &#45;1276121368446921165 -->
<g id="node30" class="node">
<title>&#45;1276121368446921165</title>
<polygon fill="none" stroke="black" points="2686.19,-238.39 2632.19,-238.39 2632.19,-202.39 2686.19,-202.39 2686.19,-238.39"/>
<text text-anchor="middle" x="2659.19" y="-216.69" font-family="Helvetica,sans-Serif" font-size="14.00">(3, 2)</text>
</g>
<!-- &#45;6280418719163918662&#45;&gt;&#45;1276121368446921165 -->
<g id="edge15" class="edge">
<title>&#45;6280418719163918662&#45;&gt;&#45;1276121368446921165</title>
<path fill="none" stroke="black" d="M2659.19,-166.73C2659.19,-175.85 2659.19,-184.58 2659.19,-192.23"/>
<polygon fill="black" stroke="black" points="2655.69,-192.23 2659.19,-202.23 2662.69,-192.23 2655.69,-192.23"/>
</g>
<!-- &#45;7962346826039336827 -->
<g id="node31" class="node">
<title>&#45;7962346826039336827</title>
<ellipse fill="none" stroke="black" cx="2843.19" cy="-83.19" rx="83.39" ry="83.39"/>
<text text-anchor="middle" x="2843.19" y="-79.49" font-family="Helvetica,sans-Serif" font-size="14.00">random_sample</text>
</g>
<!-- 833162004670709132 -->
<g id="node32" class="node">
<title>833162004670709132</title>
<polygon fill="none" stroke="black" points="2870.19,-238.39 2816.19,-238.39 2816.19,-202.39 2870.19,-202.39 2870.19,-238.39"/>
<text text-anchor="middle" x="2843.19" y="-216.69" font-family="Helvetica,sans-Serif" font-size="14.00">(3, 3)</text>
</g>
<!-- &#45;7962346826039336827&#45;&gt;833162004670709132 -->
<g id="edge16" class="edge">
<title>&#45;7962346826039336827&#45;&gt;833162004670709132</title>
<path fill="none" stroke="black" d="M2843.19,-166.73C2843.19,-175.85 2843.19,-184.58 2843.19,-192.23"/>
<polygon fill="black" stroke="black" points="2839.69,-192.23 2843.19,-202.23 2846.69,-192.23 2839.69,-192.23"/>
</g>
</g>
</svg>
